<?xml version="1.0" encoding="utf-8"?><svg viewBox="0 0 107 108" xmlns="http://www.w3.org/2000/svg" xmlns:xlink="http://www.w3.org/1999/xlink"><style>:root>svg{display:none}:root>svg:target{display:block}</style><svg fill="none" viewBox="0 0 107 106" id="icon-1" xmlns="http://www.w3.org/2000/svg"><path d="M65.379 24.734a1.766 1.766 0 100-3.533h-3.533a1.766 1.766 0 100 3.533h3.533zM38.88 44.167v10.6c0 .975.79 1.767 1.766 1.767h24.733c.977 0 1.766-.792 1.766-1.767v-10.6c0-7.793-6.34-14.133-14.133-14.133-7.792 0-14.133 6.34-14.133 14.133zM51.245 53h-8.833v-7.066h8.833V53zm0-10.6h-8.674a10.614 10.614 0 018.674-8.674V42.4zm3.533-8.674a10.615 10.615 0 018.674 8.675H54.78v-8.675zm0 12.208h8.833V53H54.78v-7.066zM93.646 102.467h-74.2a1.767 1.767 0 000 3.533h74.2a1.766 1.766 0 100-3.533zM15.913 17.667h1.766V26.5a1.767 1.767 0 003.534 0V15.9c0-.975-.792-1.766-1.767-1.766h-1.767V10.6h10.6v3.534h-1.766c-.975 0-1.767.791-1.767 1.766v3.534a1.767 1.767 0 003.533 0v-1.767h1.767c.975 0 1.766-.791 1.766-1.766V8.834c0-.975-.791-1.767-1.766-1.767H15.913c-.975 0-1.767.792-1.767 1.767V15.9c0 .976.792 1.767 1.767 1.767zM19.446 98.933h3.534a1.767 1.767 0 000-3.533h-3.534a1.767 1.767 0 000 3.533zM37.113 31.8h-3.534a1.767 1.767 0 000 3.534h3.534a1.767 1.767 0 000-3.534zM12.38 102.467H1.78a1.767 1.767 0 000 3.533h10.6a1.768 1.768 0 000-3.533zM72.446 88.333h10.6a1.766 1.766 0 100-3.533h-10.6a1.766 1.766 0 100 3.533zM86.579 77.734a1.766 1.766 0 100-3.534h-3.534a1.766 1.766 0 100 3.534h3.534zM35.346 86.567c0-.975-.791-1.767-1.767-1.767h-3.533a1.767 1.767 0 000 3.533h3.533c.975 0 1.767-.791 1.767-1.766zM21.213 44.167c0 .975.791 1.767 1.766 1.767h10.6a1.767 1.767 0 000-3.534h-10.6c-.975 0-1.766.792-1.766 1.767zM104.245 102.467h-3.533a1.766 1.766 0 100 3.533h3.533a1.767 1.767 0 100-3.533z" fill="#2D8EFF"/><path d="M104.245 54.768a1.764 1.764 0 001.249-3.016L94.896 41.154c-.001-.002-.001-.002-.003-.002l-8.83-8.831-.003-.004L54.26.52a1.765 1.765 0 00-2.498 0l-21.2 21.198v.002L.53 51.752c-.69.69-.69 1.807 0 2.498.691.69 1.808.69 2.498 0l7.585-7.584v50.501a1.767 1.767 0 003.533 0v-8.833h8.833a1.767 1.767 0 000-3.533h-8.833V67.134h1.767a1.767 1.767 0 000-3.533h-1.767v-7.067h15.9a1.767 1.767 0 000-3.533h-15.9v-9.868l18.398-18.398H44.18a1.767 1.767 0 000-3.533h-8.102L53.013 4.266l27.535 27.535h-4.569a1.766 1.766 0 100 3.534h8.102l7.067 7.066h-8.102a1.766 1.766 0 100 3.533h8.833v7.067h-1.766a1.766 1.766 0 100 3.533h1.766V63.6h-8.833a1.766 1.766 0 100 3.534h8.833V84.8h-1.766a1.766 1.766 0 100 3.533h1.766V95.4H79.513a1.766 1.766 0 100 3.533h14.133c.977 0 1.767-.792 1.767-1.767v-50.5l7.584 7.584a1.76 1.76 0 001.248.518z" fill="#2D8EFF"/><path d="M26.513 77.733h12.366V95.4h-5.3a1.767 1.767 0 000 3.533h7.067c.975 0 1.766-.791 1.766-1.767V67.135h21.2v14.133h-1.766a1.766 1.766 0 100 3.533h1.766v12.367a1.766 1.766 0 103.533 0V77.733h1.767a1.766 1.766 0 100-3.533h-1.767v-8.833c0-.975-.79-1.767-1.766-1.767H40.646c-.975 0-1.767.792-1.767 1.767V74.2H26.513a1.767 1.767 0 000 3.533zM24.746 65.367c0 .975.792 1.766 1.767 1.766h7.066a1.767 1.767 0 000-3.533h-7.066c-.975 0-1.767.792-1.767 1.767zM72.446 67.133h3.533a1.766 1.766 0 100-3.533h-3.533a1.766 1.766 0 100 3.533zM74.212 54.767c0 .975.79 1.766 1.767 1.766h7.066a1.766 1.766 0 100-3.533H75.98c-.977 0-1.767.792-1.767 1.767zM75.979 42.4h-3.534a1.766 1.766 0 100 3.533h3.534a1.766 1.766 0 100-3.533z" fill="#2D8EFF"/></svg><svg fill="none" viewBox="0 0 107 108" id="icon-2" xmlns="http://www.w3.org/2000/svg"><path d="M76.441 100.308H26.975c-.975 0-1.767.803-1.767 1.791v3.583c0 .989.792 1.791 1.767 1.791.975 0 1.766-.802 1.766-1.791v-1.791h47.7c.975 0 1.767-.803 1.767-1.791 0-.989-.791-1.792-1.767-1.792zM39.341 44.78c0 .989.792 1.791 1.767 1.791h7.067c.975 0 1.766-.802 1.766-1.79V34.032c0-.989-.791-1.791-1.766-1.791h-7.067c-.975 0-1.766.802-1.766 1.791V44.78zm3.534-8.956h3.533v7.165h-3.533v-7.165zM23.441 21.495h-21.2c-.975 0-1.766.802-1.766 1.79V59.11c0 .989.791 1.791 1.766 1.791.976 0 1.767-.802 1.767-1.79V25.076h19.433c.976 0 1.767-.802 1.767-1.79 0-.99-.791-1.792-1.767-1.792zM85.275 87.77c0 .989.791 1.79 1.766 1.79h7.067c.975 0 1.767-.802 1.767-1.79V77.022c0-.988-.792-1.79-1.767-1.79h-7.067c-.975 0-1.766.802-1.766 1.79V87.77zm3.533-8.956h3.534v7.165h-3.534v-7.165zM9.308 64.484C.575 64.484.475 87.537.475 87.769c0 4.326 3.04 7.943 7.066 8.776v9.137c0 .989.792 1.791 1.767 1.791.975 0 1.767-.802 1.767-1.791v-9.137c4.026-.833 7.066-4.45 7.066-8.776 0-.232-.1-23.285-8.833-23.285zm0 28.66c-2.922 0-5.3-2.412-5.3-5.375 0-8.923 2.364-19.703 5.3-19.703s5.3 10.78 5.3 19.703c0 2.963-2.378 5.374-5.3 5.374zM19.908 53.737h-7.067c-.975 0-1.766.802-1.766 1.79v3.583c0 .989.791 1.791 1.766 1.791.976 0 1.767-.802 1.767-1.79v-1.792h3.533v8.956c0 .989.792 1.791 1.767 1.791.975 0 1.767-.802 1.767-1.79V55.527c0-.989-.792-1.791-1.767-1.791zM87.041 46.572h7.067c.975 0 1.767-.803 1.767-1.791V34.033c0-.989-.792-1.79-1.767-1.79h-7.067c-.975 0-1.766.801-1.766 1.79v10.748c0 .988.791 1.79 1.766 1.79zm1.767-10.748h3.534v7.165h-3.534v-7.165z" fill="#2D8EFF"/><path d="M19.908 32.242h-7.067c-.975 0-1.766.802-1.766 1.791V44.78c0 .989.791 1.791 1.766 1.791h7.067c.975 0 1.767-.802 1.767-1.79V34.032c0-.989-.792-1.791-1.767-1.791zm-1.767 10.747h-3.533v-7.165h3.534v7.165zM57.008 44.78c0 .989.792 1.791 1.767 1.791h7.066c.976 0 1.767-.802 1.767-1.79V34.032c0-.989-.791-1.791-1.767-1.791h-7.066c-.975 0-1.767.802-1.767 1.791V44.78zm3.533-8.956h3.534v7.165H60.54v-7.165zM104.708 21.495h-21.2c-.975 0-1.766.802-1.766 1.79 0 .99.791 1.792 1.766 1.792h19.434v71.978a5.168 5.168 0 00-1.767-.329 5.12 5.12 0 00-.908.08 7.001 7.001 0 00-6.159-3.662 7.001 7.001 0 00-6.158 3.663 5.12 5.12 0 00-.908-.081c-2.922 0-5.3 2.411-5.3 5.374 0 2.962 2.378 5.373 5.3 5.373h14.133c2.922 0 5.3-2.411 5.3-5.373V23.286c0-.989-.792-1.791-1.767-1.791zm-3.533 82.396H87.041c-.973 0-1.766-.804-1.766-1.791 0-.987.793-1.792 1.766-1.792.34 0 .661.099.958.292a1.75 1.75 0 001.622.155 1.78 1.78 0 001.056-1.256c.373-1.632 1.785-2.773 3.431-2.773 1.647 0 3.058 1.141 3.431 2.773a1.78 1.78 0 001.057 1.256 1.75 1.75 0 001.621-.155c1.151-.752 2.725.169 2.725 1.5-.001.987-.794 1.791-1.767 1.791zM58.775 25.077h7.066c.976 0 1.767-.802 1.767-1.791V12.539c0-.99-.791-1.792-1.767-1.792h-7.066c-.975 0-1.767.803-1.767 1.792v10.747c0 .989.792 1.791 1.767 1.791zM60.54 14.33h3.534v7.164H60.54V14.33zM57.008 66.275c0 .989.792 1.791 1.767 1.791h7.066c.976 0 1.767-.802 1.767-1.791V55.528c0-.989-.791-1.791-1.767-1.791h-7.066c-.975 0-1.767.802-1.767 1.79v10.748zm3.533-8.956h3.534v7.165H60.54v-7.165zM41.108 25.077h7.067c.975 0 1.766-.802 1.766-1.791V12.539c0-.99-.791-1.792-1.766-1.792h-7.067c-.975 0-1.766.803-1.766 1.792v10.747c0 .989.79 1.791 1.766 1.791zm1.767-10.747h3.533v7.164h-3.533V14.33zM52.22 86.498c-.318.34-.512.806-.512 1.272 0 .466.194.931.512 1.272.336.322.795.52 1.255.52.46 0 .918-.198 1.254-.52.318-.34.513-.806.513-1.272 0-.466-.195-.931-.513-1.272-.671-.663-1.837-.663-2.509 0zM39.341 66.275c0 .989.792 1.791 1.767 1.791h7.067c.975 0 1.766-.802 1.766-1.791V55.528c0-.989-.791-1.791-1.766-1.791h-7.067c-.975 0-1.766.802-1.766 1.79v10.748zm3.534-8.956h3.533v7.165h-3.533v-7.165z" fill="#2D8EFF"/><path d="M35.808 77.022c0 .99.792 1.792 1.767 1.792h5.3v16.12c0 .99.791 1.792 1.766 1.792.976 0 1.767-.803 1.767-1.791V78.814h14.133v16.12c0 .99.792 1.792 1.767 1.792.975 0 1.767-.803 1.767-1.791V78.814h5.3c.975 0 1.766-.803 1.766-1.791 0-.99-.791-1.792-1.766-1.792h-31.8c-.975 0-1.767.803-1.767 1.791zM85.275 66.275c0 .989.791 1.791 1.766 1.791h7.067c.975 0 1.767-.802 1.767-1.791V55.528c0-.989-.792-1.791-1.767-1.791h-7.067c-.975 0-1.766.802-1.766 1.79v10.748zm3.533-8.956h3.534v7.165h-3.534v-7.165z" fill="#2D8EFF"/><path d="M76.441 0H30.508c-.975 0-1.766.802-1.766 1.791v93.144c0 .988.791 1.79 1.766 1.79s1.767-.802 1.767-1.79V3.582h42.4v91.353c0 .988.791 1.79 1.766 1.79s1.767-.802 1.767-1.79V1.79C78.208.802 77.417 0 76.441 0z" fill="#2D8EFF"/></svg><svg fill="none" viewBox="0 0 107 106" id="icon-3" xmlns="http://www.w3.org/2000/svg"><path d="M55.649 28.267h-1.767v-5.3a1.766 1.766 0 10-3.533 0v7.067c0 .975.79 1.766 1.766 1.766h3.534a1.766 1.766 0 100-3.533zM20.315 74.2H13.25c-.977 0-1.767.792-1.767 1.767v10.6c0 .975.79 1.766 1.767 1.766h7.066c.977 0 1.767-.791 1.767-1.766v-10.6c0-.975-.79-1.767-1.767-1.767zM18.55 84.8h-3.534v-7.066h3.534V84.8zM22.082 54.767c0-.975-.79-1.767-1.767-1.767H13.25c-.977 0-1.767.792-1.767 1.767v10.6c0 .975.79 1.767 1.767 1.767h7.066c.977 0 1.767-.792 1.767-1.767v-10.6zM18.549 63.6h-3.534v-7.066h3.534V63.6z" fill="#2D8EFF"/><path d="M25.615 44.167c0-.975-.79-1.767-1.766-1.767H4.415v-1.766a1.766 1.766 0 10-3.533 0V100.7c0 2.922 2.378 5.3 5.3 5.3h14.134c2.922 0 5.3-2.378 5.3-5.3a5.306 5.306 0 00-6.209-5.22 7.016 7.016 0 00-6.158-3.613A7.016 7.016 0 007.09 95.48a5.195 5.195 0 00-.908-.08 5.23 5.23 0 00-1.766.325V45.934h19.433c.977 0 1.766-.792 1.766-1.767zM6.182 98.934c.337 0 .66.097.957.288.483.312 1.089.369 1.622.152a1.773 1.773 0 001.059-1.239 3.506 3.506 0 013.429-2.735 3.508 3.508 0 013.429 2.735 1.772 1.772 0 002.68 1.087c1.152-.742 2.724.166 2.724 1.478 0 .974-.791 1.767-1.766 1.767H6.182a1.768 1.768 0 01-1.767-1.767c0-.973.792-1.766 1.767-1.766zM76.849 98.934H30.915c-.977 0-1.766.791-1.766 1.766v3.534a1.766 1.766 0 103.533 0v-1.767h42.4v1.767a1.766 1.766 0 103.533 0V100.7c0-.975-.79-1.766-1.766-1.766zM30.915 95.4c.977 0 1.767-.791 1.767-1.766v-68.9a1.766 1.766 0 10-3.533 0v68.9c0 .975.79 1.766 1.766 1.766zM76.849 21.2c-.978 0-1.767.792-1.767 1.767v70.667a1.766 1.766 0 103.533 0V22.967c0-.975-.79-1.766-1.766-1.766zM105.115 38.867c-.977 0-1.766.792-1.766 1.767V42.4H83.915a1.766 1.766 0 100 3.534h19.434v49.791a5.251 5.251 0 00-1.767-.325c-.306 0-.609.026-.908.08a7.016 7.016 0 00-6.159-3.613 7.016 7.016 0 00-6.158 3.612 5.307 5.307 0 00-6.208 5.22c0 2.923 2.378 5.301 5.3 5.301h14.133c2.922 0 5.3-2.378 5.3-5.3V40.634c0-.975-.79-1.767-1.767-1.767zm-3.533 63.6H87.449a1.768 1.768 0 01-1.767-1.767c0-.973.791-1.766 1.766-1.766.338 0 .661.097.958.288.484.312 1.088.369 1.622.152a1.772 1.772 0 001.058-1.239 3.506 3.506 0 013.429-2.735 3.508 3.508 0 013.43 2.735c.132.56.524 1.023 1.057 1.239a1.76 1.76 0 001.622-.152c1.154-.742 2.724.166 2.724 1.478 0 .974-.791 1.767-1.766 1.767zM81.292 16.153l-26.5-15.9a1.762 1.762 0 00-1.82 0l-26.5 15.9a1.766 1.766 0 101.82 3.028l25.59-15.354 25.59 15.354a1.764 1.764 0 002.424-.604 1.766 1.766 0 00-.604-2.424z" fill="#2D8EFF"/><path d="M85.682 86.567c0 .975.79 1.766 1.766 1.766h7.067c.977 0 1.767-.791 1.767-1.766v-10.6c0-.975-.79-1.767-1.767-1.767h-7.067c-.977 0-1.766.792-1.766 1.767v10.6zm3.533-8.833h3.534V84.8h-3.534v-7.066zM87.448 67.134h7.067c.977 0 1.767-.792 1.767-1.767v-10.6c0-.975-.79-1.767-1.767-1.767h-7.067c-.977 0-1.766.792-1.766 1.767v10.6c0 .975.79 1.767 1.766 1.767zm1.767-10.6h3.534V63.6h-3.534v-7.066zM52.627 85.313c-.32.335-.512.777-.512 1.254 0 .46.193.919.512 1.254.334.318.776.513 1.255.513.46 0 .917-.195 1.254-.513.318-.335.513-.795.513-1.254 0-.477-.195-.919-.513-1.254-.654-.654-1.874-.654-2.509 0zM39.748 65.367c0 .975.79 1.767 1.767 1.767h7.067c.977 0 1.766-.792 1.766-1.767v-10.6c0-.975-.79-1.767-1.766-1.767h-7.067c-.977 0-1.767.792-1.767 1.767v10.6zm3.534-8.833h3.533V63.6h-3.533v-7.066zM59.182 53c-.977 0-1.767.792-1.767 1.767v10.6c0 .975.79 1.767 1.767 1.767h7.066c.977 0 1.767-.792 1.767-1.767v-10.6c0-.975-.79-1.767-1.767-1.767h-7.066zm5.3 10.6h-3.533v-7.066h3.533V63.6zM53.882 14.134c-7.793 0-14.133 6.34-14.133 14.133 0 7.793 6.34 14.134 14.133 14.134 7.793 0 14.133-6.341 14.133-14.134s-6.34-14.133-14.133-14.133zm0 24.733c-5.846 0-10.6-4.754-10.6-10.6s4.754-10.6 10.6-10.6 10.6 4.754 10.6 10.6-4.754 10.6-10.6 10.6z" fill="#2D8EFF"/><path d="M36.215 75.967c0 .975.79 1.766 1.767 1.766h5.3v15.9a1.766 1.766 0 103.533 0v-15.9H60.95v15.9a1.766 1.766 0 103.533 0v-15.9h5.3a1.766 1.766 0 100-3.533h-31.8c-.977 0-1.767.792-1.767 1.767z" fill="#2D8EFF"/></svg><svg fill="none" viewBox="0 0 107 108" id="icon-4" xmlns="http://www.w3.org/2000/svg"><path d="M67.67 69.857c0-.988-.792-1.79-1.767-1.79-.975 0-1.766.802-1.766 1.79v3.583c0 .989.791 1.791 1.766 1.791s1.767-.802 1.767-1.791v-3.583zM65.903 89.561c-.975 0-1.767.802-1.767 1.791v7.165c0 .989.792 1.791 1.767 1.791.975 0 1.766-.802 1.766-1.791v-7.165c0-.989-.79-1.791-1.766-1.791zM74.736 48.363c0-.989-.791-1.791-1.766-1.791s-1.767.802-1.767 1.79v3.583c0 .989.792 1.791 1.767 1.791.975 0 1.766-.802 1.766-1.79v-3.583zM67.67 59.11c0-.988-.792-1.79-1.767-1.79-.975 0-1.766.802-1.766 1.79v3.583c0 .989.791 1.791 1.766 1.791s1.767-.802 1.767-1.791V59.11zM67.67 80.605c0-.989-.792-1.791-1.767-1.791-.975 0-1.767.802-1.767 1.791v3.582c0 .99.792 1.792 1.767 1.792.975 0 1.767-.803 1.767-1.791v-3.583zM74.736 59.11c0-.988-.791-1.79-1.766-1.79s-1.767.802-1.767 1.79v3.583c0 .989.792 1.791 1.767 1.791.975 0 1.766-.802 1.766-1.791V59.11zM60.603 48.363c0-.989-.791-1.791-1.767-1.791-.975 0-1.766.802-1.766 1.79v3.583c0 .989.791 1.791 1.766 1.791.976 0 1.767-.802 1.767-1.79v-3.583zM67.67 48.363c0-.989-.792-1.791-1.767-1.791-.975 0-1.766.802-1.766 1.79v3.583c0 .989.791 1.791 1.766 1.791s1.767-.802 1.767-1.79v-3.583zM74.736 30.45v-3.582c0-.988-.791-1.79-1.766-1.79s-1.767.802-1.767 1.79v3.583c0 .989.792 1.791 1.767 1.791.975 0 1.766-.802 1.766-1.791zM60.603 59.11c0-.988-.791-1.79-1.767-1.79-.975 0-1.766.802-1.766 1.79v3.583c0 .989.791 1.791 1.766 1.791.976 0 1.767-.802 1.767-1.791V59.11zM81.803 26.868c0-.988-.791-1.79-1.767-1.79-.975 0-1.766.802-1.766 1.79v3.583c0 .989.791 1.791 1.766 1.791s1.767-.802 1.767-1.791v-3.583zM58.836 68.066c-.975 0-1.766.803-1.766 1.791v3.583c0 .989.791 1.791 1.766 1.791.976 0 1.767-.802 1.767-1.791v-3.583c0-.988-.791-1.79-1.767-1.79zM88.87 80.605c0-.989-.792-1.791-1.767-1.791-.975 0-1.767.802-1.767 1.791v3.582c0 .99.792 1.792 1.767 1.792.975 0 1.767-.803 1.767-1.791v-3.583zM87.103 89.561c-.975 0-1.767.802-1.767 1.791v7.165c0 .989.792 1.791 1.767 1.791.975 0 1.767-.802 1.767-1.791v-7.165c0-.989-.792-1.791-1.767-1.791zM94.17 68.066c-.975 0-1.767.803-1.767 1.791v3.583c0 .989.792 1.791 1.767 1.791.975 0 1.766-.802 1.766-1.791v-3.583c0-.988-.791-1.79-1.766-1.79z" fill="#2D8EFF"/><path d="M65.903 32.242c.975 0 1.766-.803 1.766-1.791v-7.558l17.667-4.478v29.948c0 .747.458 1.415 1.147 1.678l12.987 4.937V73.44c0 .989.791 1.791 1.766 1.791s1.767-.802 1.767-1.791V53.737c0-.747-.458-1.416-1.147-1.679L88.87 47.121V12.538c0-.988-.792-1.79-1.767-1.79-.975 0-1.767.802-1.767 1.79v2.184l-19.862 5.035a1.786 1.786 0 00-1.338 1.737v8.957c0 .988.792 1.79 1.767 1.79z" fill="#2D8EFF"/><path d="M95.936 59.11c0-.988-.791-1.79-1.766-1.79s-1.767.802-1.767 1.79v3.583c0 .989.792 1.791 1.767 1.791.975 0 1.766-.802 1.766-1.791V59.11zM88.87 59.11c0-.988-.792-1.79-1.767-1.79-.975 0-1.766.802-1.766 1.79v3.583c0 .989.791 1.791 1.766 1.791s1.767-.802 1.767-1.791V59.11zM74.736 80.605c0-.989-.791-1.791-1.766-1.791s-1.767.802-1.767 1.791v3.582c0 .99.792 1.792 1.767 1.792.975 0 1.766-.803 1.766-1.791v-3.583zM88.87 69.857c0-.988-.792-1.79-1.767-1.79-.975 0-1.766.802-1.766 1.79v3.583c0 .989.791 1.791 1.766 1.791s1.767-.802 1.767-1.791v-3.583zM72.97 89.561c-.975 0-1.767.802-1.767 1.791v7.165c0 .989.792 1.791 1.767 1.791.975 0 1.766-.802 1.766-1.791v-7.165c0-.989-.791-1.791-1.766-1.791zM74.736 69.857c0-.988-.791-1.79-1.766-1.79s-1.767.802-1.767 1.79v3.583c0 .989.792 1.791 1.767 1.791.975 0 1.766-.802 1.766-1.791v-3.583z" fill="#2D8EFF"/><path d="M80.036 100.308a1.78 1.78 0 001.767-1.79v-57.32c0-.822-.553-1.538-1.337-1.737l-28.267-7.165a1.75 1.75 0 00-1.516.326c-.43.338-.68.86-.68 1.411V73.44c0 .989.791 1.791 1.767 1.791.975 0 1.766-.802 1.766-1.791V36.328l24.733 6.27v55.92c0 .988.792 1.79 1.767 1.79zM39.403 37.616c0-.99-.791-1.791-1.767-1.791-.975 0-1.766.802-1.766 1.79v3.583c0 .989.791 1.791 1.766 1.791s1.767-.802 1.767-1.79v-3.583zM39.403 26.868c0-.988-.791-1.79-1.767-1.79-.975 0-1.766.802-1.766 1.79v3.583c0 .989.791 1.791 1.766 1.791s1.767-.802 1.767-1.791v-3.583zM25.27 80.605c0-.989-.792-1.791-1.767-1.791-.975 0-1.767.802-1.767 1.791v3.582c0 .99.792 1.792 1.767 1.792.975 0 1.767-.803 1.767-1.791v-3.583z" fill="#2D8EFF"/><path d="M9.37 64.484c.975 0 1.766-.803 1.766-1.791v-8.956h17.667v44.78c0 .989.791 1.791 1.767 1.791.975 0 1.766-.803 1.766-1.791V51.945c0-.988-.791-1.79-1.766-1.79H9.37c-.975 0-1.767.802-1.767 1.79v10.748c0 .988.792 1.79 1.767 1.79zM28.803 37.616v3.582c0 .989.791 1.791 1.767 1.791.975 0 1.766-.802 1.766-1.79v-3.583c0-.99-.791-1.791-1.766-1.791-.976 0-1.767.802-1.767 1.79zM39.403 16.12c0-.988-.791-1.79-1.767-1.79-.975 0-1.766.802-1.766 1.79v3.583c0 .989.791 1.791 1.766 1.791s1.767-.802 1.767-1.79V16.12z" fill="#2D8EFF"/><path d="M23.503 89.561c-.975 0-1.767.802-1.767 1.791v7.165c0 .989.792 1.791 1.767 1.791.975 0 1.767-.802 1.767-1.791v-7.165c0-.989-.792-1.791-1.767-1.791z" fill="#2D8EFF"/><path d="M104.77 103.89h-3.534V92.889a7.14 7.14 0 005.3-6.91c0-3.952-3.169-7.166-7.066-7.166s-7.067 3.214-7.067 7.165a7.141 7.141 0 005.3 6.91v11.002H53.536v-7.345c4.026-.833 7.067-4.45 7.067-8.776 0-4.938-3.963-8.956-8.833-8.956-4.871 0-8.834 4.018-8.834 8.956 0 4.326 3.04 7.943 7.067 8.776v7.345H11.136V85.797c4.027-.832 7.067-4.449 7.067-8.775 0-4.938-3.963-8.956-8.833-8.956-4.871 0-8.834 4.018-8.834 8.956 0 4.326 3.04 7.942 7.067 8.775v18.093h-5.3c-.975 0-1.767.803-1.767 1.792 0 .988.792 1.791 1.767 1.791H104.77c.975 0 1.766-.802 1.766-1.791 0-.989-.791-1.792-1.766-1.792zM4.07 77.022c0-2.962 2.378-5.373 5.3-5.373 2.922 0 5.3 2.41 5.3 5.373s-2.378 5.374-5.3 5.374c-2.922 0-5.3-2.411-5.3-5.374zm42.4 10.747c0-2.962 2.378-5.373 5.3-5.373 2.922 0 5.3 2.41 5.3 5.373s-2.378 5.374-5.3 5.374c-2.922 0-5.3-2.41-5.3-5.374zm49.466-1.79c0-1.976 1.585-3.583 3.534-3.583 1.949 0 3.533 1.606 3.533 3.582 0 1.976-1.584 3.583-3.533 3.583-1.949 0-3.534-1.607-3.534-3.583z" fill="#2D8EFF"/><path d="M14.67 91.352v7.165c0 .989.791 1.791 1.766 1.791.976 0 1.767-.802 1.767-1.791v-7.165c0-.989-.791-1.791-1.767-1.791-.975 0-1.766.802-1.766 1.791zM25.27 59.11c0-.988-.792-1.79-1.767-1.79-.975 0-1.766.802-1.766 1.79v3.583c0 .989.791 1.791 1.766 1.791s1.767-.802 1.767-1.791V59.11zM25.27 69.857c0-.988-.792-1.79-1.767-1.79-.975 0-1.766.802-1.766 1.79v3.583c0 .989.791 1.791 1.766 1.791s1.767-.802 1.767-1.791v-3.583zM14.67 59.11v3.583c0 .989.791 1.791 1.766 1.791.976 0 1.767-.802 1.767-1.791V59.11c0-.988-.791-1.79-1.767-1.79-.975 0-1.766.802-1.766 1.79zM39.403 69.857c0-.988-.791-1.79-1.767-1.79-.975 0-1.766.802-1.766 1.79v3.583c0 .989.791 1.791 1.766 1.791s1.767-.802 1.767-1.791v-3.583zM46.47 48.363c0-.989-.792-1.791-1.767-1.791-.975 0-1.767.802-1.767 1.79v3.583c0 .989.792 1.791 1.767 1.791.975 0 1.767-.802 1.767-1.79v-3.583zM46.47 37.616c0-.99-.792-1.791-1.767-1.791-.975 0-1.767.802-1.767 1.79v3.583c0 .989.792 1.791 1.767 1.791.975 0 1.767-.802 1.767-1.79v-3.583zM46.47 59.11c0-.988-.792-1.79-1.767-1.79-.975 0-1.767.802-1.767 1.79v3.583c0 .989.792 1.791 1.767 1.791.975 0 1.767-.802 1.767-1.791V59.11zM44.703 68.066c-.975 0-1.767.803-1.767 1.791v3.583c0 .989.792 1.791 1.767 1.791.975 0 1.767-.802 1.767-1.791v-3.583c0-.988-.792-1.79-1.767-1.79zM46.47 26.868c0-.988-.792-1.79-1.767-1.79-.975 0-1.767.802-1.767 1.79v3.583c0 .989.792 1.791 1.767 1.791.975 0 1.767-.802 1.767-1.791v-3.583zM39.403 80.605c0-.989-.791-1.791-1.767-1.791-.975 0-1.766.802-1.766 1.791v3.582c0 .99.791 1.792 1.766 1.792s1.767-.803 1.767-1.791v-3.583z" fill="#2D8EFF"/><path d="M23.503 46.572c.975 0 1.767-.803 1.767-1.791V31.558l6.09-3.087c.598-.304.976-.924.976-1.603V11.854l8.834-4.478 8.833 4.478v15.014c0 .989.791 1.791 1.767 1.791.975 0 1.766-.802 1.766-1.79V10.746c0-.678-.378-1.298-.977-1.603l-9.623-4.877V1.79C42.936.802 42.145 0 41.17 0s-1.767.802-1.767 1.791v2.476L29.78 9.144a1.796 1.796 0 00-.977 1.603v15.014l-6.09 3.086a1.796 1.796 0 00-.976 1.603v14.33c0 .99.79 1.792 1.766 1.792zM39.403 59.11c0-.988-.791-1.79-1.767-1.79-.975 0-1.766.802-1.766 1.79v3.583c0 .989.791 1.791 1.766 1.791s1.767-.802 1.767-1.791V59.11zM37.636 89.561c-.975 0-1.766.802-1.766 1.791v7.165c0 .989.791 1.791 1.766 1.791s1.767-.802 1.767-1.791v-7.165c0-.989-.791-1.791-1.767-1.791z" fill="#2D8EFF"/><path d="M46.47 16.12c0-.988-.792-1.79-1.767-1.79-.975 0-1.767.802-1.767 1.79v3.583c0 .989.792 1.791 1.767 1.791.975 0 1.767-.802 1.767-1.79V16.12zM39.403 48.363c0-.989-.791-1.791-1.767-1.791-.975 0-1.766.802-1.766 1.79v3.583c0 .989.791 1.791 1.766 1.791s1.767-.802 1.767-1.79v-3.583z" fill="#2D8EFF"/></svg></svg>