<svg width="14" height="10" viewBox="0 0 14 10" xmlns="http://www.w3.org/2000/svg">
<path d="M13.125 0.333496H0.875C0.392574 0.333496 0 0.72607 0 1.2085V8.79182C0 9.27424 0.392574 9.66682 0.875 9.66682H13.125C13.6074 9.66682 14 9.27424 14 8.79182V1.2085C14 0.726098 13.6074 0.333496 13.125 0.333496ZM13.4167 8.79185C13.4167 8.95285 13.286 9.08352 13.125 9.08352H0.875C0.714 9.08352 0.583324 8.95285 0.583324 8.79185V1.2085C0.583324 1.0475 0.714 0.91682 0.875 0.91682H13.125C13.286 0.91682 13.4167 1.0475 13.4167 1.2085V8.79185Z" fill=""/>
<path d="M13.7975 0.650091C13.703 0.519415 13.5199 0.490266 13.3904 0.584767L7.51447 4.8326C7.20647 5.05603 6.7929 5.0566 6.4843 4.83203L0.610724 0.584767C0.480048 0.490266 0.297474 0.519442 0.203548 0.650091C0.109623 0.780767 0.138798 0.963342 0.268873 1.05784L6.14187 5.30453C6.39855 5.4912 6.69895 5.58453 6.99995 5.58453C7.30037 5.58453 7.60077 5.4912 7.85687 5.30453L13.7322 1.05727C13.8623 0.963341 13.892 0.780767 13.7975 0.650091Z" fill="inherit"/>
<path d="M6.45572 4.8285C6.36065 4.69843 6.17922 4.66868 6.04797 4.76375L0.277047 8.95268C0.146973 9.04775 0.117797 9.22975 0.212297 9.36043C0.269473 9.43918 0.358121 9.48061 0.448547 9.48061C0.507473 9.48061 0.567547 9.46253 0.620047 9.42518L6.39097 5.23625C6.52105 5.14118 6.55022 4.95918 6.45572 4.8285Z" fill="inherit"/>
<path d="M13.7229 8.95285L7.95257 4.76393C7.82074 4.66885 7.63932 4.698 7.54482 4.82868C7.45032 4.95935 7.47949 5.14135 7.60957 5.23643L13.3799 9.42535C13.4312 9.46268 13.4913 9.48078 13.5508 9.48078C13.6412 9.48078 13.7305 9.43935 13.7876 9.3606C13.8822 9.22993 13.853 9.04792 13.7229 8.95285Z" fill="inherit"/>
</svg>
