<svg width="14" height="14" viewBox="0 0 14 14" xmlns="http://www.w3.org/2000/svg">
<path d="M7 14C10.866 14 14 10.866 14 7C14 3.13401 10.866 0 7 0C3.13401 0 0 3.13401 0 7C0 10.866 3.13401 14 7 14Z" fill="inherit"/>
<path d="M10.5 8.44725C9.74487 8.44725 9.02475 8.28275 8.36063 7.95813C8.2565 7.90825 8.13575 7.90037 8.0255 7.938C7.91525 7.9765 7.82513 8.057 7.77437 8.16112L7.45937 8.813C6.51437 8.2705 5.73038 7.48562 5.187 6.54062L5.83975 6.22562C5.94475 6.17487 6.02437 6.08475 6.06287 5.9745C6.1005 5.86425 6.0935 5.7435 6.04275 5.63938C5.71725 4.97613 5.55275 4.256 5.55275 3.5C5.55275 3.2585 5.35675 3.0625 5.11525 3.0625H3.5C3.2585 3.0625 3.0625 3.2585 3.0625 3.5C3.0625 7.60112 6.39888 10.9375 10.5 10.9375C10.7415 10.9375 10.9375 10.7415 10.9375 10.5V8.88475C10.9375 8.64325 10.7415 8.44725 10.5 8.44725Z" fill="#F7F7F7"/>
</svg>
