<svg width="14" height="14" viewBox="0 0 14 14" xmlns="http://www.w3.org/2000/svg">
<path d="M7 14C3.14008 14 0 10.8599 0 7C0 3.14008 3.14008 0 7 0C10.8599 0 14 3.14008 14 7C14 10.8599 10.8599 14 7 14ZM7 0.583333C3.46208 0.583333 0.583333 3.46208 0.583333 7C0.583333 10.5379 3.46208 13.4167 7 13.4167C10.5379 13.4167 13.4167 10.5379 13.4167 7C13.4167 3.46208 10.5379 0.583333 7 0.583333Z" fill="inherit"/>
<path d="M10.2084 10.5002C10.1337 10.5002 10.059 10.4716 10.0019 10.415L6.79354 7.20667C6.73929 7.15184 6.70837 7.07775 6.70837 7.00017V2.62516C6.70837 2.46416 6.83904 2.3335 7.00004 2.3335C7.16104 2.3335 7.29171 2.46416 7.29171 2.62516V6.87942L10.4149 10.0026C10.5286 10.1163 10.5286 10.3013 10.4149 10.415C10.3577 10.4716 10.283 10.5002 10.2084 10.5002Z" fill="inherit"/>
</svg>
