<svg width="276" height="44" viewBox="0 0 276 44" xmlns="http://www.w3.org/2000/svg">
<path fill-rule="evenodd" clip-rule="evenodd" d="M21.8036 -0.00110888H117.697C116.543 0.696235 115.447 1.48132 114.422 2.34492H21.8036C16.4506 2.34492 11.5804 4.55702 8.04906 8.11994C4.51772 11.6829 2.32523 16.5966 2.32523 21.9975C2.32523 27.3985 4.51772 32.3122 8.04906 35.8751C11.5804 39.4381 16.4506 41.6502 21.8036 41.6502H114.422C115.447 42.5138 116.541 43.2988 117.697 43.9962H21.8036C9.81129 43.9962 0 34.0948 0 21.9952C0 9.89563 9.81358 -0.00341797 21.8036 -0.00341797V-0.00110888Z" fill="#000;"/>
<path fill-rule="evenodd" clip-rule="evenodd" d="M142.986 0H254.194C266.186 0 275.998 9.90135 275.998 21.9986C275.998 34.0982 266.184 43.9996 254.194 43.9996H142.986C143.265 43.9973 143.542 43.9904 143.817 43.9788H135.838C129.849 43.9788 124.402 41.5058 120.454 37.5203C116.506 33.5371 114.053 28.0415 114.053 21.9986C114.053 15.9558 116.504 10.4602 120.454 6.47698C124.402 2.49381 129.849 0.0207818 135.838 0.0207818H143.817C143.542 0.00923634 143.265 0.00230908 142.986 0V0Z" fill="#2D8EFF"/>
<path d="M139.155 29.1739C138.198 30.1206 137.104 30.8642 135.877 31.4022C134.648 31.9402 133.367 32.2081 132.03 32.2081C130.712 32.2081 129.442 31.9402 128.224 31.4022C127.004 30.8642 125.926 30.1322 124.988 29.2016C124.048 28.2711 123.299 27.1881 122.738 25.9481C122.178 24.7081 121.898 23.3873 121.898 21.9834C121.898 20.6534 122.166 19.3719 122.697 18.1434C123.23 16.9127 123.958 15.8251 124.878 14.8784C125.798 13.9293 126.874 13.1743 128.103 12.6085C129.332 12.0451 130.641 11.7611 132.032 11.7611C133.369 11.7611 134.651 12.029 135.88 12.5716C137.109 13.1142 138.2 13.867 139.157 14.8183L136.907 17.0905C136.166 16.5271 135.404 16.0652 134.619 15.7096C133.834 15.354 132.971 15.1762 132.03 15.1762C131.09 15.1762 130.211 15.354 129.389 15.7096C128.568 16.0652 127.853 16.5478 127.249 17.1667C126.643 17.7855 126.164 18.5106 125.814 19.3349C125.462 20.1639 125.286 21.0482 125.286 21.995C125.286 22.944 125.462 23.8261 125.814 24.655C126.167 25.4794 126.645 26.1998 127.249 26.8094C127.853 27.4213 128.568 27.8993 129.389 28.2549C130.211 28.6105 131.092 28.7883 132.03 28.7883C132.971 28.7883 133.818 28.6151 134.577 28.2688C135.335 27.9224 135.996 27.4675 136.555 26.9018L139.155 29.1716V29.1739ZM181.608 11.7334L191.795 32.2612H188.055L185.753 28.1048H177.489L175.567 32.2612H171.447L181.606 11.7334H181.608ZM240.211 20.8912V29.264C239.597 29.8251 238.911 30.3261 238.151 30.7626C237.501 31.1459 236.716 31.4876 235.794 31.797C234.874 32.1065 233.844 32.2612 232.704 32.2612C231.367 32.2612 230.09 31.9933 228.871 31.4553C227.651 30.9173 226.573 30.1853 225.632 29.2547C224.694 28.3242 223.943 27.2366 223.383 25.9874C222.824 24.7405 222.543 23.4035 222.543 21.9834C222.543 21.6163 222.563 21.2514 222.604 20.8889H226.026C225.962 21.2445 225.93 21.6094 225.93 21.9834C225.93 22.8401 226.111 23.6783 226.472 24.498C226.834 25.3177 227.321 26.052 227.935 26.6986C228.55 27.3451 229.267 27.8647 230.088 28.2572C230.91 28.6498 231.782 28.846 232.702 28.846C233.48 28.846 234.224 28.7444 234.938 28.5458C235.652 28.345 236.297 28.0632 236.874 27.6984V24.3087H232.702V20.8912H240.206H240.211ZM232.706 11.7611C234.315 11.7611 235.736 12.0659 236.975 12.6778C238.21 13.2874 239.291 14.121 240.213 15.1786C240.213 15.197 240.078 15.3056 239.806 15.5064C239.536 15.7073 239.236 15.9267 238.911 16.1622C238.531 16.437 238.089 16.7464 237.583 17.0905C237.023 16.5063 236.311 16.0422 235.444 15.6958C234.576 15.3494 233.665 15.1762 232.706 15.1762V11.7611ZM179.361 24.6366H184.238L181.611 19.3603L179.361 24.6366ZM163.837 11.7611V32.2612H160.45V23.9231H151.808V32.2612H148.421V11.7611H151.808V20.5079H160.45V11.7611H163.837ZM215.205 32.2612H211.438L206.955 23.8977H202.796V32.2612H199.409V20.4802H202.796H205.227H209.2C209.612 20.4617 209.98 20.3532 210.305 20.1523C210.594 19.993 210.852 19.7298 211.086 19.3649C211.322 19.0047 211.438 18.4852 211.438 17.8155C211.438 17.1644 211.322 16.6541 211.086 16.2938C210.852 15.929 210.594 15.6658 210.305 15.5064C209.98 15.3056 209.61 15.197 209.2 15.1786H205.227H202.796H199.409V11.7634H209.189C210.237 11.8188 211.175 12.0728 212.006 12.5277C212.349 12.7286 212.692 12.9734 213.036 13.2643C213.379 13.5553 213.681 13.9109 213.944 14.3311C214.205 14.7491 214.418 15.2478 214.581 15.8205C214.743 16.3954 214.825 17.0651 214.825 17.8294C214.825 19.0671 214.626 20.083 214.23 20.8774C213.832 21.6694 213.386 22.2905 212.889 22.7362C212.393 23.1818 211.923 23.4889 211.479 23.6529C211.038 23.8168 210.77 23.9 210.681 23.9L215.205 32.2635V32.2612ZM262.211 15.1762H254.817H252.025H248.637V11.7611H262.211V15.1762ZM252.025 20.2886H254.817H260.696V23.706H252.027H248.64V20.2886H252.027H252.025ZM252.025 28.846H262.211V32.2612H248.637V28.846H252.025Z" fill="white"/>
<path d="M96.0623 11.7611C97.4171 11.7611 98.7033 12.0243 99.9232 12.5531C101.143 13.0819 102.221 13.807 103.162 14.726C104.1 15.6473 104.846 16.7303 105.395 17.9795C105.947 19.2287 106.221 20.5726 106.221 22.0111C106.221 23.3781 105.961 24.6758 105.436 25.9066C104.912 27.1373 104.194 28.2249 103.283 29.1739C102.37 30.1206 101.296 30.8734 100.058 31.4299C98.8223 31.9864 97.4881 32.2635 96.0623 32.2635C94.7074 32.2635 93.4166 32.0002 92.1877 31.4715C90.9587 30.9427 89.8807 30.213 88.9493 29.2848C88.0178 28.3565 87.2786 27.2666 86.727 26.0174C86.1755 24.7682 85.9008 23.4335 85.9008 22.0134C85.9008 20.628 86.1617 19.3211 86.6858 18.0926C87.2099 16.8619 87.9285 15.7835 88.8394 14.853C89.7503 13.9224 90.8259 13.1858 92.0641 12.6386C93.2999 12.0913 94.6342 11.8004 96.06 11.7634L96.0623 11.7611ZM96.076 28.846C96.9617 28.846 97.8085 28.6682 98.6324 28.3126C99.454 27.957 100.173 27.4744 100.795 26.8556C101.418 26.2344 101.91 25.5117 102.28 24.6874C102.651 23.8584 102.837 22.974 102.837 22.0273C102.837 21.1152 102.66 20.2493 102.308 19.4203C101.955 18.5914 101.477 17.8663 100.861 17.2383C100.248 16.6102 99.5295 16.1137 98.7125 15.7397C97.8909 15.3679 97.0143 15.1786 96.076 15.1786C95.172 15.1786 94.3138 15.3564 93.4922 15.712C92.6751 16.0676 91.9519 16.5501 91.3294 17.169C90.7069 17.7878 90.2149 18.5175 89.8441 19.3511C89.4734 20.1893 89.288 21.0783 89.288 22.025C89.288 22.9532 89.4642 23.8191 89.8167 24.6319C90.1691 25.4378 90.6474 26.1536 91.2608 26.7725C91.8741 27.3913 92.5927 27.8785 93.4098 28.2434C94.2314 28.6082 95.1171 28.8091 96.0737 28.846H96.076ZM80.8361 11.7334V15.1508H74.0641V32.2635H70.677V15.1508H63.9027V11.7334H70.677H80.8361ZM55.5904 11.7611V24.662H52.2033V11.7611H55.5904ZM23.234 11.7334L33.4206 32.2612H29.681L27.3787 28.1048H19.1145L17.192 32.2612H13.0725L23.2317 11.7334H23.234ZM20.9843 24.6366H25.8613L23.234 19.3603L20.9843 24.6366ZM47.7176 32.2635C46.4749 32.2635 45.4198 32.1041 44.5524 31.7855C43.6896 31.4668 42.9756 31.0558 42.4172 30.5547C41.8564 30.0537 41.4331 29.4972 41.1355 28.8876C40.838 28.2757 40.6206 27.6892 40.4856 27.1234C40.3505 26.5577 40.2681 26.052 40.2407 25.6064C40.2132 25.1607 40.1995 24.8467 40.1995 24.6643V11.7634H43.5866V24.6643C43.5866 24.8652 43.6095 25.2115 43.6553 25.7034C43.7011 26.1952 43.8498 26.7009 44.1016 27.2204C44.3556 27.74 44.7653 28.1995 45.3351 28.6013C45.9027 29.0007 46.6969 29.2016 47.7199 29.2016V32.2635H47.7176Z" fill="#000;"/>
</svg>
