<svg width="128" height="128" viewBox="0 0 128 128" fill="none" xmlns="http://www.w3.org/2000/svg">
<path d="M70.4 83.2C71.5798 83.2 72.5333 82.2443 72.5333 81.0668V51.2H78.9333C84.8148 51.2 89.6 46.415 89.6 40.5333C89.6 34.6518 84.815 29.8665 78.9333 29.8665C73.0518 29.8665 68.2665 34.6515 68.2665 40.5333V46.9333H59.7333V40.5333C59.7333 34.6518 54.9483 29.8665 49.0665 29.8665C43.185 29.8665 38.3998 34.6515 38.3998 40.5333C38.3998 46.4148 43.1848 51.2 49.0665 51.2H55.4665V81.0668C55.4665 82.2443 56.4223 83.2 57.5998 83.2C58.7773 83.2 59.733 82.2443 59.733 81.0668V51.2H68.2663V81.0668C68.2668 82.2443 69.2203 83.2 70.4 83.2ZM72.5333 40.5333C72.5333 37.0048 75.4048 34.1333 78.9333 34.1333C82.4618 34.1333 85.3333 37.0048 85.3333 40.5333C85.3333 44.0618 82.4618 46.9333 78.9333 46.9333H72.5333V40.5333ZM55.4668 46.9333H49.0668C45.5383 46.9333 42.6668 44.0618 42.6668 40.5333C42.6668 37.0048 45.5383 34.1333 49.0668 34.1333C52.5953 34.1333 55.4668 37.0048 55.4668 40.5333V46.9333Z" fill="#2D8EFF"/>
<path d="M15.232 4.53749L23.3985 11.392C23.7995 11.729 24.286 11.8912 24.7703 11.8912C25.3783 11.8912 25.984 11.633 26.4043 11.1297C27.1615 10.2272 27.0443 8.88124 26.1418 8.12399L17.9755 1.26924C17.073 0.513988 15.729 0.631488 14.9698 1.53174C14.2123 2.43624 14.3295 3.78024 15.232 4.53749Z" fill="#2D8EFF"/>
<path d="M16.6122 23.153L6.59195 19.5072C5.4847 19.1062 4.26245 19.6758 3.85695 20.783C3.45595 21.8903 4.02545 23.1147 5.1327 23.518L15.153 27.1638C15.394 27.2513 15.6395 27.294 15.8825 27.294C16.753 27.294 17.572 26.7543 17.8877 25.8883C18.2912 24.7808 17.7195 23.5563 16.6122 23.153Z" fill="#2D8EFF"/>
<path d="M103.223 11.8913C103.705 11.8913 104.192 11.727 104.591 11.392L112.762 4.53326C113.664 3.77601 113.783 2.43201 113.024 1.52751C112.273 0.629263 110.927 0.507763 110.02 1.26501L101.85 8.12376C100.947 8.88101 100.83 10.225 101.587 11.1295C102.007 11.631 102.613 11.8913 103.223 11.8913Z" fill="#2D8EFF"/>
<path d="M12.7957 40.5375H2.13325C0.95575 40.5375 0 41.4933 0 42.6708C0 43.8483 0.95575 44.804 2.13325 44.804H12.7957C13.9732 44.804 14.929 43.8483 14.929 42.6708C14.929 41.4933 13.9732 40.5375 12.7957 40.5375Z" fill="#2D8EFF"/>
<path d="M124.139 20.7765C123.738 19.6715 122.511 19.0975 121.406 19.503L111.384 23.151C110.274 23.5542 109.705 24.7787 110.108 25.886C110.424 26.7522 111.241 27.2897 112.113 27.2897C112.354 27.2897 112.602 27.2492 112.841 27.1595L122.865 23.5115C123.972 23.1082 124.544 21.8837 124.139 20.7765Z" fill="#2D8EFF"/>
<path d="M64 0C40.4735 0 21.3333 19.1403 21.3333 42.6668C21.3333 60.672 28.3945 74.1035 43.5605 84.9365C43.633 84.9877 43.7397 85.0518 43.8188 85.0943C43.9298 85.154 46.2253 86.436 46.8013 90.033C44.3928 90.9525 42.6668 93.2715 42.6668 96C42.6668 97.6385 43.2855 99.134 44.3008 100.267C43.2853 101.399 42.6668 102.895 42.6668 104.534C42.6668 106.172 43.2855 107.667 44.3008 108.8C43.2853 109.933 42.6668 111.429 42.6668 113.067C42.6668 116.596 45.5383 119.467 49.0668 119.467C50.2443 119.467 51.2 118.511 51.2 117.334C51.2 116.156 50.2443 115.201 49.0668 115.201C47.8913 115.201 46.9335 114.243 46.9335 113.067C46.9335 111.892 47.8913 110.934 49.0668 110.934H70.4C71.5798 110.934 72.5332 109.978 72.5332 108.801C72.5332 107.623 71.5798 106.668 70.4 106.668H49.0668C47.8913 106.668 46.9335 105.71 46.9335 104.534C46.9335 103.359 47.8913 102.401 49.0668 102.401H70.4C71.5798 102.401 72.5332 101.445 72.5332 100.268C72.5332 99.0903 71.5798 98.1345 70.4 98.1345H49.0668C47.8913 98.1345 46.9335 97.1768 46.9335 96.0013C46.9335 94.8258 47.8913 93.868 49.0668 93.868H70.4C71.5798 93.868 72.5332 92.9122 72.5332 91.7347C72.5332 90.5573 71.5798 89.6015 70.4 89.6015H51.055C50.2998 84.2298 46.8183 81.9023 45.9458 81.3988C31.8743 71.3145 25.6003 59.3657 25.6003 42.668C25.6003 21.4947 42.827 4.268 64.0003 4.268C85.1735 4.268 102.4 21.4947 102.4 42.668C102.4 59.3655 96.126 71.3145 82.0547 81.3988C81.0735 81.964 76.8002 84.8335 76.8002 91.7347C76.8002 92.9122 77.7538 93.868 78.9335 93.868C80.111 93.868 81.0667 94.8258 81.0667 96.0013C81.0667 97.1768 80.111 98.1345 78.9335 98.1345C77.7538 98.1345 76.8002 99.0903 76.8002 100.268C76.8002 101.445 77.7538 102.401 78.9335 102.401C80.111 102.401 81.0667 103.359 81.0667 104.534C81.0667 105.71 80.111 106.668 78.9335 106.668C77.7538 106.668 76.8002 107.623 76.8002 108.801C76.8002 109.978 77.7538 110.934 78.9335 110.934C80.111 110.934 81.0667 111.892 81.0667 113.067C81.0667 114.283 80.1495 115.201 78.9335 115.201H57.6C56.4225 115.201 55.4668 116.156 55.4668 117.334V121.6C55.4668 125.129 58.3383 128 61.8668 128H66.1335C69.662 128 72.5335 125.129 72.5335 121.6V119.467H78.9335C82.524 119.467 85.3335 116.655 85.3335 113.067C85.3335 111.428 84.7147 109.933 83.6992 108.8C84.7147 107.667 85.3335 106.172 85.3335 104.533C85.3335 102.895 84.7147 101.4 83.6992 100.267C84.7147 99.1338 85.3335 97.6382 85.3335 95.9997C85.3335 93.2712 83.6075 90.9523 81.197 90.0328C81.773 86.436 84.0662 85.156 84.1537 85.107C84.254 85.058 84.35 85.0003 84.4395 84.9362C99.6032 74.1032 106.667 60.6718 106.667 42.6665C106.667 19.1402 87.5265 0 64 0ZM68.2667 121.6C68.2667 122.775 67.311 123.733 66.1335 123.733H61.8668C60.6913 123.733 59.7335 122.775 59.7335 121.6V119.467H68.2667V121.6Z" fill="#443F48"/>
<path d="M125.867 40.5333H115.2C114.02 40.5333 113.067 41.489 113.067 42.6665C113.067 43.844 114.02 44.7998 115.2 44.7998H125.867C127.047 44.7998 128 43.844 128 42.6665C128 41.489 127.047 40.5333 125.867 40.5333Z" fill="#2D8EFF"/>
</svg>
