<svg width="128" height="128" viewBox="0 0 128 128" fill="none" xmlns="http://www.w3.org/2000/svg">
<path d="M70.9189 62.2703H57.081C56.6223 62.2703 56.1823 62.088 55.8579 61.7636C55.5335 61.4393 55.3513 60.9993 55.3513 60.5405C55.3476 54.2594 53.0999 48.1863 49.0136 43.4162L45.3898 39.1888C45.1189 38.873 44.9709 38.4701 44.9729 38.0541V31.1351C44.9729 30.6764 45.1552 30.2364 45.4795 29.912C45.8039 29.5876 46.2439 29.4054 46.7027 29.4054H81.2972C81.756 29.4054 82.1959 29.5876 82.5203 29.912C82.8447 30.2364 83.027 30.6764 83.027 31.1351V38.0541C83.0269 38.4671 82.8791 38.8666 82.6101 39.1801L78.9863 43.4162C74.9 48.1863 72.6523 54.2594 72.6486 60.5405C72.6486 60.9993 72.4664 61.4393 72.142 61.7636C71.8176 62.088 71.3776 62.2703 70.9189 62.2703ZM58.7606 58.8108H69.2393C69.6201 52.3057 72.1214 46.1043 76.3606 41.1555L79.5675 37.4141V32.8649H48.4324V37.4141L51.6393 41.1555C55.8785 46.1043 58.3798 52.3057 58.7606 58.8108Z" fill="#443F48"/>
<path d="M72.6487 5.18919H76.1081V22.4865H72.6487V5.18919Z" fill="#443F48"/>
<path d="M51.8918 5.18919H55.3513V22.4865H51.8918V5.18919Z" fill="#443F48"/>
<path d="M36.9746 86.4865H19.0269C16.7332 86.4865 14.5334 85.5753 12.9114 83.9534C11.2895 82.3314 10.3783 80.1316 10.3783 77.8378C10.3783 75.5441 11.2895 73.3443 12.9114 71.7223C14.5334 70.1004 16.7332 69.1892 19.0269 69.1892H55.6211C57.384 69.1874 59.0742 68.4862 60.3207 67.2397C61.5672 65.9931 62.2684 64.303 62.2702 62.5401V60.5405H65.7297V62.5401C65.7265 65.2201 64.6604 67.7894 62.7654 69.6844C60.8704 71.5794 58.3011 72.6455 55.6211 72.6487H19.0269C17.6507 72.6487 16.3308 73.1954 15.3576 74.1685C14.3845 75.1417 13.8378 76.4616 13.8378 77.8378C13.8378 79.2141 14.3845 80.534 15.3576 81.5072C16.3308 82.4803 17.6507 83.027 19.0269 83.027H36.9746V86.4865Z" fill="#443F48"/>
<path d="M111.651 119.107H109.262V115.648H111.651C114.838 115.648 118.011 115.212 121.081 114.352V106.396C107.105 94.0402 89.254 97.3008 89.0724 97.3388C88.8342 97.3849 88.589 97.3804 88.3527 97.3256C88.1164 97.2708 87.8943 97.1668 87.7007 97.0206C87.5416 96.9012 71.59 85.037 51.7379 85.037C39.4271 85.1278 27.3046 88.0679 16.32 93.6268C16.1814 93.704 16.033 93.7622 15.8789 93.7998L9.79024 95.2908L8.57943 102.464C8.5202 102.818 8.35213 103.145 8.09857 103.4L6.91889 104.585V111.964C10.9204 113.04 14.9891 113.849 19.0979 114.385L18.6499 117.817C13.9225 117.214 9.24954 116.243 4.6737 114.911C4.32228 114.801 4.01531 114.581 3.79753 114.284C3.57974 113.987 3.4625 113.628 3.46289 113.259V103.869C3.46253 103.41 3.6442 102.97 3.96797 102.646L5.267 101.347L6.57295 93.5957C6.63077 93.264 6.78416 92.9563 7.01429 92.7105C7.24443 92.4647 7.54131 92.2914 7.86851 92.2119L14.8393 90.5047C26.2764 84.6924 38.9157 81.6392 51.7448 81.5896C70.7822 81.5896 85.9537 91.5442 89.1814 93.8292C93.0179 93.2584 110.134 91.6013 123.99 104.367C124.166 104.529 124.306 104.725 124.402 104.944C124.498 105.163 124.547 105.399 124.547 105.638V115.615C124.548 115.967 124.44 116.311 124.24 116.601C124.039 116.891 123.755 117.112 123.425 117.236C119.629 118.501 115.651 119.133 111.651 119.107Z" fill="#2D8EFF"/>
<path d="M35.9888 115.648H92.6859V119.107H35.9888V115.648Z" fill="#2D8EFF"/>
<path d="M72.4428 98.5496C72.3967 98.5522 72.3505 98.5522 72.3045 98.5496L35.7414 95.6091C35.3287 95.5762 34.9414 95.3964 34.65 95.1023L27.6013 87.981L30.061 85.5472L36.6565 92.2136L72.4497 95.0884L88.6193 93.9226L88.8666 97.382L72.5674 98.5565C72.5259 98.5519 72.4843 98.5496 72.4428 98.5496Z" fill="#2D8EFF"/>
<path d="M100.931 124.541C98.7884 124.541 96.6933 123.906 94.9112 122.715C93.1291 121.525 91.7401 119.833 90.9198 117.853C90.0995 115.873 89.8848 113.694 90.3028 111.592C90.7209 109.49 91.7528 107.559 93.2682 106.044C94.7836 104.529 96.7144 103.497 98.8164 103.079C100.918 102.661 103.097 102.875 105.077 103.696C107.057 104.516 108.749 105.905 109.939 107.687C111.13 109.469 111.765 111.564 111.765 113.707C111.761 116.579 110.619 119.333 108.588 121.364C106.557 123.394 103.804 124.537 100.931 124.541ZM100.931 106.332C99.4727 106.331 98.0465 106.764 96.8334 107.574C95.6202 108.384 94.6746 109.536 94.1161 110.884C93.5576 112.231 93.4113 113.714 93.6957 115.145C93.9801 116.576 94.6824 117.89 95.7138 118.922C96.7453 119.954 98.0595 120.656 99.4902 120.941C100.921 121.226 102.404 121.08 103.752 120.522C105.1 119.963 106.252 119.018 107.062 117.805C107.873 116.592 108.305 115.166 108.305 113.707C108.303 111.752 107.525 109.878 106.143 108.495C104.761 107.112 102.887 106.334 100.931 106.332Z" fill="#2D8EFF"/>
<path d="M27.6566 124.541C25.5135 124.541 23.4184 123.906 21.6363 122.715C19.8542 121.525 18.4652 119.833 17.6449 117.853C16.8246 115.873 16.6099 113.694 17.0279 111.592C17.446 109.49 18.4779 107.559 19.9933 106.044C21.5087 104.529 23.4395 103.497 25.5415 103.079C27.6434 102.661 29.8221 102.875 31.802 103.696C33.782 104.516 35.4741 105.905 36.6646 107.687C37.855 109.469 38.4902 111.564 38.4899 113.707C38.4867 116.579 37.3443 119.333 35.3134 121.364C33.2824 123.395 30.5288 124.537 27.6566 124.541ZM27.6566 106.332C26.1978 106.331 24.7716 106.764 23.5585 107.574C22.3453 108.384 21.3997 109.536 20.8412 110.884C20.2827 112.231 20.1364 113.714 20.4208 115.145C20.7052 116.576 21.4075 117.89 22.4389 118.922C23.4704 119.954 24.7846 120.656 26.2153 120.941C27.6461 121.226 29.1292 121.08 30.477 120.522C31.8248 119.963 32.9768 119.018 33.7873 117.805C34.5978 116.592 35.0304 115.166 35.0304 113.707C35.0286 111.752 34.2512 109.877 32.8688 108.495C31.4863 107.112 29.6118 106.334 27.6566 106.332Z" fill="#2D8EFF"/>
<path d="M81.2973 32.8649H46.7028C46.244 32.8649 45.804 32.6826 45.4796 32.3582C45.1553 32.0339 44.973 31.5939 44.973 31.1351V22.4865C44.973 22.0277 45.1553 21.5878 45.4796 21.2634C45.804 20.939 46.244 20.7568 46.7028 20.7568H81.2973C81.7561 20.7568 82.1961 20.939 82.5205 21.2634C82.8448 21.5878 83.0271 22.0277 83.0271 22.4865V31.1351C83.0271 31.5939 82.8448 32.0339 82.5205 32.3582C82.1961 32.6826 81.7561 32.8649 81.2973 32.8649ZM48.4325 29.4054H79.5676V24.2162H48.4325V29.4054Z" fill="#443F48"/>
</svg>
