<svg width="128" height="102" viewBox="0 0 128 102" fill="none" xmlns="http://www.w3.org/2000/svg">
<path d="M50.2092 88.2688C50.2092 85.0635 47.5015 82.4557 44.1735 82.4557H40.142C39.1065 82.4557 38.267 83.2952 38.267 84.3307V99.4833C38.267 100.519 39.1065 101.358 40.142 101.358C41.1775 101.358 42.017 100.519 42.017 99.4833V95.1435L46.9267 100.722C47.2972 101.143 47.8147 101.358 48.335 101.358C48.775 101.358 49.2167 101.204 49.573 100.891C50.3502 100.207 50.426 99.0217 49.7417 98.2445L45.8707 93.8463C48.375 93.138 50.2092 90.9065 50.2092 88.2688ZM44.1735 90.3317C43.6735 90.3317 42.8145 90.3352 42.017 90.339V86.2057H44.1735C45.4125 86.2057 46.4592 87.1505 46.4592 88.2688C46.4592 89.387 45.4125 90.3317 44.1735 90.3317Z" fill="#443F48"/>
<path d="M69.8712 82.4557C68.8355 82.4557 67.9962 83.2952 67.9962 84.3307V99.4833C67.9962 100.519 68.8355 101.358 69.8712 101.358C70.907 101.358 71.7462 100.519 71.7462 99.4833V84.3307C71.7462 83.2952 70.907 82.4557 69.8712 82.4557Z" fill="#443F48"/>
<path d="M62.295 86.2057C63.3305 86.2057 64.17 85.3662 64.17 84.3307C64.17 83.2952 63.3305 82.4557 62.295 82.4557H55.9103C54.8748 82.4557 54.0353 83.2952 54.0353 84.3307V99.4833C54.0353 100.519 54.8748 101.358 55.9103 101.358C56.9458 101.358 57.7853 100.519 57.7853 99.4833V93.782H61.8243C62.8598 93.782 63.6993 92.9425 63.6993 91.907C63.6993 90.8715 62.8598 90.032 61.8243 90.032H57.7853V86.2057H62.295Z" fill="#443F48"/>
<path d="M81.739 82.4557H77.4475C76.9495 82.4557 76.4723 82.6537 76.1203 83.0062C75.7683 83.3587 75.5715 83.8365 75.5725 84.3345L75.6033 99.487C75.6043 99.985 75.8033 100.462 76.1563 100.813C76.5078 101.162 76.983 101.358 77.4783 101.358H77.4853C77.615 101.358 80.6748 101.346 81.897 101.325C86.4373 101.246 89.7328 97.2847 89.7328 91.9072C89.733 86.254 86.5205 82.4557 81.739 82.4557ZM81.8318 97.5752C81.262 97.5852 80.2533 97.5932 79.3493 97.5987L79.3263 86.2057H81.7388C84.8678 86.2057 85.9828 89.1507 85.9828 91.907C85.983 95.7725 83.898 97.539 81.8318 97.5752Z" fill="#443F48"/>
<path d="M64 36.6617C59.16 36.6617 55.2222 40.5992 55.2222 45.4395C55.2222 50.2797 59.16 54.2172 64 54.2172C68.84 54.2172 72.7777 50.2795 72.7777 45.4395C72.7777 40.5995 68.84 36.6617 64 36.6617ZM64 50.4672C61.2277 50.4672 58.9722 48.2117 58.9722 45.4395C58.9722 42.6672 61.2277 40.4117 64 40.4117C66.7725 40.4117 69.0277 42.667 69.0277 45.4395C69.0277 48.212 66.7725 50.4672 64 50.4672Z" fill="#443F48"/>
<path d="M75.5833 59.6745L78.8535 62.9448C79.6383 63.7298 80.7067 64.1698 81.8122 64.1698C81.8805 64.1698 81.9492 64.1683 82.018 64.1648C83.1907 64.1068 84.2897 63.5535 85.0325 62.647C89.0002 57.8058 91.1852 51.6948 91.1852 45.4398C91.1852 39.185 89.0002 33.074 85.0325 28.2328C84.2897 27.3263 83.191 26.773 82.0178 26.715C80.837 26.6578 79.6868 27.1015 78.8535 27.9348L75.5835 31.2048C74.1003 32.6878 73.9598 35.0685 75.2565 36.7423C77.2025 39.2545 78.2312 42.2623 78.2312 45.4398C78.2312 48.6173 77.2025 51.6248 75.2565 54.1373C73.9598 55.8108 74.1003 58.1915 75.5833 59.6745ZM78.221 56.4335C80.6813 53.2578 81.9815 49.4563 81.9815 45.4395C81.9815 41.4228 80.6813 37.6213 78.221 34.4455C78.0755 34.2578 78.0813 34.01 78.2353 33.8563L81.5055 30.586C81.6125 30.479 81.736 30.4598 81.8115 30.4598C81.819 30.4598 81.8262 30.4598 81.8327 30.4603C81.917 30.4645 82.0372 30.4938 82.1322 30.6095C85.5522 34.7825 87.4355 40.0493 87.4355 45.4398C87.4355 50.8303 85.5522 56.097 82.132 60.2703C82.0373 60.3858 81.917 60.4153 81.833 60.4193C81.7635 60.4238 81.6235 60.4115 81.5055 60.2933L78.235 57.0228C78.0813 56.869 78.0755 56.6215 78.221 56.4335Z" fill="#2D8EFF"/>
<path d="M97.9612 15.0502C97.2012 14.2017 96.1115 13.697 94.971 13.6655C93.8275 13.6345 92.708 14.0797 91.8992 14.8885L88.643 18.145C87.0877 19.6997 87.0122 22.2122 88.4707 23.8645C93.7382 29.8315 96.6392 37.4935 96.6392 45.4392C96.6392 53.385 93.7382 61.047 88.4707 67.0142C87.0125 68.6665 87.0883 71.1787 88.6427 72.7335L91.8992 75.99C92.6812 76.772 93.7537 77.2145 94.8577 77.2145C94.8952 77.2145 94.9335 77.214 94.971 77.213C96.1115 77.1817 97.2012 76.6767 97.9612 75.8285C105.462 67.4547 109.592 56.6622 109.592 45.439C109.592 34.2157 105.462 23.4237 97.9612 15.0502ZM95.1677 73.327C95.0692 73.4367 94.9505 73.4625 94.868 73.4647C94.784 73.466 94.6595 73.4472 94.551 73.3387L91.2945 70.0822C91.1365 69.9245 91.1312 69.667 91.282 69.496C97.1545 62.8432 100.389 54.2997 100.389 45.4395C100.389 36.5792 97.1545 28.0357 91.282 21.3832C91.131 21.2122 91.1365 20.9547 91.2945 20.797L94.551 17.5402C94.654 17.437 94.7712 17.414 94.8552 17.414C94.8597 17.414 94.8637 17.414 94.868 17.4142C94.9505 17.4165 95.0695 17.4422 95.1677 17.552C102.051 25.237 105.842 35.1407 105.842 45.4395C105.842 55.7382 102.051 65.642 95.1677 73.327Z" fill="#2D8EFF"/>
<path d="M121.727 17.8228C121.279 16.8893 120.158 16.4968 119.225 16.945C118.292 17.3935 117.899 18.5138 118.347 19.447C122.264 27.5965 124.25 36.3417 124.25 45.4397C124.25 60.645 118.547 75.174 108.192 86.3502C108.09 86.461 107.968 86.486 107.885 86.4877C107.801 86.4865 107.681 86.469 107.576 86.364L104.321 83.109C104.163 82.951 104.154 82.6927 104.302 82.5325C113.65 72.383 118.798 59.21 118.798 45.4397C118.798 31.6695 113.65 18.4965 104.301 8.346C104.154 8.18675 104.163 7.9285 104.321 7.7705L107.576 4.5155C107.681 4.4105 107.809 4.39125 107.885 4.39175C107.968 4.39325 108.09 4.4185 108.192 4.52925C110.367 6.876 112.371 9.415 114.148 12.0763C114.723 12.9375 115.887 13.169 116.749 12.594C117.61 12.0188 117.842 10.8545 117.266 9.9935C115.379 7.168 113.251 4.472 110.942 1.98025C110.163 1.1395 109.102 0.664254 107.956 0.642504C107.928 0.642004 107.901 0.641754 107.873 0.641754C106.759 0.641754 105.714 1.074 104.924 1.864L101.669 5.119C100.08 6.70775 100.025 9.24225 101.543 10.8878C110.251 20.3428 115.047 32.6137 115.047 45.4397C115.047 58.266 110.251 70.537 101.544 79.991C100.025 81.6377 100.08 84.172 101.669 85.7607L104.924 89.0157C105.714 89.806 106.759 90.238 107.874 90.238C107.901 90.238 107.928 90.2377 107.956 90.2372C109.102 90.2155 110.163 89.7405 110.943 88.8992C121.942 77.0272 128 61.593 128 45.4397C128 35.7747 125.89 26.483 121.727 17.8228Z" fill="#2D8EFF"/>
<path d="M52.4167 31.2048L49.1464 27.9345C48.3129 27.101 47.1587 26.6553 45.9819 26.7148C44.8092 26.7728 43.7104 27.326 42.9674 28.2325C38.9997 33.074 36.8147 39.185 36.8147 45.4397C36.8147 51.6947 38.9997 57.8055 42.9672 62.6467C43.7102 63.5532 44.8089 64.1065 45.9817 64.1647C46.0504 64.168 46.1189 64.1697 46.1874 64.1697C47.2927 64.1697 48.3614 63.7297 49.1462 62.945L52.4164 59.6747C53.8994 58.1917 54.0399 55.8112 52.7432 54.1372C50.7969 51.625 49.7682 48.6172 49.7682 45.4397C49.7682 42.2622 50.7969 39.2547 52.7432 36.7422C54.0402 35.068 53.8997 32.6875 52.4167 31.2048ZM49.7789 34.4455C47.3189 37.6213 46.0184 41.4227 46.0184 45.4395C46.0184 49.4562 47.3187 53.2577 49.7789 56.4335C49.9244 56.6212 49.9187 56.8692 49.7652 57.0227L46.4949 60.293C46.3769 60.4107 46.2402 60.4222 46.1674 60.419C46.0832 60.4147 45.9629 60.3855 45.8679 60.2697C42.4482 56.097 40.5649 50.83 40.5649 45.4395C40.5649 40.049 42.4482 34.7823 45.8679 30.6093C45.9629 30.4935 46.0832 30.464 46.1674 30.46C46.1739 30.4598 46.1812 30.4595 46.1887 30.4595C46.2642 30.4595 46.3877 30.479 46.4949 30.586L49.7652 33.8563C49.9187 34.0098 49.9244 34.2578 49.7789 34.4455Z" fill="#2D8EFF"/>
<path d="M39.5283 67.014C34.2608 61.0455 31.36 53.3838 31.36 45.4398C31.36 37.4933 34.261 29.8315 39.5268 23.8673C40.9885 22.2155 40.9145 19.7025 39.3583 18.1465L36.1008 14.889C35.2923 14.0805 34.1705 13.6358 33.0293 13.6663C31.8885 13.6978 30.7983 14.2028 30.0383 15.0513C27.5383 17.8423 25.3868 20.933 23.6438 24.2378C23.1605 25.1538 23.5115 26.288 24.4275 26.771C25.3435 27.2543 26.4775 26.9033 26.9608 25.9873C28.5608 22.9535 30.536 20.116 32.8318 17.5533C32.9305 17.443 33.0498 17.4173 33.1325 17.415C33.2183 17.4118 33.341 17.4325 33.4493 17.5408L36.7068 20.7983C36.864 20.9555 36.869 21.212 36.7173 21.384C30.8445 28.0355 27.6103 36.5788 27.6103 45.44C27.6103 54.2985 30.8445 62.8415 36.7188 69.4975C36.8695 69.6678 36.8643 69.9245 36.707 70.0815L33.4495 73.339C33.3413 73.447 33.2185 73.4663 33.1328 73.4648C33.05 73.4625 32.9308 73.4368 32.8318 73.326C25.9485 65.6435 22.1578 55.74 22.1578 45.4398C22.1578 41.4623 22.718 37.525 23.8228 33.7373C24.1128 32.743 23.5418 31.7023 22.5478 31.4123C21.5538 31.1223 20.5128 31.6933 20.2228 32.6873C19.0185 36.8163 18.4078 41.1068 18.4078 45.4398C18.4078 56.665 22.5385 67.4573 30.0385 75.8283C30.7988 76.6773 31.8888 77.182 33.0295 77.2135C33.0673 77.2145 33.1053 77.215 33.143 77.215C34.2468 77.215 35.3193 76.7723 36.101 75.9908L39.3585 72.7333C40.9145 71.177 40.9885 68.664 39.5283 67.014Z" fill="#2D8EFF"/>
<path d="M12.9525 45.4398C12.9525 32.6135 17.7485 20.3428 26.4557 10.8885C27.9745 9.24201 27.9195 6.70751 26.3307 5.11876L23.0758 1.86376C22.2665 1.05451 21.1903 0.620258 20.0443 0.642508C18.8975 0.664258 17.8368 1.13926 17.0572 1.98051C6.0575 13.8528 0 29.2868 0 45.4398C0 49.283 0.344 53.1308 1.0225 56.8765C1.207 57.8955 2.183 58.5718 3.20175 58.3873C4.22075 58.2028 4.897 57.227 4.7125 56.208C4.07375 52.6823 3.75 49.0593 3.75 45.4398C3.75 30.2348 9.45275 15.7058 19.8078 4.52926C19.9103 4.41851 20.0317 4.39351 20.1152 4.39176C20.1978 4.39101 20.319 4.41051 20.424 4.51551L23.679 7.77051C23.837 7.92851 23.846 8.18676 23.6982 8.34701C14.3505 18.4965 9.2025 31.6695 9.2025 45.4398C9.2025 59.21 14.3505 72.383 23.6992 82.5335C23.8462 82.6928 23.8373 82.951 23.6793 83.109L20.424 86.364C20.319 86.469 20.197 86.489 20.1152 86.4878C20.0315 86.4863 19.9103 86.461 19.8078 86.3505C13.989 80.07 9.496 72.4878 6.814 64.4233C6.48725 63.4405 5.426 62.9083 4.44325 63.2358C3.4605 63.5625 2.929 64.624 3.25575 65.6065C6.105 74.1748 10.8775 82.2293 17.0572 88.8993C17.8365 89.7403 18.8973 90.2153 20.0443 90.237C20.0715 90.2375 20.099 90.2378 20.1262 90.2378C21.2412 90.2378 22.286 89.8055 23.0758 89.0155L26.3307 85.7605C27.9195 84.1718 27.9745 81.6373 26.4565 79.9918C17.7485 70.537 12.9525 58.266 12.9525 45.4398Z" fill="#2D8EFF"/>
</svg>
