<svg width="120" height="120" viewBox="0 0 120 120" fill="none" xmlns="http://www.w3.org/2000/svg">
<path d="M85.7 50.94C85.5199 50.6518 85.2693 50.4142 84.9718 50.2497C84.6744 50.0853 84.3399 49.9993 84 50H62V20C61.9974 19.5522 61.8445 19.1182 61.5659 18.7675C61.2872 18.4169 60.899 18.17 60.4633 18.0662C60.0277 17.9625 59.5698 18.008 59.163 18.1954C58.7563 18.3829 58.4242 18.7014 58.22 19.1L34.2201 67.1C34.0666 67.4045 33.9936 67.7431 34.0079 68.0837C34.0221 68.4243 34.1232 68.7557 34.3016 69.0462C34.4799 69.3368 34.7296 69.5769 35.0268 69.7439C35.3241 69.9108 35.6591 69.999 36.0001 70H58V100C58.0015 100.449 58.1542 100.885 58.4336 101.237C58.713 101.589 59.1027 101.837 59.54 101.94C59.6902 101.98 59.8448 102 60 102C60.3694 101.999 60.7312 101.896 61.0454 101.701C61.3596 101.507 61.6138 101.23 61.78 100.9L85.78 52.9C85.9349 52.5936 86.0088 52.2526 85.9948 51.9096C85.9808 51.5666 85.8793 51.2328 85.7 50.94ZM62 91.52V68C62 67.4696 61.7893 66.9609 61.4143 66.5858C61.0392 66.2107 60.5305 66 60 66H39.2401L58 28.48V52C58 52.5304 58.2108 53.0391 58.5858 53.4142C58.9609 53.7893 59.4696 54 60 54H80.76L62 91.52Z" fill="#443F48"/>
<path d="M108.82 25.16C110.34 23.2457 111.105 20.8399 110.968 18.3992C110.832 15.9586 109.804 13.6529 108.08 11.92L102.42 6.25999C102.039 5.89873 101.535 5.69732 101.01 5.69732C100.485 5.69732 99.9805 5.89873 99.6 6.25999L98.18 7.67999L92.52 2.01999L89.7 4.83999L95.36 10.5L92.52 13.34L86.86 7.67999L84.04 10.5L89.7 16.16L88.28 17.58C87.9075 17.9547 87.6984 18.4616 87.6984 18.99C87.6984 19.5184 87.9075 20.0253 88.28 20.4L93.94 26.06C95.4551 27.5876 97.4277 28.5785 99.5578 28.8818C101.688 29.185 103.859 28.7841 105.74 27.74C112.445 37.1581 116.033 48.4391 116 60C115.992 69.1895 113.724 78.236 109.397 86.343C105.07 94.4499 98.8157 101.369 91.1854 106.49C83.5551 111.611 74.7827 114.777 65.6407 115.71C56.4987 116.643 47.2675 115.314 38.76 111.84L37.24 115.54C46.355 119.264 56.2459 120.689 66.0414 119.69C75.837 118.691 85.2366 115.299 93.4125 109.812C101.588 104.326 108.29 96.9124 112.926 88.226C117.562 79.5396 119.992 69.8463 120 60C120.036 47.4989 116.124 35.3057 108.82 25.16ZM105.26 23.24C104.126 24.3552 102.6 24.9801 101.01 24.9801C99.4199 24.9801 97.8935 24.3552 96.76 23.24L92.52 18.98L101.02 10.5L105.26 14.74C106.384 15.8689 107.015 17.397 107.015 18.99C107.015 20.5829 106.384 22.1111 105.26 23.24Z" fill="#2D8EFF"/>
<path d="M60 -5.48997e-06C44.093 0.0195769 28.8432 6.34728 17.5952 17.5952C6.34729 28.8432 0.0195894 44.093 6.99598e-06 60C-0.0363533 72.5011 3.8764 84.6943 11.18 94.84C9.65979 96.7543 8.89534 99.1601 9.03175 101.601C9.16816 104.041 10.1959 106.347 11.92 108.08L17.58 113.74C17.7623 113.926 17.9803 114.073 18.2208 114.173C18.4614 114.272 18.7196 114.323 18.98 114.32C19.2434 114.323 19.5046 114.273 19.7485 114.173C19.9923 114.073 20.2138 113.926 20.4 113.74L21.82 112.32L27.48 117.98L30.3 115.16L24.64 109.5L27.48 106.66L33.14 112.32L35.96 109.5L30.3 103.84L31.72 102.42C32.0925 102.045 32.3016 101.538 32.3016 101.01C32.3016 100.482 32.0925 99.9747 31.72 99.6L26.06 93.94C24.5361 92.427 22.5646 91.4462 20.4386 91.1435C18.3126 90.8409 16.1456 91.2324 14.26 92.26C7.55521 82.8419 3.9674 71.5609 4.00001 60C4.01642 45.1529 9.92167 30.9186 20.4202 20.4201C30.9186 9.92166 45.1529 4.01641 60 3.99999C67.2858 3.9848 74.5033 5.40518 81.24 8.17999L82.76 4.45999C75.5367 1.50376 67.8049 -0.0113442 60 -5.48997e-06ZM14.74 96.76C15.8735 95.6448 17.3999 95.0198 18.99 95.0198C20.5801 95.0198 22.1065 95.6448 23.24 96.76L27.48 101.02L18.98 109.5L14.74 105.26C13.6162 104.131 12.9852 102.603 12.9852 101.01C12.9852 99.417 13.6162 97.8889 14.74 96.76Z" fill="#2D8EFF"/>
</svg>
