<svg width="128" height="128" viewBox="0 0 128 128" fill="none" xmlns="http://www.w3.org/2000/svg">
<g clip-path="url(#clip0)">
<path d="M78.9333 74.6667H76.5867C75.704 74.6683 74.9144 74.1176 74.6112 73.2885C74.3509 72.6059 74.0715 71.9381 73.7707 71.2768C73.3968 70.4725 73.5675 69.5203 74.1973 68.896L75.8699 67.2213C78.3528 64.7165 78.3483 60.6771 75.8592 58.1781L69.8304 52.1493C67.3283 49.6619 63.2872 49.6619 60.7851 52.1493L59.1125 53.8197C58.4869 54.4472 57.5363 54.6176 56.7317 54.2464C56.0704 53.9456 55.4027 53.6661 54.7179 53.3931C53.8845 53.092 53.3301 52.2995 53.3333 51.4133V49.0667C53.3333 45.532 50.468 42.6667 46.9333 42.6667H38.4C34.8653 42.6667 32 45.532 32 49.0667V51.4133C32.0016 52.296 31.4509 53.0856 30.6219 53.3888C29.9392 53.6491 29.2715 53.9285 28.6101 54.2293C27.8056 54.6013 26.8547 54.4309 26.2293 53.8027L24.5547 52.1301C22.0528 49.6443 18.0133 49.6443 15.5115 52.1301L9.48267 58.1781C6.9952 60.6803 6.9952 64.7213 9.48267 67.2235L11.1531 68.896C11.7829 69.5203 11.9536 70.4725 11.5797 71.2768C11.2789 71.9381 10.9995 72.6059 10.7371 73.2907C10.4317 74.1245 9.63467 74.6757 8.74667 74.6667H6.4C2.86533 74.6667 0 77.532 0 81.0667V89.6C0 93.1347 2.86533 96 6.4 96H8.74667C9.62933 95.9984 10.4189 96.5491 10.7221 97.3781C10.9824 98.0608 11.2619 98.7285 11.5627 99.3899C11.9365 100.194 11.7659 101.146 11.136 101.771L9.46347 103.445C6.9776 105.947 6.9776 109.987 9.46347 112.489L15.4923 118.517C17.9944 121.005 22.0355 121.005 24.5376 118.517L26.2101 116.847C26.8357 116.219 27.7864 116.049 28.5909 116.42C29.2523 116.721 29.92 117.001 30.6048 117.274C31.4424 117.571 32.0016 118.365 32 119.253V121.6C32 125.135 34.8653 128 38.4 128H46.9333C50.468 128 53.3333 125.135 53.3333 121.6V119.253C53.3317 118.371 53.8824 117.581 54.7115 117.278C55.3941 117.018 56.0619 116.738 56.7232 116.437C57.5277 116.065 58.4787 116.236 59.104 116.864L60.7787 118.537C63.284 121.018 67.3224 121.014 69.8219 118.526L75.8507 112.497C78.3381 109.995 78.3381 105.954 75.8507 103.452L74.1803 101.779C73.5504 101.155 73.3797 100.203 73.7536 99.3984C74.0544 98.7371 74.3339 98.0693 74.6069 97.3845C74.908 96.5512 75.7005 95.9968 76.5867 96H78.9333C82.468 96 85.3333 93.1347 85.3333 89.6V81.0667C85.3333 77.532 82.468 74.6667 78.9333 74.6667ZM81.0667 89.6C81.0667 90.7781 80.1115 91.7333 78.9333 91.7333H76.5867C73.9347 91.7432 71.5613 93.3824 70.6133 95.8592C70.3872 96.4565 70.1427 97.0445 69.8795 97.6235C68.7827 100.045 69.2915 102.892 71.1595 104.783L72.8277 106.453C73.6613 107.286 73.6621 108.637 72.8293 109.47C72.8288 109.471 72.8283 109.471 72.8277 109.472L66.7989 115.501C65.9659 116.334 64.6155 116.334 63.7824 115.501L62.1099 113.83C60.2195 111.961 57.3715 111.452 54.9504 112.55C54.3723 112.813 53.7835 113.058 53.1904 113.284C50.7155 114.232 49.0773 116.603 49.0667 119.253V121.6C49.0667 122.778 48.1115 123.733 46.9333 123.733H38.4C37.2219 123.733 36.2667 122.778 36.2667 121.6V119.253C36.2568 116.601 34.6176 114.228 32.1408 113.28C31.5435 113.054 30.9555 112.809 30.3765 112.546C27.9552 111.45 25.1085 111.959 23.2171 113.826L21.5467 115.494C20.7141 116.328 19.3632 116.329 18.5296 115.496C18.5291 115.495 18.5285 115.495 18.528 115.494L12.4992 109.472C11.6664 108.639 11.6664 107.289 12.4992 106.455L14.1696 104.783C16.0376 102.892 16.5464 100.045 15.4496 97.6235C15.1872 97.0453 14.9419 96.4565 14.7157 95.8635C13.7701 93.3859 11.3984 91.7451 8.74667 91.7333H6.4C5.22187 91.7333 4.26667 90.7781 4.26667 89.6V81.0667C4.26667 79.8885 5.22187 78.9333 6.4 78.9333H8.74667C11.3987 78.9235 13.772 77.2843 14.72 74.8075C14.9461 74.2101 15.1907 73.6221 15.4539 73.0432C16.5507 70.6219 16.0416 67.7749 14.1739 65.8837L12.4971 64.2133C11.6635 63.3808 11.6627 62.0299 12.4955 61.1963C12.496 61.1957 12.4965 61.1952 12.4971 61.1947L18.5259 55.1659C19.3589 54.3331 20.7093 54.3331 21.5424 55.1659L23.2149 56.8363C25.1053 58.7059 27.9533 59.2149 30.3744 58.1163C30.9525 57.8539 31.5413 57.6085 32.1344 57.3824C34.6128 56.4376 36.2547 54.0656 36.2667 51.4133V49.0667C36.2667 47.8885 37.2219 46.9333 38.4 46.9333H46.9333C48.1115 46.9333 49.0667 47.8885 49.0667 49.0667V51.4133C49.0765 54.0653 50.7157 56.4387 53.1925 57.3867C53.7899 57.6128 54.3779 57.8573 54.9568 58.1205C57.3779 59.2192 60.2259 58.7101 62.1163 56.8405L63.7867 55.1723C64.6229 54.3451 65.9691 54.3451 66.8053 55.1723L72.8341 61.2011C73.6669 62.0341 73.6669 63.3845 72.8341 64.2176L71.1637 65.8901C69.296 67.7813 68.7869 70.6283 69.8837 73.0496C70.1461 73.6277 70.3915 74.2165 70.6176 74.8096C71.5653 77.2845 73.9365 78.9227 76.5867 78.9333H78.9333C80.1115 78.9333 81.0667 79.8885 81.0667 81.0667V89.6Z" fill="#2D8EFF"/>
<path d="M61.824 84.48C61.8026 83.968 61.7664 83.4581 61.7045 82.9504C61.6362 82.4043 61.5552 81.8624 61.4421 81.3312C61.3674 80.9835 61.2693 80.64 61.1754 80.2944C61.056 79.8549 60.9216 79.4219 60.7722 78.9952C60.6677 78.6987 60.5589 78.4043 60.448 78.112C60.1733 77.4288 59.8592 76.7619 59.5072 76.1152C59.4794 76.0661 59.4624 76.0128 59.4346 75.9637C58.8797 74.976 58.237 74.0397 57.5146 73.1669C57.4528 73.0901 57.3824 73.0176 57.3184 72.9429C57.024 72.5952 56.721 72.2581 56.4032 71.936C56.2368 71.7632 56.0618 71.6011 55.8869 71.4347C55.6736 71.2363 55.4602 71.04 55.2469 70.8523C54.988 70.6275 54.7242 70.4098 54.4554 70.1994L54.1056 69.9392C50.8045 67.4667 46.7909 66.1312 42.6666 66.1333C42.4533 66.1333 42.24 66.1653 42.0266 66.1739C41.5722 66.1867 41.1157 66.2123 40.657 66.2592C40.416 66.2848 40.1728 66.3125 39.9317 66.3467C39.2362 66.4381 38.5461 66.5672 37.8645 66.7328C27.5922 69.3872 21.4168 79.8667 24.0712 90.1389C25.8205 96.908 31.109 102.192 37.8794 103.936C37.9136 103.936 37.9498 103.947 37.9861 103.955C38.7229 104.139 39.4693 104.282 40.2218 104.382C40.7189 104.444 41.216 104.457 41.7152 104.48C42.048 104.497 42.3552 104.546 42.7029 104.546C43.3109 104.546 43.9424 104.506 44.5866 104.442C44.6549 104.442 44.7232 104.422 44.8 104.414C45.3184 104.356 45.8432 104.279 46.3786 104.173C46.592 104.132 46.7904 104.079 46.9952 104.032C47.3706 103.945 47.744 103.853 48.128 103.74C48.4266 103.65 48.7168 103.546 49.009 103.443C49.3013 103.341 49.6042 103.23 49.9072 103.115C50.2101 102.999 50.464 102.867 50.7392 102.739C51.0976 102.575 51.4538 102.413 51.8058 102.221H51.8186C53.8096 101.155 55.6485 99.8269 57.2864 98.272C57.7288 97.8592 58.1136 97.3883 58.4298 96.8725C60.0949 94.2032 61.1888 91.2179 61.6426 88.1045C61.7024 87.6928 61.7557 87.2811 61.7877 86.8608C61.8176 86.4747 61.8389 86.0907 61.8474 85.7067C61.8474 85.5851 61.8645 85.4699 61.8645 85.3483C61.8666 85.0475 61.8368 84.7701 61.824 84.48ZM57.5722 85.8773C57.5722 86.0544 57.5573 86.2315 57.5466 86.4064C57.5082 86.9227 57.4421 87.4389 57.3546 87.9573C56.5573 92.3928 53.8034 96.2328 49.8581 98.4107C49.5936 98.5493 49.3333 98.6795 49.073 98.7989L48.896 98.8843C47.6565 99.4469 46.3482 99.8429 45.0048 100.062C44.9109 100.077 44.8149 100.094 44.7189 100.107C44.4522 100.145 44.1898 100.177 43.9296 100.201C43.5861 100.23 43.2405 100.247 42.8885 100.254C42.7392 100.254 42.592 100.254 42.4426 100.254C41.9378 100.248 41.4338 100.217 40.9322 100.16L40.6762 100.13C40.0896 100.053 39.5077 99.9437 38.9333 99.8016C30.9434 97.7565 26.1242 89.6216 28.169 81.6317C29.5202 76.3523 33.6402 72.228 38.9184 70.8715V70.8693C40.144 70.5603 41.4026 70.4024 42.6666 70.4C43.2765 70.4035 43.8858 70.4448 44.4906 70.5237C44.6528 70.5429 44.8128 70.5728 44.9728 70.5963C45.4336 70.6688 45.8901 70.7605 46.3402 70.8757C46.4874 70.9141 46.6346 70.9483 46.7797 70.9888C47.9141 71.3163 49.0061 71.776 50.033 72.3584C50.1973 72.4544 50.3573 72.5547 50.5194 72.6549C50.8565 72.8683 51.1829 73.0816 51.505 73.3248C51.6778 73.4507 51.8528 73.5744 52.0192 73.7088C52.4378 74.0432 52.8386 74.3992 53.2202 74.7755C53.3717 74.9291 53.5104 75.0976 53.6576 75.2576C53.9029 75.5243 54.1418 75.7973 54.3701 76.0853C54.528 76.2837 54.6794 76.4885 54.8288 76.6955C55.0421 77.0027 55.2554 77.3227 55.4474 77.6469C55.5541 77.824 55.6608 77.9968 55.7696 78.1781C56.0448 78.6845 56.2898 79.2067 56.5034 79.7419C56.5888 79.9552 56.6613 80.1685 56.7381 80.3819C56.8768 80.7744 56.9962 81.1712 57.1008 81.5723C57.1541 81.7856 57.2138 81.9755 57.2586 82.1824C57.3832 82.7589 57.4736 83.3424 57.5296 83.9296C57.5424 84.0853 57.5424 84.2432 57.553 84.3989C57.5829 84.8896 57.5914 85.3824 57.5722 85.8773Z" fill="#2D8EFF"/>
<path d="M121.6 44.8H114.891C113.996 44.8091 113.196 44.2456 112.902 43.4005C112.241 41.4189 111.44 39.4861 110.507 37.6171C110.11 36.8099 110.275 35.8395 110.916 35.2085L115.674 30.4448C118.171 27.9459 118.171 23.8963 115.674 21.3973L106.603 12.3413C104.104 9.84427 100.054 9.84427 97.5552 12.3413L92.8 17.0944C92.1699 17.7349 91.2008 17.9008 90.3936 17.5061C88.5243 16.5677 86.5909 15.7629 84.608 15.0976C83.7595 14.8072 83.192 14.0061 83.2 13.1093V6.4C83.2 2.86533 80.3347 0 76.8 0H64C60.4653 0 57.6 2.86533 57.6 6.4V13.1093C57.6091 14.004 57.0459 14.8043 56.2005 15.0976C54.2187 15.7627 52.2859 16.5669 50.4171 17.504C49.6099 17.9016 48.6389 17.7365 48.0085 17.0944L43.2448 12.3371C40.7429 9.8472 36.6992 9.8472 34.1973 12.3371L25.1435 21.3909C22.6451 23.8901 22.6451 27.9413 25.1435 30.4405L32.1387 37.4485C32.9848 38.2683 34.3355 38.2469 35.1552 37.4005C35.9549 36.5749 35.9568 35.264 35.1595 34.4363L28.16 27.4304C27.3272 26.5973 27.3272 25.2469 28.16 24.4139L37.2139 15.36C38.0469 14.5272 39.3973 14.5272 40.2304 15.36L44.9963 20.1173C46.9245 22.0571 49.8792 22.5419 52.3264 21.3205C54.0163 20.4744 55.7635 19.748 57.5552 19.1467C60.1413 18.2712 61.8779 15.8397 61.8667 13.1093V6.4C61.8667 5.22187 62.8219 4.26667 64 4.26667H76.8C77.9781 4.26667 78.9333 5.22187 78.9333 6.4V13.1093C78.9224 15.8392 80.6589 18.2699 83.2448 19.1445C85.0373 19.7461 86.7853 20.4731 88.4757 21.3205C90.9235 22.5355 93.8741 22.0501 95.8037 20.1152L100.57 15.36C101.403 14.5272 102.753 14.5272 103.586 15.36L112.64 24.416C113.471 25.2488 113.471 26.5976 112.64 27.4304L107.883 32.1963C105.945 34.1256 105.46 37.0789 106.679 39.5264C107.526 41.2163 108.252 42.9635 108.853 44.7552C109.728 47.3419 112.16 49.0784 114.891 49.0667H121.6C122.778 49.0667 123.733 50.0219 123.733 51.2V64C123.733 65.1781 122.778 66.1333 121.6 66.1333H114.891C112.161 66.1224 109.73 67.8589 108.855 70.4448C108.254 72.2373 107.527 73.9853 106.679 75.6757C105.462 78.1232 105.948 81.0749 107.885 83.0037L112.642 87.7696C113.475 88.6027 113.475 89.9531 112.642 90.7861L103.584 99.84C102.751 100.671 101.402 100.671 100.57 99.84L93.5594 92.8448C92.7397 91.9984 91.3891 91.9771 90.5429 92.7968C89.6965 93.6165 89.6752 94.9672 90.4949 95.8133C90.512 95.8309 90.5296 95.8485 90.5472 95.8656L97.5552 102.861C100.054 105.358 104.104 105.358 106.603 102.861L115.657 93.8091C118.155 91.3099 118.155 87.2587 115.657 84.7595L110.906 80C110.266 79.3696 110.1 78.4008 110.494 77.5936C111.432 75.7243 112.237 73.7909 112.902 71.808C113.193 70.9595 113.994 70.392 114.891 70.4H121.6C125.135 70.4 128 67.5347 128 64V51.2C128 47.6653 125.135 44.8 121.6 44.8Z" fill="#443F48"/>
<path d="M90.0096 37.9904C79.1728 27.1763 61.6272 27.1763 50.7904 37.9904C49.972 38.8379 49.9955 40.1885 50.8429 41.0069C51.6696 41.8053 52.9803 41.8053 53.8069 41.0069C62.9096 31.7813 77.7675 31.6819 86.9931 40.7845C96.2187 49.8872 96.3182 64.7451 87.2155 73.9707C87.1419 74.0453 87.0678 74.1195 86.9931 74.1931C86.1456 75.0117 86.1222 76.3621 86.9408 77.2096C87.7595 78.0571 89.1099 78.0805 89.9574 77.2619C89.975 77.2448 89.9926 77.2272 90.0096 77.2096C100.824 66.3728 100.824 48.8272 90.0096 37.9904Z" fill="#443F48"/>
</g>
<defs>
<clipPath id="clip0">
<rect width="128" height="128" fill="white"/>
</clipPath>
</defs>
</svg>
