<svg width="128" height="128" viewBox="0 0 128 128" fill="none" xmlns="http://www.w3.org/2000/svg">
<circle cx="64" cy="64" r="61.25" fill="white" stroke="#443F48" stroke-width="5.5"/>
<path d="M35.3683 72.9825C28.2494 72.9825 22.4561 67.1892 22.4561 60.0702C22.4561 52.9512 28.2494 47.1579 35.3683 47.1579C42.4873 47.1579 48.2806 52.9512 48.2806 60.0702C48.2806 67.1892 42.4873 72.9825 35.3683 72.9825ZM35.3683 55.7661C32.9925 55.7661 31.0642 57.6943 31.0642 60.0702C31.0642 62.446 32.9925 64.3743 35.3683 64.3743C37.7442 64.3743 39.6724 62.446 39.6724 60.0702C39.6724 57.6943 37.7442 55.7661 35.3683 55.7661Z" fill="#2D8EFF"/>
<path d="M63.9999 72.9825C57.1905 72.9825 51.649 67.1892 51.649 60.0702C51.649 52.9512 57.1905 47.1579 63.9999 47.1579C70.8094 47.1579 76.3508 52.9512 76.3508 60.0702C76.3508 67.1892 70.8094 72.9825 63.9999 72.9825ZM63.9999 55.7661C61.7274 55.7661 59.883 57.6943 59.883 60.0702C59.883 62.446 61.7274 64.3743 63.9999 64.3743C66.2725 64.3743 68.1169 62.446 68.1169 60.0702C68.1169 57.6943 66.2725 55.7661 63.9999 55.7661Z" fill="#2D8EFF"/>
<path d="M92.6315 72.9825C85.5125 72.9825 79.7192 67.1892 79.7192 60.0702C79.7192 52.9512 85.5125 47.1579 92.6315 47.1579C99.7505 47.1579 105.544 52.9512 105.544 60.0702C105.544 67.1892 99.7505 72.9825 92.6315 72.9825ZM92.6315 55.7661C90.2557 55.7661 88.3274 57.6943 88.3274 60.0702C88.3274 62.446 90.2557 64.3743 92.6315 64.3743C95.0074 64.3743 96.9356 62.446 96.9356 60.0702C96.9356 57.6943 95.0074 55.7661 92.6315 55.7661Z" fill="#2D8EFF"/>
<path d="M49.4034 97.6842C42.5939 97.6842 37.0525 91.8909 37.0525 84.7719C37.0525 77.653 42.5939 71.8596 49.4034 71.8596C56.2128 71.8596 61.7542 77.653 61.7542 84.7719C61.7542 91.8909 56.2128 97.6842 49.4034 97.6842ZM49.4034 80.4678C47.1308 80.4678 45.2864 82.3961 45.2864 84.7719C45.2864 87.1478 47.1308 89.076 49.4034 89.076C51.6759 89.076 53.5203 87.1478 53.5203 84.7719C53.5203 82.3961 51.6759 80.4678 49.4034 80.4678Z" fill="#2D8EFF"/>
<path d="M78.0351 97.6842C70.9161 97.6842 65.1228 91.8909 65.1228 84.7719C65.1228 77.653 70.9161 71.8596 78.0351 71.8596C85.1541 71.8596 90.9474 77.653 90.9474 84.7719C90.9474 91.8909 85.1541 97.6842 78.0351 97.6842ZM78.0351 80.4678C75.6592 80.4678 73.731 82.3961 73.731 84.7719C73.731 87.1478 75.6592 89.076 78.0351 89.076C80.4109 89.076 82.3392 87.1478 82.3392 84.7719C82.3392 82.3961 80.4109 80.4678 78.0351 80.4678Z" fill="#2D8EFF"/>
<path d="M49.4035 47.1579C45.0702 47.1579 41.5438 43.6315 41.5438 39.2982C41.5438 34.965 45.0702 31.4386 49.4035 31.4386C53.7368 31.4386 57.2631 34.965 57.2631 39.2982C57.2631 43.6315 53.7368 47.1579 49.4035 47.1579ZM49.4035 36.6784C47.9573 36.6784 46.7836 37.8521 46.7836 39.2982C46.7836 40.7444 47.9573 41.9181 49.4035 41.9181C50.8496 41.9181 52.0234 40.7444 52.0234 39.2982C52.0234 37.8521 50.8496 36.6784 49.4035 36.6784Z" fill="#2D8EFF"/>
<path d="M78.5965 47.1579C74.2632 47.1579 70.7368 43.6315 70.7368 39.2982C70.7368 34.965 74.2632 31.4386 78.5965 31.4386C82.9298 31.4386 86.4561 34.965 86.4561 39.2982C86.4561 43.6315 82.9298 47.1579 78.5965 47.1579ZM78.5965 36.6784C77.1503 36.6784 75.9766 37.8521 75.9766 39.2982C75.9766 40.7444 77.1503 41.9181 78.5965 41.9181C80.0426 41.9181 81.2163 40.7444 81.2163 39.2982C81.2163 37.8521 80.0426 36.6784 78.5965 36.6784Z" fill="#2D8EFF"/>
</svg>
