<svg width="128" height="128" viewBox="0 0 128 128" fill="none" xmlns="http://www.w3.org/2000/svg">
<path d="M64 128C28.7093 128 0 99.2907 0 64C0 28.7093 28.7093 0 64 0C99.2907 0 128 28.7093 128 64C128 99.2907 99.2907 128 64 128ZM64 5.33333C31.6533 5.33333 5.33333 31.6533 5.33333 64C5.33333 96.3467 31.6533 122.667 64 122.667C96.3467 122.667 122.667 96.3467 122.667 64C122.667 31.6533 96.3467 5.33333 64 5.33333Z" fill="#443F48"/>
<path d="M64 101.333C59.5893 101.333 56 97.744 56 93.3333C56 88.9226 59.5893 85.3333 64 85.3333C68.4107 85.3333 72 88.9226 72 93.3333C72 97.744 68.4107 101.333 64 101.333ZM64 90.6666C62.528 90.6666 61.3333 91.8613 61.3333 93.3333C61.3333 94.8053 62.528 96 64 96C65.472 96 66.6667 94.8053 66.6667 93.3333C66.6667 91.8613 65.472 90.6666 64 90.6666Z" fill="#2D8EFF"/>
<path d="M63.9999 74.6666C62.5279 74.6666 61.3333 73.472 61.3333 72V29.3333C61.3333 27.8613 62.5279 26.6666 63.9999 26.6666C65.4719 26.6666 66.6666 27.8613 66.6666 29.3333V72C66.6666 73.472 65.4719 74.6666 63.9999 74.6666Z" fill="#2D8EFF"/>
</svg>
