<svg width="128" height="128" viewBox="0 0 128 128" fill="none" xmlns="http://www.w3.org/2000/svg">
<g clip-path="url(#clip0)">
<path d="M122.1 123H116.617V43.384C116.617 39.6783 113.602 36.6635 109.896 36.6635H97.6404C93.9346 36.6635 90.9199 39.6785 90.9199 43.384V123H76.9969V79.4563C76.9969 75.7505 73.9821 72.7358 70.2764 72.7358H58.0204C54.3146 72.7358 51.2999 75.7508 51.2999 79.4563V123H37.3769V100.449C37.3769 96.7433 34.3619 93.7285 30.6564 93.7285H18.4001C14.6944 93.7285 11.6796 96.7435 11.6796 100.449V123H5.90064C4.51988 123 3.40063 124.119 3.40063 125.5C3.40063 126.881 4.51988 128 5.90064 128H122.1C123.481 128 124.6 126.881 124.6 125.5C124.6 124.119 123.481 123 122.1 123ZM32.3764 123H16.6794V100.449C16.6794 99.5003 17.4511 98.7285 18.3999 98.7285H30.6559C31.6046 98.7285 32.3764 99.5003 32.3764 100.449V123ZM71.9966 123H56.2996V79.4563C56.2996 78.5075 57.0714 77.7358 58.0201 77.7358H70.2761C71.2246 77.7358 71.9966 78.5075 71.9966 79.4563V123ZM111.617 123H95.9199V43.384C95.9199 42.4353 96.6916 41.6635 97.6404 41.6635H109.896C110.845 41.6635 111.617 42.4353 111.617 43.384V123Z" fill="#444433"/>
<path d="M116.61 2.629C116.645 1.94675 116.405 1.253 115.884 0.732C115.363 0.211 114.67 -0.02925 113.987 0.006C113.947 0.00425 113.907 0 113.866 0H98.7415C97.3607 0 96.2415 1.11925 96.2415 2.5C96.2415 3.88075 97.3607 5 98.7415 5H108.081L83.3665 29.7145L74.0465 20.3945C73.5777 19.9258 72.9417 19.6623 72.2787 19.6623C71.6157 19.6623 70.9797 19.9258 70.511 20.3945L25.5687 65.337C24.5925 66.3132 24.5925 67.8962 25.5687 68.8727C26.057 69.3605 26.6967 69.6045 27.3365 69.6045C27.9762 69.6045 28.6162 69.3605 29.1042 68.8723L72.2787 25.6975L81.5987 35.0175C82.575 35.9938 84.158 35.9938 85.1345 35.0175L111.616 8.53575V16.9883C111.616 18.369 112.736 19.4883 114.116 19.4883C115.497 19.4883 116.616 18.369 116.616 16.9883V2.75C116.616 2.70925 116.612 2.6695 116.61 2.629Z" fill="#2D8EFF"/>
<path d="M18.9102 78.3276C20.2909 78.3276 21.4102 77.2083 21.4102 75.8276C21.4102 74.4469 20.2909 73.3276 18.9102 73.3276C17.5294 73.3276 16.4102 74.4469 16.4102 75.8276C16.4102 77.2083 17.5294 78.3276 18.9102 78.3276Z" fill="#444433"/>
</g>
<defs>
<clipPath id="clip0">
<rect width="128" height="128" fill="white"/>
</clipPath>
</defs>
</svg>
