<svg width="128" height="128" viewBox="0 0 128 128" fill="none" xmlns="http://www.w3.org/2000/svg">
<g clip-path="url(#clip0)">
<path d="M0.404951 11.7418L8.94153 26.6799C9.22948 27.1847 9.71144 27.5499 10.275 27.6912L18.2392 29.6823L45.5547 56.9977L48.5729 53.9804L20.8299 26.2383C20.5569 25.9644 20.2145 25.7704 19.8396 25.6765L12.1871 23.7565L4.91905 11.0307L11.1503 4.79943L23.8814 12.0745L25.8022 19.727C25.8953 20.1028 26.0902 20.446 26.3632 20.719L54.1062 48.462L57.1235 45.4439L29.808 18.1284L27.817 10.1686C27.6756 9.6041 27.3104 9.12127 26.8057 8.83244L11.8666 0.296741C11.0335 -0.177318 9.98534 -0.036856 9.30585 0.639995L0.770152 9.17657C0.0836438 9.85167 -0.0655969 10.9016 0.404951 11.7418Z" fill="#2D8EFF"/>
<path d="M89.1286 42.0587L42.18 89.0081L39.1619 85.9899L86.1113 39.0414L89.1286 42.0587Z" fill="#2D8EFF"/>
<path d="M33.9631 90.6691C33.5768 90.0265 32.8833 89.6341 32.1336 89.6341H19.3296C18.5807 89.6341 17.8863 90.0265 17.5009 90.6691L11.0985 101.339C10.692 102.015 10.692 102.86 11.0985 103.537L17.5009 114.207C17.8863 114.849 18.5807 115.242 19.3296 115.242H32.1336C32.8833 115.242 33.5768 114.849 33.9631 114.207L40.3646 103.537C40.7711 102.86 40.7711 102.015 40.3646 101.339L33.9631 90.6691ZM30.9265 110.974H20.5375L15.4159 102.438L20.5375 93.9015H30.9265L36.048 102.438L30.9265 110.974Z" fill="#2D8EFF"/>
<path d="M102.557 51.2212C116.651 51.2686 128.117 39.8807 128.164 25.7862C128.171 23.6406 127.908 21.5039 127.38 19.4241C127.096 18.2803 125.938 17.5841 124.794 17.8685C124.418 17.9625 124.076 18.1565 123.802 18.4295L110.518 31.7049L99.9776 28.1925L96.4626 17.6552L109.747 4.36837C110.58 3.53437 110.579 2.1833 109.745 1.35019C109.47 1.07541 109.124 0.880518 108.746 0.787462C95.0772 -2.67405 81.1917 5.60004 77.7302 19.2679C77.2043 21.3414 76.9418 23.473 76.9489 25.6124C76.9541 27.2926 77.1271 28.9677 77.4677 30.6128L30.7316 77.3481C29.0864 77.0083 27.4114 76.8354 25.732 76.8292C11.5884 76.8292 0.123169 88.2944 0.123169 102.438C0.123169 116.581 11.5884 128.046 25.732 128.046C39.8748 128.046 51.34 116.581 51.34 102.438C51.3347 100.758 51.1609 99.0828 50.8212 97.4376L62.0099 86.249L66.9032 91.1423C67.7372 91.9754 69.0874 91.9754 69.9214 91.1423L70.988 90.0748C71.9238 89.1451 73.4364 89.1451 74.3723 90.0748C75.3072 91.0071 75.309 92.5206 74.3767 93.4555C74.3767 93.4555 74.374 93.4582 74.3723 93.4599L73.3056 94.5266C72.4725 95.3597 72.4725 96.7107 73.3056 97.5439L98.7626 123.001C105.458 129.758 116.363 129.807 123.12 123.111C129.877 116.416 129.926 105.51 123.23 98.7536C123.194 98.7167 123.157 98.6798 123.12 98.643L97.6635 73.1869C96.8304 72.3537 95.4793 72.3537 94.6462 73.1869L93.5796 74.2535C92.6429 75.1841 91.1311 75.1841 90.1944 74.2535C89.2604 73.3212 89.2577 71.8077 90.19 70.8736C90.1918 70.8719 90.1944 70.8692 90.1944 70.8692L91.2619 69.8017C92.0951 68.9686 92.0951 67.6175 91.2619 66.7844L86.3686 61.8911L97.5573 50.7024C99.2024 51.0421 100.877 51.216 102.557 51.2212ZM110.942 123.779C109.391 123.776 107.854 123.496 106.403 122.951L123.07 106.283C125.585 112.974 122.2 120.436 115.51 122.951C114.05 123.499 112.502 123.78 110.942 123.779ZM86.7654 68.3146C84.4021 71.1335 84.7726 75.3351 87.5915 77.6974C90.0689 79.7737 93.6796 79.7719 96.1544 77.6913L120.103 101.661C120.363 101.922 120.606 102.197 120.841 102.476L102.595 120.722C102.315 120.487 102.041 120.244 101.78 119.984L77.8127 96.0146C80.176 93.1957 79.8055 88.9941 76.9866 86.6317C74.5092 84.5546 70.8976 84.5573 68.4228 86.637L65.0087 83.2229L83.3504 64.9084L86.7654 68.3146ZM95.3828 46.8511L46.9716 95.2526C46.4405 95.7828 46.2272 96.5527 46.408 97.2805C49.3358 108.778 42.3882 120.473 30.8896 123.399C19.3919 126.327 7.69758 119.38 4.76983 107.881C1.84295 96.3833 8.79055 84.6889 20.2891 81.7612C23.7673 80.8763 27.4114 80.8763 30.8896 81.7612C31.6174 81.9394 32.3855 81.7261 32.9175 81.1985L81.3172 32.7961C81.8475 32.2659 82.0608 31.496 81.8782 30.7691C78.9706 19.4057 85.8252 7.8369 97.1886 4.92846C99.3359 4.37978 101.557 4.16909 103.769 4.30691L92.5121 15.5685C91.9406 16.1391 91.7404 16.9845 91.9959 17.7509L96.2633 30.5558C96.4766 31.1922 96.977 31.6926 97.6143 31.9042L110.419 36.1725C111.185 36.4279 112.03 36.2287 112.602 35.658L123.859 24.4009C123.884 24.8082 123.897 25.2112 123.897 25.6124C123.957 37.3383 114.501 46.8924 102.775 46.9529C100.962 46.9617 99.155 46.7387 97.3993 46.2893C96.6715 46.1075 95.9016 46.32 95.3713 46.8502L95.3828 46.8511Z" fill="#443F48"/>
<path d="M110.47 107.331L107.452 110.349L86.1122 89.009L89.1295 85.9908L110.47 107.331Z" fill="#443F48"/>
</g>
<defs>
<clipPath id="clip0">
<rect width="128" height="128" fill="white"/>
</clipPath>
</defs>
</svg>
