<svg width="118" height="128" viewBox="0 0 118 128" fill="none" xmlns="http://www.w3.org/2000/svg">
<path d="M15.8031 24.5982C16.6118 25.3333 17.6906 25.0694 18.4546 24.4781C19.1524 23.7152 19.0999 22.5271 18.3347 21.8292C17.5691 21.1288 16.3837 21.1838 15.6858 21.947C14.9852 22.7122 15.0377 23.8978 15.8031 24.5982Z" fill="#2D8EFF"/>
<path d="M9.73963 33.1652C10.5838 33.689 11.7992 33.4069 12.3235 32.5649C12.8713 31.6845 12.6012 30.5266 11.7234 29.981C10.8427 29.4335 9.68485 29.7011 9.13956 30.5814C8.59176 31.4618 8.85941 32.6172 9.73963 33.1652Z" fill="#2D8EFF"/>
<path d="M24.8302 18.0297C26.2617 18.0297 27.2062 16.1934 26.326 15.0228C25.7032 14.1974 24.525 14.0323 23.6996 14.6551C22.8714 15.2804 22.7063 16.4561 23.3317 17.284C23.6999 17.772 24.2627 18.0297 24.8302 18.0297Z" fill="#2D8EFF"/>
<path d="M5.36005 42.7051C6.26179 43.0495 7.43266 42.5468 7.78886 41.6348C8.16406 40.6693 7.6838 39.5812 6.71828 39.206C5.75302 38.8308 4.66743 39.3083 4.29223 40.2763C3.91403 41.2421 4.39429 42.3277 5.36005 42.7051Z" fill="#2D8EFF"/>
<path d="M2.81843 52.8881C3.74668 53.0674 4.83526 52.3135 5.0071 51.3873C5.1972 50.3695 4.52684 49.3889 3.5088 49.2013C2.48825 49.0085 1.51048 49.6816 1.32013 50.6994C1.13003 51.7177 1.80039 52.6982 2.81843 52.8881Z" fill="#2D8EFF"/>
<path d="M5.33004 80.2805C4.36453 80.6557 3.88427 81.7412 4.25947 82.7065C4.54712 83.4519 5.255 83.9074 6.0079 83.9074C7.19879 83.9074 8.20133 82.4996 7.75884 81.3535C7.38339 80.3855 6.29806 79.9052 5.33004 80.2805Z" fill="#2D8EFF"/>
<path d="M3.48878 73.782C4.50933 73.5944 5.18244 72.6139 4.99234 71.5958C4.80474 70.578 3.82421 69.9049 2.80617 70.0925C1.78812 70.2826 1.11526 71.2606 1.30286 72.2787C1.48671 73.3015 2.49425 73.9763 3.48878 73.782Z" fill="#2D8EFF"/>
<path d="M2.19834 63.3664C4.68117 63.2801 4.68167 59.6995 2.19834 59.6144C1.16253 59.6117 0.322333 60.4524 0.322333 61.4877C0.319582 62.5257 1.16028 63.3637 2.19559 63.3664H2.19834Z" fill="#2D8EFF"/>
<path d="M107.99 90.3633C107.117 89.808 105.956 90.0682 105.401 90.9412C104.846 91.8166 105.103 92.975 105.979 93.5326C106.921 94.0641 107.784 93.8715 108.568 92.9547C109.123 92.0793 108.865 90.9211 107.99 90.3633Z" fill="#2D8EFF"/>
<path d="M106.629 30.5111C105.744 31.0466 105.461 32.2022 105.999 33.0877C106.511 33.9342 107.731 34.2313 108.578 33.718C109.463 33.1803 109.743 32.0271 109.208 31.1417C108.67 30.2562 107.517 29.9735 106.629 30.5111Z" fill="#2D8EFF"/>
<path d="M100.111 22.2869C99.3376 22.9773 99.2726 24.1629 99.9629 24.9358C100.825 25.717 101.708 25.7663 102.612 25.0837C103.382 24.3931 103.45 23.2077 102.759 22.4345C102.069 21.6638 100.883 21.5966 100.111 22.2869Z" fill="#2D8EFF"/>
<path d="M112.462 80.8708C111.499 80.4856 110.408 80.9533 110.023 81.9138C109.564 83.0632 110.564 84.4877 111.764 84.4877C112.51 84.4877 113.212 84.0427 113.508 83.3071C113.89 82.3466 113.423 81.2535 112.462 80.8708Z" fill="#2D8EFF"/>
<path d="M115.822 60.2422C114.784 60.2322 113.936 61.0627 113.926 62.1007C113.915 63.2201 114.84 63.8434 115.802 63.9942C116.829 63.9942 117.668 63.1663 117.678 62.1383C117.688 61.1002 116.857 60.2522 115.822 60.2422Z" fill="#2D8EFF"/>
<path d="M112.189 43.4232C112.41 43.4232 112.632 43.386 112.85 43.3034C113.818 42.9382 114.308 41.8577 113.946 40.8871C112.991 38.5917 109.639 39.8548 110.434 42.2078C110.716 42.9605 111.432 43.4232 112.189 43.4232Z" fill="#2D8EFF"/>
<path d="M113.103 51.9878C113.266 52.9138 114.345 53.6805 115.274 53.5111C116.294 53.3335 116.978 52.3605 116.797 51.34C116.62 50.3194 115.647 49.6363 114.626 49.8167C113.605 49.9943 112.922 50.9673 113.103 51.9878Z" fill="#2D8EFF"/>
<path d="M101.847 98.8754C101.089 98.1675 99.9029 98.2101 99.195 98.968C98.4899 99.7256 98.5324 100.914 99.29 101.619C100.187 102.319 101.07 102.288 101.942 101.527C102.647 100.766 102.607 99.5806 101.847 98.8754Z" fill="#2D8EFF"/>
<path d="M115.098 70.7101C114.081 70.51 113.095 71.1731 112.895 72.1884C112.689 73.2482 113.672 74.4271 114.738 74.4271C115.616 74.4271 116.401 73.8067 116.577 72.9138C116.777 71.896 116.114 70.9104 115.098 70.7101Z" fill="#2D8EFF"/>
<path d="M63.4736 116.282V116.28C62.4406 116.365 61.6702 117.267 61.7527 118.301C61.8265 119.21 62.8365 120.113 63.7738 120.022C64.8068 119.939 65.5773 119.034 65.4947 118.001C65.4097 116.968 64.5042 116.197 63.4736 116.282Z" fill="#2D8EFF"/>
<path d="M82.954 110.977C82.0213 111.43 81.6333 112.55 82.0861 113.483C82.5138 114.362 83.7164 114.785 84.5924 114.351C85.5254 113.898 85.9131 112.778 85.4606 111.845C85.0076 110.914 83.887 110.524 82.954 110.977Z" fill="#2D8EFF"/>
<path d="M73.4612 114.536C72.4607 114.809 71.8706 115.839 72.143 116.84C72.3947 117.763 73.5293 118.408 74.4468 118.158C76.8225 117.422 75.88 113.969 73.4612 114.536Z" fill="#2D8EFF"/>
<path d="M94.8276 15.0553C94.8251 15.0553 94.8251 15.0553 94.8251 15.0553C94.0072 14.4227 92.8293 14.575 92.1937 15.3932C91.5609 16.2134 91.7135 17.3918 92.5337 18.0246C93.4572 18.6435 94.3344 18.5312 95.1653 17.687C95.7982 16.8665 95.6458 15.6884 94.8276 15.0553Z" fill="#2D8EFF"/>
<path d="M91.6285 105.724C90.7955 106.339 90.6207 107.515 91.236 108.348C92.0569 109.207 92.9314 109.338 93.8596 108.74C94.6926 108.125 94.8677 106.949 94.2523 106.117C93.6373 105.284 92.4614 105.109 91.6285 105.724Z" fill="#2D8EFF"/>
<path d="M53.3255 116.172V116.169C52.2949 116.064 51.3744 116.815 51.2671 117.845C51.1653 118.843 52.1293 119.914 53.1356 119.914C54.0861 119.914 54.9016 119.194 55.0016 118.228C55.1067 117.198 54.3563 116.277 53.3255 116.172Z" fill="#2D8EFF"/>
<path d="M93.1137 61.8919C93.1137 59.7215 92.1672 57.7682 90.6654 56.4224C93.8796 53.5359 93.8839 48.3451 90.6654 45.4611C93.8792 42.575 93.8842 37.3853 90.6667 34.501C95.2461 30.3955 92.8391 22.5003 86.6981 21.7219V7.52027C86.6981 3.37356 83.3245 0 79.178 0H55.4078C52.9823 0 52.9823 3.75201 55.4078 3.75201H79.178C81.2559 3.75201 82.946 5.44266 82.946 7.52027V8.51305H36.6263V7.52027C36.6263 5.44216 38.3169 3.75201 40.3945 3.75201H45.1561C47.5816 3.75201 47.5816 0 45.1561 0H40.3945C36.2478 0 32.8742 3.37356 32.8742 7.52027V34.9835C27.767 31.7285 20.8651 35.577 20.8651 41.6173V85.6081L17.3524 89.1367C13.5364 87.3542 8.81937 88.2062 5.85303 91.1863C1.89241 95.1647 1.89241 101.638 5.85303 105.617L17.4645 117.281C19.1757 119 21.8346 116.354 20.1237 114.634L8.51221 102.97C6.00461 100.451 6.00461 96.3521 8.51221 93.8332C10.9795 91.3546 15.1498 91.3681 17.6033 93.8332L36.9699 113.288C39.477 115.807 39.477 119.906 36.9699 122.425C34.1029 125.305 29.6453 124.645 27.1439 121.687C25.4325 119.967 22.7738 122.615 24.4848 124.334C33.4248 133.785 47.6024 123.246 40.8683 112.15L44.2481 108.755C54.4008 109.529 64.2585 103.925 68.8125 94.8105H79.178C83.3245 94.8105 86.6981 91.4369 86.6981 87.2902V69.2023C90.311 68.7443 93.1137 65.6496 93.1137 61.8919ZM89.3617 61.9166C89.3617 63.8974 87.7504 65.5088 85.7696 65.5088H82.4941C77.724 65.3099 77.7245 58.4978 82.4941 58.2994H85.7696C87.7501 58.2994 89.3617 59.9111 89.3617 61.9166ZM89.3617 50.9553C89.3617 52.9361 87.7504 54.5474 85.7696 54.5474H82.4941C77.724 54.3486 77.7245 47.5364 82.4941 47.3381H85.7696C87.7501 47.3381 89.3617 48.9494 89.3617 50.9553ZM89.3617 39.9939C89.3617 41.9747 87.7504 43.5861 85.7696 43.5861H82.4941C77.724 43.3872 77.7245 36.5751 82.4941 36.3767H85.7696C87.7501 36.3767 89.3617 37.9881 89.3617 39.9939ZM89.3617 29.0073C89.2979 30.9275 87.7541 32.6247 85.7696 32.6247H82.4941C77.7243 32.4261 77.7245 25.6137 82.4941 25.4153H85.7696C87.7501 25.4151 89.3617 27.0267 89.3617 29.0073ZM82.946 12.2651V21.6631C75.9641 21.3207 72.4664 29.876 77.5967 34.5005C74.3517 37.3175 74.3529 42.6461 77.5967 45.4618C74.3517 48.2788 74.3529 53.6074 77.5967 56.4232C72.4644 61.0512 75.9681 69.6032 82.946 69.2606V78.6586H47.374C46.1861 72.2594 42.4974 66.2489 36.6263 63.1846V12.2651H82.946ZM46.2196 105.091L43.5922 104.968C43.0667 104.947 42.5487 105.144 42.1755 105.519L38.3527 109.359L20.4346 91.3591L24.0708 87.7062C24.4207 87.3547 24.6173 86.8787 24.6173 86.3827V41.6173C24.6173 36.3332 32.7642 36.3332 32.7642 41.6173V64.3154C32.7642 65.0633 33.2084 65.7399 33.895 66.0371C38.3647 67.9711 41.6717 71.9763 43.2068 77.3146C44.9382 83.3363 44.0147 89.9839 40.7967 94.6634C39.4618 96.6044 42.4539 98.8752 43.8881 96.7895C44.3226 96.1577 44.7221 95.4966 45.0863 94.8107H64.5269C60.6236 101.191 53.7912 105.076 46.2196 105.091ZM79.178 91.0587H46.6529C47.5166 88.3283 47.906 85.3764 47.7915 82.4111H82.946V87.2905C82.946 89.3681 81.2559 91.0587 79.178 91.0587Z" fill="#443F48"/>
<path d="M41.9864 26.4809C42.8754 27.2021 43.7596 27.1906 44.6391 26.4462L50.1303 20.8096C51.8229 19.0725 49.135 16.4536 47.4428 18.1915L41.9516 23.828C41.2287 24.5704 41.2445 25.758 41.9864 26.4809Z" fill="#2D8EFF"/>
<path d="M41.9864 38.5426C42.8754 39.2638 43.7596 39.2523 44.6391 38.5079L61.8805 20.8096C63.5732 19.0725 60.8853 16.4536 59.1931 18.1915L41.9516 35.8897C41.2287 36.6319 41.2445 37.8195 41.9864 38.5426Z" fill="#2D8EFF"/>
</svg>
