<svg width="128" height="100" viewBox="0 0 128 100" fill="none" xmlns="http://www.w3.org/2000/svg">
<path d="M128 87.1528V0.450394H0V87.1528H49.537V95.4173H26.8346V99.5496H49.537H78.4378H101.14V95.4173H78.4378V87.1528H128ZM4.13228 4.55748H123.868V66.4913H4.13228V4.55748ZM74.3307 95.4173H53.6693V87.1528H74.3307V95.4173ZM49.537 83.0205H4.13228V70.6236H123.868V83.0205H78.463H49.537Z" fill="#443F48"/>
<path d="M66.0662 74.7559H61.9339V78.8882H66.0662V74.7559Z" fill="#2D8EFF"/>
<path d="M74.3307 74.7559H70.1984V78.8882H74.3307V74.7559Z" fill="#2D8EFF"/>
<path d="M57.8016 74.7559H53.6693V78.8882H57.8016V74.7559Z" fill="#2D8EFF"/>
<path d="M101.14 12.822C97.1591 12.822 93.9087 16.0724 93.9087 20.0535C93.9087 21.5653 94.3874 22.9764 95.1685 24.1354L75.2126 44.0913C74.5827 43.9149 73.9528 43.789 73.2725 43.789C72.5921 43.789 71.9622 43.9149 71.3323 44.0913L56.063 28.822C57.1213 27.5622 57.8016 25.9496 57.8016 24.1858C57.8016 20.2047 54.5512 16.9543 50.5701 16.9543C46.589 16.9543 43.3386 20.2047 43.3386 24.1858C43.3386 25.9496 43.9937 27.5622 45.0772 28.822L31.2693 42.6299C30.2362 42.0756 29.1024 41.7228 27.8677 41.7228C23.8866 41.7228 20.6362 44.9732 20.6362 48.9543C20.6362 52.9354 23.8866 56.1858 27.8677 56.1858C31.8488 56.1858 35.0992 52.9354 35.0992 48.9543C35.0992 47.7197 34.7465 46.5606 34.1921 45.5527L48.6299 31.1149C49.2599 31.2913 49.8898 31.4173 50.5701 31.4173C51.2504 31.4173 51.8803 31.2913 52.5102 31.1149L67.7795 46.3842C66.7213 47.6441 66.041 49.2567 66.041 51.0205C66.041 55.0016 69.2914 58.2519 73.2725 58.2519C77.2536 58.2519 80.504 55.0016 80.504 51.0205C80.504 49.2567 79.8488 47.6441 78.7654 46.3842L98.4189 26.7307C99.2504 27.0835 100.183 27.285 101.14 27.285C105.121 27.285 108.372 24.0346 108.372 20.0535C108.372 16.0724 105.121 12.822 101.14 12.822ZM27.8677 52.0535C26.1543 52.0535 24.7685 50.6677 24.7685 48.9543C24.7685 47.2409 26.1543 45.8551 27.8677 45.8551C29.5811 45.8551 30.9669 47.2409 30.9669 48.9543C30.9669 50.6677 29.5811 52.0535 27.8677 52.0535ZM50.5701 27.285C48.8567 27.285 47.4709 25.8992 47.4709 24.1858C47.4961 22.4724 48.8819 21.0866 50.5701 21.0866C52.2835 21.0866 53.6693 22.4724 53.6693 24.1858C53.6693 25.8992 52.2835 27.285 50.5701 27.285ZM73.2977 54.1197C71.5843 54.1197 70.1984 52.7338 70.1984 51.0205C70.1984 49.3071 71.5843 47.9212 73.2977 47.9212C75.011 47.9212 76.3969 49.3071 76.3969 51.0205C76.3969 52.7338 75.011 54.1197 73.2977 54.1197ZM101.165 23.1527C99.452 23.1527 98.0662 21.7669 98.0662 20.0535C98.0662 18.3401 99.452 16.9543 101.165 16.9543C102.879 16.9543 104.265 18.3401 104.265 20.0535C104.265 21.7669 102.879 23.1527 101.165 23.1527Z" fill="#2D8EFF"/>
</svg>
