<svg width="105" height="117" viewBox="0 0 105 117" fill="none" xmlns="http://www.w3.org/2000/svg">
<path d="M43.5335 -5.34058e-05H61.4667V4.02364H54.5125V13.4893C68.0082 14.0062 80.1849 19.6887 89.1123 28.6161C98.4779 37.9851 104.273 50.9308 104.273 65.2265C104.273 79.5207 98.4779 92.4664 89.1123 101.835C79.743 111.205 66.7973 117 52.4999 117C38.2059 117 25.2601 111.205 15.8911 101.835C6.52208 92.4664 0.726562 79.5207 0.726562 65.2265C0.726562 50.9308 6.52208 37.9851 15.8911 28.6161C24.8183 19.6887 36.9919 14.0062 50.4905 13.4893V4.02364H43.5335V-5.34058e-05ZM52.4999 26.6164C63.1615 26.6164 72.8152 30.9396 79.802 37.926C86.7888 44.9128 91.1083 54.5666 91.1083 65.2265C91.1083 75.8847 86.7888 85.5387 79.802 92.5253C72.8152 99.512 63.1615 103.835 52.4999 103.835C41.8416 103.835 32.1879 99.512 25.2012 92.5253C18.2146 85.5387 13.8916 75.8847 13.8916 65.2265C13.8916 54.5666 18.2146 44.9128 25.2012 37.926C32.1879 30.9396 41.8416 26.6164 52.4999 26.6164ZM79.0887 38.6364C72.2887 31.8326 62.8833 27.623 52.4999 27.623C42.1164 27.623 32.7147 31.8326 25.9114 38.6364C19.1079 45.4381 14.8995 54.8414 14.8995 65.2265C14.8995 75.61 19.1079 85.0134 25.9114 91.8152C32.7147 98.6187 42.1164 102.829 52.4999 102.829C62.8833 102.829 72.2887 98.6187 79.0887 91.8152C85.8954 85.0134 90.1038 75.61 90.1038 65.2265C90.1038 54.8414 85.8954 45.4381 79.0887 38.6364ZM86.2686 31.4582C77.626 22.8189 65.6881 17.4733 52.4999 17.4733C39.312 17.4733 27.3741 22.8189 18.7316 31.4582C10.0923 40.0975 4.7484 52.0387 4.7484 65.2265C4.7484 78.4129 10.0923 90.3524 18.7316 98.9933C27.3741 107.633 39.3153 112.978 52.4999 112.978C65.6881 112.978 77.626 107.633 86.2686 98.9933C94.9079 90.3524 100.251 78.4129 100.251 65.2265C100.251 52.0387 94.9079 40.0975 86.2686 31.4582Z" fill="#2D8EFF"/>
<path opacity="0.5" d="M53 65H91C91 44.0132 73.9868 27 53 27V65Z" fill="#2D8EFF"/>
</svg>
