<?xml version="1.0" encoding="utf-8"?><svg viewBox="0 0 62 62" xmlns="http://www.w3.org/2000/svg" xmlns:xlink="http://www.w3.org/1999/xlink"><style>:root>svg{display:none}:root>svg:target{display:block}</style><svg viewBox="0 0 30 18" id="angle" xmlns="http://www.w3.org/2000/svg"><g clip-path="url(#aclip0_46_682)"><path d="M16.07 16.82L29.558 3.33a1.52 1.52 0 000-2.145 1.511 1.511 0 00-2.14 0L15.001 13.606 2.585 1.186a1.513 1.513 0 00-2.142 0 1.52 1.52 0 000 2.145l13.486 13.491a1.528 1.528 0 002.142-.001z" fill="inherit"/></g><defs><clipPath id="aclip0_46_682"><path fill="#fff" transform="rotate(90 15 15)" d="M0 0h18v30H0z"/></clipPath></defs></svg><svg viewBox="0 0 62 62" id="arr-circ_right"><path d="M59.599 31C59.599 15.205 46.795 2.401 31 2.401S2.401 15.205 2.401 31s12.804 28.599 28.6 28.599c15.794 0 28.598-12.804 28.598-28.599z" fill="inherit"/><path d="M62 31c0 17.092-13.906 31-31 31C13.908 62 0 48.092 0 31 0 13.906 13.908 0 31 0c17.094 0 31 13.906 31 31zM4.802 31c0 14.446 11.752 26.197 26.198 26.197S57.197 45.447 57.197 31 45.444 4.802 31 4.802C16.554 4.802 4.802 16.554 4.802 31z" fill="var(--border-color)"/><path d="M23.699 44.53a2.4 2.4 0 010-3.385L34 30.843 23.7 20.542a2.403 2.403 0 01.262-3.386 2.4 2.4 0 013.124 0L39.09 29.162a2.4 2.4 0 010 3.386L27.085 44.554a2.4 2.4 0 01-3.386-.024z" fill="var(--arr-color)"/></svg><svg viewBox="0 0 55 54" id="arr-circ_right-fill" xmlns="http://www.w3.org/2000/svg"><path d="M27.047 0c-14.889 0-27 12.112-27 27s12.111 27 27 27c14.888 0 27-12.112 27-27s-12.112-27-27-27zm8.34 28.59l-11.25 11.25a2.244 2.244 0 01-1.59.66 2.24 2.24 0 01-1.591-.66 2.247 2.247 0 010-3.18l9.66-9.66-9.66-9.66a2.247 2.247 0 010-3.18c.88-.88 2.302-.88 3.181 0l11.25 11.25c.88.879.88 2.301 0 3.18z" fill="inherit"/></svg><svg viewBox="0 0 28 14" id="arr-right" xmlns="http://www.w3.org/2000/svg"><path d="M1.094 5.906h23.163L20.42 2.088a1.094 1.094 0 111.543-1.55l5.715 5.687h.001a1.096 1.096 0 010 1.55l-5.716 5.688a1.094 1.094 0 11-1.543-1.55l3.837-3.82H1.094a1.094 1.094 0 110-2.187z" fill="inherit"/></svg><svg viewBox="0 0 16 28" id="arr-tr-right" xmlns="http://www.w3.org/2000/svg"><path d="M4.091 1.16A2.25 2.25 0 00.909 4.34L10.568 14 .909 23.658a2.25 2.25 0 003.182 3.182l11.25-11.25a2.25 2.25 0 000-3.182L4.091 1.16z" fill="inherit"/></svg><svg viewBox="0 0 23 20" id="basket" xmlns="http://www.w3.org/2000/svg"><path d="M18.467 15.074H9.522c-1.06 0-2-.71-2.284-1.728L4.214 2.791a1.424 1.424 0 00-1.37-1.035H.476a.476.476 0 010-.951h2.368c1.06 0 2 .71 2.284 1.727l.597 2.078h15.677c.456 0 .873.21 1.145.575s.352.825.221 1.26l-2.046 6.993a2.375 2.375 0 01-2.255 1.636zM5.997 5.56l2.156 7.527c.17.61.733 1.035 1.369 1.035h8.945c.603 0 1.156-.4 1.347-.969l2.044-6.98a.471.471 0 00-.074-.42.468.468 0 00-.382-.193H5.997zm4.467 14.27a1.904 1.904 0 01-1.903-1.902c0-1.05.854-1.903 1.903-1.903s1.902.853 1.902 1.902c0 1.05-.853 1.903-1.902 1.903zm0-2.854a.952.952 0 000 1.903.952.952 0 000-1.903zm6.658 2.854a1.904 1.904 0 01-1.902-1.902c0-1.05.853-1.903 1.902-1.903 1.05 0 1.903.853 1.903 1.902 0 1.05-.853 1.903-1.902 1.903zm0-2.854a.952.952 0 000 1.903.952.952 0 000-1.903z" fill="inherit"/></svg><svg viewBox="0 0 16 16" id="checked" xmlns="http://www.w3.org/2000/svg"><path d="M15.543 2.187a.603.603 0 00-.853 0L7.456 9.4l-2.61-2.834a.603.603 0 00-.888.816l3.036 3.297a.602.602 0 00.869.018L15.54 3.04a.603.603 0 00.002-.853z" fill="inherit"/><path d="M15.397 7.397a.603.603 0 00-.603.603A6.802 6.802 0 018 14.794 6.802 6.802 0 011.206 8 6.802 6.802 0 018 1.206.603.603 0 108 0C3.589 0 0 3.589 0 8s3.589 8 8 8 8-3.589 8-8a.603.603 0 00-.603-.603z" fill="inherit"/></svg><svg viewBox="0 0 15 15" id="circ-check" xmlns="http://www.w3.org/2000/svg"><circle cx="7.5" cy="7.5" r="6.5" stroke="inherit" stroke-width="2"/><g clip-path="url(#hclip0)"><path fill="#fff" d="M4 4h7v7H4z"/><path d="M10.795 6.15L7.102 9.841a.7.7 0 01-.99 0L4.204 7.935a.7.7 0 01.99-.99l1.412 1.41 3.197-3.197a.7.7 0 01.991.991z" fill="inherit"/></g><defs><clipPath id="hclip0"><path fill="#fff" transform="translate(4 4)" d="M0 0h7v7H0z"/></clipPath></defs></svg><svg viewBox="0 0 16 16" id="clock_fill" xmlns="http://www.w3.org/2000/svg"><path d="M8 0C3.589 0 0 3.589 0 8s3.589 8 8 8 8-3.589 8-8-3.589-8-8-8zm3.805 12.138a.665.665 0 01-.943 0L7.53 8.805a.664.664 0 01-.196-.472V4a.666.666 0 111.334 0v4.057l3.138 3.138c.26.261.26.682 0 .943z" fill="inherit"/></svg><svg viewBox="0 0 35 35" id="copy"><path fill-rule="evenodd" clip-rule="evenodd" d="M0 7.93v25.498C0 34.318.683 35 1.572 35H27.07c.903 0 1.572-.757 1.572-1.504V17.5c0-.96-.76-1.614-1.63-1.597-.93.018-1.582.732-1.582 1.665v14.219H3.213V9.57h14.219c2.232 0 2.167-3.213.068-3.213H1.504c-.397 0-.834.244-1.047.458A1.542 1.542 0 000 7.93zm19.072-6.426c0 .918.61 1.544 1.392 1.684.485.087 8.121.025 8.999.025L13.518 19.192c-.522.519-.803.807-.803 1.59 0 .882 1.34 2.468 3.059.734L31.787 5.537c0 .9-.056 8.438.015 8.94C32.1 16.576 35 16.234 35 14.424V1.572C35 .682 34.317 0 33.428 0H20.576c-.764 0-1.504.746-1.504 1.504z" fill="inherit"/></svg><svg viewBox="0 0 28 35" id="delete-ic" xmlns="http://www.w3.org/2000/svg"><path d="M24.76 4.375h-5.794V3.281C18.966 1.47 17.55 0 15.805 0H11.59C9.844 0 8.43 1.469 8.43 3.281v1.094H2.633C1.18 4.375 0 5.599 0 7.109v2.188C0 9.9.472 10.39 1.054 10.39H26.34c.582 0 1.054-.49 1.054-1.094V7.109c0-1.51-1.18-2.734-2.634-2.734zM10.537 3.281c0-.603.473-1.094 1.054-1.094h4.215c.58 0 1.053.491 1.053 1.094v1.094h-6.322V3.281zM2 12.578a.336.336 0 00-.33.358l.87 18.939C2.62 33.627 4.007 35 5.697 35h16c1.69 0 3.078-1.373 3.158-3.125l.87-18.939a.336.336 0 00-.33-.358H2zm15.912 2.735c0-.605.472-1.094 1.054-1.094.582 0 1.053.49 1.053 1.094V29.53c0 .605-.471 1.094-1.053 1.094s-1.054-.49-1.054-1.094V15.313zm-5.268 0c0-.605.471-1.094 1.053-1.094.583 0 1.054.49 1.054 1.094V29.53c0 .605-.471 1.094-1.054 1.094-.582 0-1.053-.49-1.053-1.094V15.313zm-5.269 0c0-.605.472-1.094 1.054-1.094.582 0 1.054.49 1.054 1.094V29.53c0 .605-.472 1.094-1.054 1.094-.582 0-1.054-.49-1.054-1.094V15.313z" fill="inherit"/></svg><svg viewBox="0 0 23 24" id="heart" xmlns="http://www.w3.org/2000/svg"><g clip-path="url(#lclip0)"><path d="M16.354 2.53a6.415 6.415 0 00-4.941 2.282 6.327 6.327 0 00-4.94-2.282A6.472 6.472 0 000 9.002c0 6.125 10.69 12.106 11.124 12.338a.52.52 0 00.578 0c.433-.232 11.124-6.126 11.124-12.338a6.472 6.472 0 00-6.472-6.472zm-4.941 17.654C9.737 19.2 1.156 13.972 1.156 9.002a5.316 5.316 0 015.316-5.317 5.201 5.201 0 014.45 2.399.607.607 0 00.982 0 5.317 5.317 0 019.766 2.918c0 5.027-8.581 10.228-10.257 11.182z" fill="inherit"/></g><defs><clipPath id="lclip0"><path fill="#fff" transform="translate(0 .565)" d="M0 0h22.826v22.826H0z"/></clipPath></defs></svg><svg viewBox="0 0 38 36" id="heart-shadow" xmlns="http://www.w3.org/2000/svg"><path d="M29.937 8.264C28.591 6.804 26.745 6 24.737 6c-1.5 0-2.875.474-4.085 1.41A8.358 8.358 0 0019 9.135a8.353 8.353 0 00-1.652-1.725C16.138 6.474 14.764 6 13.263 6c-2.008 0-3.855.804-5.2 2.264C6.732 9.706 6 11.677 6 13.814c0 2.199.82 4.211 2.579 6.334 1.574 1.9 3.835 3.827 6.455 6.06.894.762 1.908 1.626 2.96 2.546a1.525 1.525 0 002.01 0c1.053-.92 2.068-1.785 2.963-2.548 2.619-2.231 4.88-4.159 6.455-6.058C31.18 18.025 32 16.013 32 13.814c0-2.137-.733-4.108-2.063-5.55z" fill="inherit"/></svg><svg viewBox="0 0 20 20" id="loupe" xmlns="http://www.w3.org/2000/svg"><g clip-path="url(#nclip0)" fill="inherit"><path d="M8.808 0C3.95 0 0 3.951 0 8.808c0 4.856 3.951 8.807 8.808 8.807 4.856 0 8.807-3.95 8.807-8.807S13.665 0 8.808 0zm0 15.99c-3.96 0-7.182-3.223-7.182-7.182 0-3.96 3.222-7.182 7.182-7.182 3.96 0 7.181 3.222 7.181 7.182 0 3.96-3.222 7.181-7.181 7.181z"/><path d="M19.762 18.612L15.1 13.951a.812.812 0 10-1.15 1.15l4.662 4.66a.81.81 0 001.15 0 .813.813 0 000-1.149z"/></g><defs><clipPath id="nclip0"><path fill="#fff" d="M0 0h20v20H0z"/></clipPath></defs></svg><svg viewBox="0 0 20 18" id="random-ic" xmlns="http://www.w3.org/2000/svg"><path d="M.74 4.202h2.965l2.599 3.559.932-1.208S4.634 2.96 4.446 2.72H.74c-.41 0-.741.396-.741.8 0 .405.332.681.74.681zm15.951 7.533c-.22-.219-.91-.161-1.132.057v2.042h-2.963l-2.62-3.585-.932 1.208 2.81 3.792h3.705v2.128c.221.218.912.121 1.132-.098l3.143-2.376a.556.556 0 000-.792l-3.143-2.377zM15.56 4.202v1.992c.221.219.912.31 1.132.091l3.143-2.376a.556.556 0 000-.792L16.691.74c-.22-.22-.91-.345-1.132-.127V2.72h-3.704l-8.15 11.114H.74c-.41 0-.741.276-.741.682 0 .404.332.8.74.8h3.706l8.15-11.114h2.963z" fill="inherit"/></svg><svg viewBox="0 0 49 48" id="sci__insta" xmlns="http://www.w3.org/2000/svg"><g clip-path="url(#pclip0_939:197)" fill="inherit"><path d="M48.496 14.056c-.112-2.54-.523-4.287-1.111-5.8a11.667 11.667 0 00-2.765-4.24 11.765 11.765 0 00-4.23-2.755c-1.522-.589-3.26-1-5.8-1.111C32.031.028 31.22 0 24.728 0c-6.49 0-7.303.028-9.853.14-2.54.112-4.287.523-5.8 1.111a11.665 11.665 0 00-4.24 2.765 11.77 11.77 0 00-2.755 4.23c-.588 1.523-.999 3.26-1.11 5.8-.122 2.56-.15 3.372-.15 9.862 0 6.491.028 7.303.14 9.853.112 2.54.523 4.287 1.111 5.8a11.789 11.789 0 002.764 4.24 11.766 11.766 0 004.231 2.755c1.522.588 3.26.999 5.8 1.111 2.55.112 3.362.14 9.853.14 6.49 0 7.303-.028 9.853-.14 2.54-.112 4.286-.523 5.799-1.111a12.228 12.228 0 006.995-6.995c.588-1.523 1-3.26 1.111-5.8.113-2.55.14-3.362.14-9.853 0-6.49-.009-7.303-.12-9.853zm-4.305 19.518c-.103 2.335-.495 3.596-.822 4.436a7.93 7.93 0 01-4.539 4.54c-.84.326-2.11.719-4.436.821-2.522.112-3.278.14-9.657.14-6.378 0-7.144-.028-9.656-.14-2.335-.102-3.596-.495-4.437-.822A7.356 7.356 0 017.9 40.766a7.432 7.432 0 01-1.784-2.746c-.327-.84-.72-2.11-.822-4.436-.112-2.522-.14-3.278-.14-9.657s.028-7.145.14-9.657c.103-2.335.495-3.595.822-4.436a7.266 7.266 0 011.793-2.746 7.421 7.421 0 012.746-1.783c.84-.327 2.11-.72 4.436-.822 2.521-.112 3.278-.14 9.657-.14 6.388 0 7.144.028 9.656.14 2.335.103 3.596.495 4.437.822 1.036.382 1.98.99 2.745 1.783a7.43 7.43 0 011.784 2.746c.327.84.72 2.11.822 4.436.112 2.522.14 3.278.14 9.657s-.028 7.126-.14 9.647z"/><path d="M24.727 11.627c-6.78 0-12.28 5.5-12.28 12.281 0 6.78 5.5 12.281 12.28 12.281 6.78 0 12.281-5.5 12.281-12.28 0-6.781-5.5-12.282-12.28-12.282zm0 20.248a7.968 7.968 0 010-15.933 7.967 7.967 0 010 15.933zM40.361 11.142a2.867 2.867 0 11-5.734 0 2.867 2.867 0 015.734 0z"/></g><defs><clipPath id="pclip0_939:197"><path fill="#fff" transform="translate(.735)" d="M0 0h47.807v47.807H0z"/></clipPath></defs></svg><svg fill="none" viewBox="0 0 16 16" id="sci__tg" xmlns="http://www.w3.org/2000/svg"><path d="M8 16A8 8 0 108 0a8 8 0 000 16z" fill="#039BE5"/><path d="M3.66 7.827l7.714-2.974c.358-.13.67.087.555.628l-1.313 6.187c-.097.439-.358.545-.723.339l-2-1.474-.964.929c-.107.107-.197.197-.404.197l.142-2.036 3.707-3.348c.161-.142-.036-.222-.249-.081l-4.58 2.884-1.975-.616c-.429-.136-.438-.429.09-.635z" fill="#fff"/></svg><svg fill="none" viewBox="0 0 28 28" id="sci__viber" xmlns="http://www.w3.org/2000/svg"><g clip-path="url(#rclip0)"><path d="M16.8 0h-5.6C5.795 0 1.398 4.397 1.398 9.801v4.2A9.805 9.805 0 007 22.86v4.678c0 .406.508.618.797.33l4.064-4.064h4.94c5.405 0 9.802-4.397 9.802-9.801v-4.2C26.602 4.396 22.205 0 16.8 0z" fill="#665CAC"/><path d="M8.4 22.859a9.805 9.805 0 01-5.601-8.857v-4.2C2.799 4.396 7.195 0 12.599 0h-1.4C5.796 0 1.4 4.397 1.4 9.801v4.2A9.805 9.805 0 007 22.859v4.678c0 .406.508.618.797.33l.603-.604V22.86z" fill="#523494"/><path d="M21.047 17.396l-.42-2.273a.467.467 0 00-.368-.373l-3.3-.66a.467.467 0 00-.421.128l-1.341 1.34c-2.26-1.012-3.513-2.268-4.616-4.624l1.336-1.337a.467.467 0 00.128-.421l-.66-3.3a.467.467 0 00-.373-.368l-2.273-.42a.468.468 0 00-.188.004c-.6.137-1.148.439-1.584.875-.755.755-1.043 1.856-.834 3.185.35 2.232 1.444 5.337 3.461 7.363l.028.027c2.024 2.016 5.13 3.11 7.36 3.46.282.045.553.066.812.066.968 0 1.779-.305 2.374-.9.436-.436.739-.984.875-1.584a.473.473 0 00.004-.188z" fill="#fff"/><path d="M11.46 10.054l.457-.457-.456.457zm5.078 4.163l-.461.461.46-.46z" fill="#E5E5E5"/><path d="M18.674 19.188c-.26 0-.53-.022-.811-.066-2.232-.351-5.338-1.445-7.361-3.46l-.028-.028c-2.017-2.025-3.11-5.13-3.461-7.362-.17-1.074-.013-1.999.451-2.713a3.268 3.268 0 00-.497.408c-.755.755-1.044 1.856-.834 3.185.35 2.232 1.444 5.337 3.461 7.363l.028.027c2.023 2.016 5.129 3.11 7.36 3.46.282.045.553.066.812.066.968 0 1.779-.305 2.374-.9a3.26 3.26 0 00.407-.497c-.527.342-1.169.517-1.9.517z" fill="#E5E5E5"/><path d="M14.934 7.934a.467.467 0 100 .934c1.029 0 1.866.837 1.866 1.867 0 .254.213.466.467.466a.471.471 0 00.467-.466c0-1.544-1.256-2.8-2.8-2.8z" fill="#fff"/><path d="M14.934 6.067c-.173 0-.347.01-.518.029a.467.467 0 10.102.928 3.738 3.738 0 014.127 4.126.471.471 0 00.412.515.471.471 0 00.515-.412 4.673 4.673 0 00-4.639-5.185z" fill="#fff"/><path d="M14.934 4.2a6.46 6.46 0 00-.502.02.467.467 0 00.07.93 5.607 5.607 0 015.882 6.877.471.471 0 00.331.558.471.471 0 00.578-.343 6.542 6.542 0 00-6.36-8.042z" fill="#fff"/></g><defs><clipPath id="rclip0"><path fill="#fff" d="M0 0h28v28H0z"/></clipPath></defs></svg><svg viewBox="0 0 48 28" id="sci__vk" xmlns="http://www.w3.org/2000/svg"><g clip-path="url(#sclip0_939:204)"><path d="M47.747 24.899a3.288 3.288 0 00-.162-.311c-.83-1.494-2.415-3.328-4.755-5.502l-.05-.05-.024-.024-.025-.025h-.025c-1.062-1.012-1.734-1.693-2.016-2.041-.515-.664-.63-1.336-.349-2.017.199-.514.946-1.6 2.24-3.26.68-.88 1.22-1.585 1.618-2.116 2.871-3.817 4.116-6.256 3.734-7.318l-.148-.248c-.1-.15-.357-.286-.772-.41-.415-.125-.946-.146-1.593-.063l-7.169.05c-.116-.041-.282-.038-.498.012l-.323.075-.125.063-.1.074c-.082.05-.173.137-.273.262-.1.124-.182.27-.248.435a40.636 40.636 0 01-2.664 5.6 53.005 53.005 0 01-1.693 2.676c-.514.755-.946 1.311-1.294 1.668a9.038 9.038 0 01-.946.858c-.282.217-.498.308-.647.274-.15-.033-.29-.066-.424-.1a1.656 1.656 0 01-.56-.609c-.14-.257-.236-.58-.286-.97a10.72 10.72 0 01-.087-1.009c-.007-.282-.004-.68.013-1.195s.025-.863.025-1.045c0-.631.012-1.315.037-2.054.025-.738.045-1.323.062-1.754.017-.432.025-.888.025-1.37 0-.48-.03-.858-.087-1.132a3.875 3.875 0 00-.26-.797 1.342 1.342 0 00-.511-.597 2.876 2.876 0 00-.834-.336c-.88-.2-2-.307-3.36-.324-3.087-.033-5.07.166-5.95.598a3.354 3.354 0 00-.945.746c-.299.365-.34.565-.125.598.996.149 1.7.506 2.116 1.07l.15.299c.115.215.232.597.348 1.145.116.547.19 1.153.224 1.816.082 1.212.082 2.249 0 3.112a37.072 37.072 0 01-.237 2.016c-.075.481-.187.871-.336 1.17-.15.299-.249.481-.299.547a.43.43 0 01-.124.125c-.216.082-.44.125-.672.125-.233 0-.515-.117-.846-.35a5.974 5.974 0 01-1.033-.957c-.357-.407-.76-.976-1.208-1.706a29.728 29.728 0 01-1.393-2.588l-.399-.722a62.166 62.166 0 01-1.02-2.029 39.112 39.112 0 01-1.145-2.576c-.133-.349-.332-.614-.597-.797l-.125-.074a1.704 1.704 0 00-.398-.212 2.642 2.642 0 00-.573-.162l-6.82.05c-.697 0-1.17.158-1.419.473l-.1.15c-.05.082-.074.215-.074.398 0 .182.05.406.15.672a82.148 82.148 0 003.247 6.77c1.17 2.174 2.187 3.925 3.05 5.252a61.999 61.999 0 002.638 3.758c.896 1.179 1.49 1.934 1.78 2.265.29.333.518.581.684.747l.623.597c.398.399.983.876 1.754 1.432a29.946 29.946 0 002.564 1.643c.938.539 2.029.979 3.273 1.319 1.245.34 2.456.477 3.635.41h2.862c.58-.05 1.02-.232 1.32-.547l.099-.125c.066-.099.128-.253.186-.46.058-.207.087-.436.087-.684a8.2 8.2 0 01.162-1.929c.124-.572.265-1.004.423-1.294a3.18 3.18 0 01.535-.734c.2-.2.341-.32.424-.361.083-.042.149-.07.199-.087.398-.133.866-.005 1.406.386.54.39 1.046.871 1.519 1.444a44.253 44.253 0 001.705 1.928c.664.714 1.244 1.244 1.742 1.593l.498.3c.332.198.764.381 1.295.547.53.166.994.207 1.393.124l6.372-.099c.63 0 1.12-.104 1.469-.311.348-.208.555-.436.622-.685.067-.249.07-.531.013-.847-.06-.314-.118-.535-.175-.659z" fill="inherit"/></g><defs><clipPath id="sclip0_939:204"><path fill="#fff" d="M0 0h48v28H0z"/></clipPath></defs></svg><svg fill="none" viewBox="0 0 16 16" id="sci__wp" xmlns="http://www.w3.org/2000/svg"><path d="M8.002 0h-.004C3.587 0 0 3.588 0 8a7.94 7.94 0 001.523 4.689l-.997 2.972 3.075-.983A7.93 7.93 0 008.002 16C12.413 16 16 12.411 16 8s-3.587-8-7.998-8z" fill="#4CAF50"/><path d="M12.657 11.297c-.193.545-.959.997-1.57 1.129-.418.089-.964.16-2.802-.602-2.351-.974-3.865-3.363-3.983-3.518-.113-.155-.95-1.265-.95-2.413s.583-1.707.818-1.947c.193-.197.512-.287.818-.287.099 0 .188.005.268.009.235.01.353.024.508.395.193.465.663 1.613.72 1.731.056.118.113.278.033.433-.075.16-.141.231-.259.367-.118.136-.23.24-.348.386-.108.127-.23.263-.094.498.136.23.606.997 1.298 1.613.893.795 1.617 1.049 1.876 1.157.193.08.423.061.564-.089.18-.193.4-.513.625-.828.16-.226.362-.254.574-.174.216.075 1.36.64 1.594.757.235.118.39.174.447.273.056.099.056.564-.137 1.11z" fill="#FAFAFA"/></svg><svg viewBox="0 0 51 34" id="sci__youtube" xmlns="http://www.w3.org/2000/svg"><path d="M49.165 5.427c-.573-2.048-2.252-3.662-4.382-4.213C40.893.19 25.329.19 25.329.19s-15.563 0-19.453.985c-2.089.55-3.81 2.205-4.382 4.252C.47 9.168.47 16.927.47 16.927s0 7.796 1.024 11.498c.573 2.048 2.252 3.662 4.382 4.214 3.931 1.024 19.453 1.024 19.453 1.024s15.563 0 19.454-.985c2.13-.551 3.809-2.166 4.382-4.214 1.024-3.74 1.024-11.498 1.024-11.498s.041-7.798-1.024-11.539z" fill="inherit"/><path d="M20.374 24.093l12.942-7.167L20.374 9.76v14.334z" fill="currentColor"/></svg><svg fill="none" viewBox="0 0 16 16" id="sci_tg" xmlns="http://www.w3.org/2000/svg"><path d="M8 16A8 8 0 108 0a8 8 0 000 16z" fill="#039BE5"/><path d="M3.66 7.827l7.714-2.974c.358-.13.67.087.555.628l-1.313 6.187c-.097.439-.358.545-.723.339l-2-1.474-.964.929c-.107.107-.197.197-.404.197l.142-2.036 3.707-3.348c.161-.142-.036-.222-.249-.081l-4.58 2.884-1.975-.616c-.429-.136-.438-.429.09-.635z" fill="#fff"/></svg><svg fill="none" viewBox="0 0 28 28" id="sci_viber" xmlns="http://www.w3.org/2000/svg"><g clip-path="url(#wclip0)"><path d="M16.8 0h-5.6C5.795 0 1.398 4.397 1.398 9.801v4.2A9.805 9.805 0 007 22.86v4.678c0 .406.508.618.797.33l4.064-4.064h4.94c5.405 0 9.802-4.397 9.802-9.801v-4.2C26.602 4.396 22.205 0 16.8 0z" fill="#665CAC"/><path d="M8.4 22.859a9.805 9.805 0 01-5.601-8.857v-4.2C2.799 4.396 7.195 0 12.599 0h-1.4C5.796 0 1.4 4.397 1.4 9.801v4.2A9.805 9.805 0 007 22.859v4.678c0 .406.508.618.797.33l.603-.604V22.86z" fill="#523494"/><path d="M21.047 17.396l-.42-2.273a.467.467 0 00-.368-.373l-3.3-.66a.467.467 0 00-.421.128l-1.341 1.34c-2.26-1.012-3.513-2.268-4.616-4.624l1.336-1.337a.467.467 0 00.128-.421l-.66-3.3a.467.467 0 00-.373-.368l-2.273-.42a.468.468 0 00-.188.004c-.6.137-1.148.439-1.584.875-.755.755-1.043 1.856-.834 3.185.35 2.232 1.444 5.337 3.461 7.363l.028.027c2.024 2.016 5.13 3.11 7.36 3.46.282.045.553.066.812.066.968 0 1.779-.305 2.374-.9.436-.436.739-.984.875-1.584a.473.473 0 00.004-.188z" fill="#fff"/><path d="M11.46 10.054l.457-.457-.456.457zm5.078 4.163l-.461.461.46-.46z" fill="#E5E5E5"/><path d="M18.674 19.188c-.26 0-.53-.022-.811-.066-2.232-.351-5.338-1.445-7.361-3.46l-.028-.028c-2.017-2.025-3.11-5.13-3.461-7.362-.17-1.074-.013-1.999.451-2.713a3.268 3.268 0 00-.497.408c-.755.755-1.044 1.856-.834 3.185.35 2.232 1.444 5.337 3.461 7.363l.028.027c2.023 2.016 5.129 3.11 7.36 3.46.282.045.553.066.812.066.968 0 1.779-.305 2.374-.9a3.26 3.26 0 00.407-.497c-.527.342-1.169.517-1.9.517z" fill="#E5E5E5"/><path d="M14.934 7.934a.467.467 0 100 .934c1.029 0 1.866.837 1.866 1.867 0 .254.213.466.467.466a.471.471 0 00.467-.466c0-1.544-1.256-2.8-2.8-2.8z" fill="#fff"/><path d="M14.934 6.067c-.173 0-.347.01-.518.029a.467.467 0 10.102.928 3.738 3.738 0 014.127 4.126.471.471 0 00.412.515.471.471 0 00.515-.412 4.673 4.673 0 00-4.639-5.185z" fill="#fff"/><path d="M14.934 4.2a6.46 6.46 0 00-.502.02.467.467 0 00.07.93 5.607 5.607 0 015.882 6.877.471.471 0 00.331.558.471.471 0 00.578-.343 6.542 6.542 0 00-6.36-8.042z" fill="#fff"/></g><defs><clipPath id="wclip0"><path fill="#fff" d="M0 0h28v28H0z"/></clipPath></defs></svg><svg fill="none" viewBox="0 0 16 16" id="sci_wp" xmlns="http://www.w3.org/2000/svg"><path d="M8.002 0h-.004C3.587 0 0 3.588 0 8a7.94 7.94 0 001.523 4.689l-.997 2.972 3.075-.983A7.93 7.93 0 008.002 16C12.413 16 16 12.411 16 8s-3.587-8-7.998-8z" fill="#4CAF50"/><path d="M12.657 11.297c-.193.545-.959.997-1.57 1.129-.418.089-.964.16-2.802-.602-2.351-.974-3.865-3.363-3.983-3.518-.113-.155-.95-1.265-.95-2.413s.583-1.707.818-1.947c.193-.197.512-.287.818-.287.099 0 .188.005.268.009.235.01.353.024.508.395.193.465.663 1.613.72 1.731.056.118.113.278.033.433-.075.16-.141.231-.259.367-.118.136-.23.24-.348.386-.108.127-.23.263-.094.498.136.23.606.997 1.298 1.613.893.795 1.617 1.049 1.876 1.157.193.08.423.061.564-.089.18-.193.4-.513.625-.828.16-.226.362-.254.574-.174.216.075 1.36.64 1.594.757.235.118.39.174.447.273.056.099.056.564-.137 1.11z" fill="#FAFAFA"/></svg><svg viewBox="0 0 23 23" id="user" xmlns="http://www.w3.org/2000/svg"><g clip-path="url(#yclip0)" fill="inherit"><path d="M11.415 0C5.121 0 0 5.12 0 11.415 0 17.709 5.12 22.83 11.415 22.83c6.294 0 11.415-5.12 11.415-11.415C22.83 5.121 17.71 0 11.415 0zm0 21.837C5.668 21.837.993 17.162.993 11.415.993 5.668 5.668.993 11.415.993c5.747 0 10.422 4.675 10.422 10.422 0 5.747-4.675 10.422-10.422 10.422z"/><path d="M11.415 10.919a6.46 6.46 0 00-6.452 6.452.497.497 0 00.993 0 5.465 5.465 0 015.459-5.46c3.01 0 5.46 2.449 5.46 5.46a.496.496 0 00.992 0 6.46 6.46 0 00-6.452-6.452zm0-7.941a3.478 3.478 0 00-3.474 3.474 3.478 3.478 0 003.474 3.474 3.478 3.478 0 003.474-3.474 3.478 3.478 0 00-3.474-3.474zm0 5.955a2.485 2.485 0 01-2.482-2.481 2.485 2.485 0 012.482-2.482 2.485 2.485 0 012.482 2.482 2.485 2.485 0 01-2.482 2.481z"/></g><defs><clipPath id="yclip0"><path fill="#fff" d="M0 0h22.83v22.83H0z"/></clipPath></defs></svg></svg>