<?xml version="1.0" encoding="utf-8"?><svg viewBox="0 0 14 14" xmlns="http://www.w3.org/2000/svg" xmlns:xlink="http://www.w3.org/1999/xlink"><style>:root>svg{display:none}:root>svg:target{display:block}</style><svg viewBox="0 0 14 14" id="firm-info__clock" xmlns="http://www.w3.org/2000/svg"><path d="M7 14c-3.86 0-7-3.14-7-7s3.14-7 7-7 7 3.14 7 7-3.14 7-7 7zM7 .583A6.424 6.424 0 00.583 7 6.424 6.424 0 007 13.417 6.424 6.424 0 0013.417 7 6.424 6.424 0 007 .583z" fill="inherit"/><path d="M10.208 10.5a.293.293 0 01-.206-.085L6.794 7.207A.294.294 0 016.708 7V2.625a.292.292 0 01.584 0V6.88l3.123 3.124a.292.292 0 01-.207.497z" fill="inherit"/></svg><svg viewBox="0 0 14 10" id="firm-info__mail" xmlns="http://www.w3.org/2000/svg"><path d="M13.125.333H.875A.876.876 0 000 1.208v7.584c0 .482.393.875.875.875h12.25A.876.876 0 0014 8.792V1.209a.876.876 0 00-.875-.876zm.292 8.459c0 .16-.131.292-.292.292H.875a.292.292 0 01-.292-.292V1.209c0-.161.131-.292.292-.292h12.25c.161 0 .292.13.292.291v7.584z"/><path d="M13.797.65a.291.291 0 00-.407-.065L7.514 4.833a.874.874 0 01-1.03-.001L.611.585a.291.291 0 10-.342.473l5.873 4.247a1.456 1.456 0 001.715 0l5.875-4.248a.292.292 0 00.066-.407z" fill="inherit"/><path d="M6.456 4.829a.292.292 0 00-.408-.065L.277 8.953a.293.293 0 00.343.472l5.771-4.189a.293.293 0 00.065-.407zM13.723 8.953l-5.77-4.19a.291.291 0 10-.343.473l5.77 4.19a.292.292 0 10.343-.473z" fill="inherit"/></svg><svg viewBox="0 0 14 14" id="firm-info__tel" xmlns="http://www.w3.org/2000/svg"><path d="M7 14A7 7 0 107 0a7 7 0 000 14z" fill="inherit"/><path d="M10.5 8.447a4.83 4.83 0 01-2.14-.489.441.441 0 00-.586.203l-.315.652a6.16 6.16 0 01-2.272-2.272l.653-.315a.438.438 0 00.203-.587 4.814 4.814 0 01-.49-2.139.438.438 0 00-.438-.438H3.5a.438.438 0 00-.438.438c0 4.101 3.337 7.438 7.438 7.438a.438.438 0 00.438-.438V8.885a.438.438 0 00-.438-.438z" fill="#F7F7F7"/></svg></svg>