<svg width="23" height="20" xmlns="http://www.w3.org/2000/svg"><path d="M18.467 15.074H9.522c-1.06 0-2-.71-2.284-1.728L4.214 2.791a1.424 1.424 0 00-1.37-1.035H.476a.476.476 0 010-.951h2.368c1.06 0 2 .71 2.284 1.727l.597 2.078h15.677c.456 0 .873.21 1.145.575s.352.825.221 1.26l-2.046 6.993a2.375 2.375 0 01-2.255 1.636zM5.997 5.56l2.156 7.527c.17.61.733 1.035 1.369 1.035h8.945c.603 0 1.156-.4 1.347-.969l2.044-6.98a.471.471 0 00-.074-.42.468.468 0 00-.382-.193H5.997zm4.467 14.27a1.904 1.904 0 01-1.903-1.902c0-1.05.854-1.903 1.903-1.903s1.902.853 1.902 1.902c0 1.05-.853 1.903-1.902 1.903zm0-2.854a.952.952 0 000 1.903.952.952 0 000-1.903zm6.658 2.854a1.904 1.904 0 01-1.902-1.902c0-1.05.853-1.903 1.902-1.903 1.05 0 1.903.853 1.903 1.902 0 1.05-.853 1.903-1.902 1.903zm0-2.854a.952.952 0 000 1.903.952.952 0 000-1.903z" fill="inherit"/></svg>