<svg width="23" height="24" xmlns="http://www.w3.org/2000/svg"><g clip-path="url(#clip0)"><path d="M16.354 2.53a6.415 6.415 0 00-4.941 2.282 6.327 6.327 0 00-4.94-2.282A6.472 6.472 0 000 9.002c0 6.125 10.69 12.106 11.124 12.338a.52.52 0 00.578 0c.433-.232 11.124-6.126 11.124-12.338a6.472 6.472 0 00-6.472-6.472zm-4.941 17.654C9.737 19.2 1.156 13.972 1.156 9.002a5.316 5.316 0 015.316-5.317 5.201 5.201 0 014.45 2.399.607.607 0 00.982 0 5.317 5.317 0 019.766 2.918c0 5.027-8.581 10.228-10.257 11.182z" fill="inherit"/></g><defs><clipPath id="clip0"><path fill="#fff" transform="translate(0 .565)" d="M0 0h22.826v22.826H0z"/></clipPath></defs></svg>