<svg width="38" height="36" xmlns="http://www.w3.org/2000/svg"><path d="M29.937 8.264C28.591 6.804 26.745 6 24.737 6c-1.5 0-2.875.474-4.085 1.41A8.358 8.358 0 0019 9.135a8.353 8.353 0 00-1.652-1.725C16.138 6.474 14.764 6 13.263 6c-2.008 0-3.855.804-5.2 2.264C6.732 9.706 6 11.677 6 13.814c0 2.199.82 4.211 2.579 6.334 1.574 1.9 3.835 3.827 6.455 6.06.894.762 1.908 1.626 2.96 2.546a1.525 1.525 0 002.01 0c1.053-.92 2.068-1.785 2.963-2.548 2.619-2.231 4.88-4.159 6.455-6.058C31.18 18.025 32 16.013 32 13.814c0-2.137-.733-4.108-2.063-5.55z" fill="inherit"/></svg>