<svg width="23" height="23" xmlns="http://www.w3.org/2000/svg"><g clip-path="url(#clip0)" fill="inherit"><path d="M11.415 0C5.121 0 0 5.12 0 11.415 0 17.709 5.12 22.83 11.415 22.83c6.294 0 11.415-5.12 11.415-11.415C22.83 5.121 17.71 0 11.415 0zm0 21.837C5.668 21.837.993 17.162.993 11.415.993 5.668 5.668.993 11.415.993c5.747 0 10.422 4.675 10.422 10.422 0 5.747-4.675 10.422-10.422 10.422z"/><path d="M11.415 10.919a6.46 6.46 0 00-6.452 6.452.497.497 0 00.993 0 5.465 5.465 0 015.459-5.46c3.01 0 5.46 2.449 5.46 5.46a.496.496 0 00.992 0 6.46 6.46 0 00-6.452-6.452zm0-7.941a3.478 3.478 0 00-3.474 3.474 3.478 3.478 0 003.474 3.474 3.478 3.478 0 003.474-3.474 3.478 3.478 0 00-3.474-3.474zm0 5.955a2.485 2.485 0 01-2.482-2.481 2.485 2.485 0 012.482-2.482 2.485 2.485 0 012.482 2.482 2.485 2.485 0 01-2.482 2.481z"/></g><defs><clipPath id="clip0"><path fill="#fff" d="M0 0h22.83v22.83H0z"/></clipPath></defs></svg>