<svg width="64" height="64" viewBox="0 0 64 64" xmlns="http://www.w3.org/2000/svg">
<circle cx="32" cy="32" r="32" fill="inherit"/>
<g clip-path="url(#clip0)">
<path d="M43.5539 42.6027H19.3775C19.3143 42.6027 19.2524 42.5977 19.192 42.5887C17.2714 42.4782 15.4825 41.6653 14.1415 40.2896C12.7604 38.8732 12 37.0085 12 35.0394C12 33.1304 12.7207 31.308 14.0289 29.9072C15.1112 28.7489 16.515 27.9635 18.0525 27.6416C18.5921 25.1823 19.9193 22.9448 21.8505 21.2669C24.0311 19.3716 26.8326 18.3281 29.7382 18.3281C33.8294 18.3281 37.5806 20.3698 39.7749 23.7243C40.8544 23.3311 41.9893 23.1325 43.1617 23.1325C48.5866 23.1325 53 27.4999 53 32.8676C53 35.3935 52.0266 37.7877 50.2589 39.6092C48.5375 41.3831 46.2372 42.4357 43.7663 42.5843C43.6975 42.5965 43.6265 42.6027 43.5539 42.6027ZM19.5036 40.1957H43.4053C43.4369 40.192 43.4685 40.1891 43.501 40.1876C47.4777 40.0118 50.593 36.7965 50.593 32.8676C50.593 28.8271 47.2594 25.5395 43.1617 25.5395C41.9836 25.5395 40.8575 25.8035 39.814 26.3237C39.2291 26.6153 38.5184 26.3869 38.2128 25.8089C36.559 22.6792 33.3117 20.7352 29.7382 20.7352C24.9858 20.7352 20.9181 24.232 20.2765 28.8697C20.1992 29.4268 19.7463 29.8562 19.1858 29.9038C16.506 30.1309 14.407 32.3865 14.407 35.0394C14.407 37.8159 16.6114 40.0784 19.4254 40.1901C19.4516 40.191 19.4776 40.1932 19.5036 40.1957Z" fill="white"/>
</g>
<defs>
<clipPath id="clip0">
<rect width="41" height="41" fill="white" transform="translate(12 10)"/>
</clipPath>
</defs>
</svg>
