<svg width="64" height="64" viewBox="0 0 64 64" xmlns="http://www.w3.org/2000/svg">
<circle cx="32" cy="32" r="32" fill="inherit"/>
<path d="M27.8594 37.7207H26.1936L27.2101 35.1794C27.4084 34.6836 27.1673 34.121 26.6716 33.9227C26.1757 33.7244 25.6131 33.9655 25.4148 34.4613L23.868 38.3284C23.6143 38.9625 24.0818 39.6543 24.7656 39.6543H26.4314L25.4149 42.1956C25.2166 42.6914 25.4577 43.254 25.9534 43.4523C26.4523 43.6518 27.0131 43.4063 27.2101 42.9138L28.757 39.0466C29.0106 38.4125 28.5431 37.7207 27.8594 37.7207Z" fill="white"/>
<path d="M22.123 26.248H30.502C31.5681 26.248 32.4355 25.3806 32.4355 24.3145V22.123C32.4355 21.0569 31.5681 20.1895 30.502 20.1895H22.123C21.0569 20.1895 20.1895 21.0569 20.1895 22.123V24.3145C20.1895 25.3806 21.0569 26.248 22.123 26.248ZM30.502 24.3145H26.3708L27.4665 22.123H30.502V24.3145ZM22.123 22.123H25.3048L24.2091 24.3145H22.123V22.123Z" fill="white"/>
<path d="M47.9688 18.6426H47.3887V16.9668C47.3887 16.4329 46.9558 16 46.4219 16C45.8879 16 45.4551 16.4329 45.4551 16.9668V18.6426H43.2637V16.9668C43.2637 16.4329 42.8308 16 42.2969 16C41.7629 16 41.3301 16.4329 41.3301 16.9668V18.6426H40.75C40.2161 18.6426 39.7832 19.0754 39.7832 19.6094C39.7832 22.1619 40.8911 25.0061 43.3926 25.6179V38.9453C43.3926 40.5446 42.0915 41.8457 40.4922 41.8457H34.498V31.3398C34.498 30.9734 34.4291 30.6231 34.3046 30.3C35.5946 30.0061 36.5605 28.8504 36.5605 27.4727V18.9004C36.5605 17.3011 35.2594 16 33.6602 16H18.9648C17.3656 16 16.0645 17.3011 16.0645 18.9004V27.4727C16.0645 28.8504 17.0304 30.0061 18.3204 30.3C18.1959 30.6231 18.127 30.9734 18.127 31.3398V46.0996C18.127 47.6989 19.4281 49 21.0273 49H31.5977C33.1969 49 34.498 47.6989 34.498 46.0996V43.7793H40.4922C43.1576 43.7793 45.3262 41.6108 45.3262 38.9453V25.6179C47.8275 25.0062 48.9355 22.1614 48.9355 19.6094C48.9355 19.0754 48.5027 18.6426 47.9688 18.6426ZM17.998 27.4727V18.9004C17.998 18.3673 18.4318 17.9336 18.9648 17.9336H33.6602C34.1932 17.9336 34.627 18.3673 34.627 18.9004V27.4727C34.627 28.0057 34.1932 28.4395 33.6602 28.4395C32.9771 28.4395 19.7018 28.4395 18.9648 28.4395C18.4318 28.4395 17.998 28.0057 17.998 27.4727ZM32.5645 46.0996C32.5645 46.6327 32.1307 47.0664 31.5977 47.0664H21.0273C20.4943 47.0664 20.0605 46.6327 20.0605 46.0996V31.3398C20.0605 30.8068 20.4943 30.373 21.0273 30.373H31.5977C32.1307 30.373 32.5645 30.8068 32.5645 31.3398V46.0996ZM44.3594 23.7988C42.7684 23.7988 42.0092 22.112 41.7879 20.5762H46.9309C46.7096 22.112 45.9503 23.7988 44.3594 23.7988Z" fill="white"/>
</svg>
