<svg width="64" height="64" viewBox="0 0 64 64" xmlns="http://www.w3.org/2000/svg">
<circle cx="32" cy="32" r="32" fill="inherit"/>
<path d="M43.4121 29.2481H34.4356L42.1864 15.6198C42.3773 15.2844 42.375 14.8726 42.1811 14.5389C41.9871 14.2052 41.63 14 41.2442 14H28.2363C27.7694 14 27.3547 14.2992 27.2077 14.7424L20.7038 34.3261C20.5939 34.6567 20.6496 35.0197 20.8534 35.3023C21.0572 35.5846 21.3841 35.752 21.7324 35.752H30.9313L25.0713 49.4906C24.8627 49.9799 25.0394 50.5478 25.4888 50.8321C25.9382 51.1163 26.5274 51.0325 26.8799 50.6348L44.2237 31.0508C44.8413 30.3529 44.3451 29.2481 43.4121 29.2481ZM29.6873 44.1949L33.5693 35.0934C33.8736 34.3798 33.3497 33.584 32.5723 33.584H23.2345L29.0185 16.168H39.3805L31.63 29.796C31.2201 30.5167 31.7409 31.416 32.5723 31.416H41.0042L29.6873 44.1949Z" fill="white"/>
</svg>
