<svg width="64" height="64" viewBox="0 0 64 64" xmlns="http://www.w3.org/2000/svg">
<circle cx="32" cy="32" r="32" fill="inherit"/>
<path d="M50.5325 22.8848L50.5244 22.8767C50.1913 22.5761 49.6795 22.5761 49.3627 22.8929C49.0458 23.2098 49.0458 23.7216 49.3627 24.0384C50.695 25.3708 50.695 27.5318 49.3627 28.8641C48.0303 30.1965 45.8693 30.1965 44.537 28.8641C44.5207 28.8479 44.5126 28.8397 44.4963 28.8316C43.2777 27.1256 41.7179 25.6957 39.9225 24.6315C41.7829 20.2445 39.7275 15.1832 35.3405 13.3309C30.9535 11.4786 25.8922 13.5258 24.0399 17.9128C23.6662 18.8065 23.4387 19.757 23.3737 20.7238C22.5126 20.4801 21.822 20.3663 21.2858 20.3826C20.4247 20.3907 19.791 20.9269 19.6935 21.7149C19.6366 22.0643 19.6773 22.5761 19.8641 24.2415L20.0347 25.8338C18.4749 27.1012 17.2482 28.5798 16.3626 30.2371L14.0066 30.7002C12.8368 30.9358 12 31.9675 12 33.1536V38.3774C12 39.5717 12.8368 40.5953 14.0066 40.8309L16.3708 41.3021C16.8338 42.212 17.4025 43.065 18.0687 43.8449C17.1913 46.0222 17.8412 48.5163 19.661 50.003C20.7415 50.8804 22.0982 51.3597 23.4875 51.3516C25.0717 51.3516 26.599 50.7504 27.7607 49.6699L28.3294 49.1337C30.4254 49.4506 32.5702 49.3774 34.6418 48.9387L35.4461 49.7105C36.5591 50.7585 38.0377 51.3435 39.565 51.3272H39.7356C39.7438 51.3272 39.7519 51.3272 39.76 51.3272C41.3523 51.2866 42.8634 50.6204 43.9683 49.4668C45.6743 47.6633 45.8774 44.9498 44.5288 42.8213C46.0562 40.6928 46.8605 38.2556 46.8605 35.7371V35.144C46.8605 35.1278 46.8605 35.1115 46.8605 35.0953C46.7873 33.8848 46.4705 32.6337 45.9181 31.3663C47.5835 31.7238 49.3221 31.212 50.5244 30.0015C52.4905 28.0355 52.4905 24.8508 50.5325 22.8848ZM31.9853 14.2651C35.8442 14.257 38.9801 17.3767 38.9882 21.2356C38.9963 23.5672 37.8346 25.7526 35.8929 27.0524C35.8279 27.1012 35.763 27.1987 35.7142 27.1987H28.2888C28.2563 27.1987 28.2157 27.1499 28.1751 27.1174C26.3309 25.9232 25.161 23.9328 24.9985 21.7474C24.9823 21.5606 24.9823 21.3981 24.9823 21.2518C24.9904 17.401 28.1182 14.2733 31.9853 14.2651ZM42.9528 42.2201C42.8147 42.3826 42.6034 42.7563 42.8553 43.26C42.8797 43.3087 42.904 43.3494 42.9365 43.39C44.1145 44.9254 44.0495 47.0052 42.7822 48.3457C41.9779 49.1825 40.8893 49.7024 39.7113 49.7024H39.5569C38.4439 49.7105 37.3715 49.2962 36.5591 48.5325L35.503 47.5251C35.3161 47.3464 35.0643 47.2489 34.8124 47.257C34.7474 47.257 34.6906 47.2652 34.6256 47.2814C32.5377 47.777 30.3767 47.842 28.2563 47.4845C28.2076 47.4764 28.1669 47.4764 28.1182 47.4764C27.8582 47.4683 27.6145 47.5658 27.4276 47.7445L26.6315 48.5C25.8191 49.2556 24.7711 49.6861 23.6662 49.7349C22.5857 49.7918 21.5133 49.4424 20.6684 48.7681C19.3198 47.6633 18.9055 45.7703 19.6773 44.2024C19.7991 43.9993 19.8316 43.7474 19.7666 43.5118C19.7341 43.3656 19.6691 43.2356 19.5716 43.13C18.808 42.2932 18.1662 41.3427 17.6706 40.3191C17.63 40.2378 17.5812 40.1647 17.5163 40.0997C17.3619 39.9291 17.1588 39.8235 16.9394 39.7829L14.3235 39.2548C13.9173 39.1736 13.6248 38.808 13.6248 38.3937V33.1536C13.6167 32.7393 13.9092 32.3737 14.3235 32.2925L16.9476 31.7644C17.1669 31.7238 17.37 31.6182 17.5244 31.4476C17.5894 31.3826 17.6381 31.3176 17.6787 31.2363C18.5074 29.579 19.7423 28.1005 21.3427 26.8656C21.3671 26.8412 21.3914 26.825 21.4158 26.8006C21.6027 26.6137 21.7002 26.3619 21.692 26.1019C21.692 26.0694 21.692 26.0451 21.6839 26.0126L21.4727 24.0628C21.3996 23.4372 21.2777 22.308 21.294 21.9993C21.3021 21.9993 21.3183 21.9993 21.3265 21.9993C21.6514 21.9911 22.277 22.048 23.4306 22.4217C23.6743 24.2253 24.4867 25.8988 25.746 27.2068H24.9742C24.5273 27.2068 24.1618 27.5724 24.1618 28.0192C24.1618 28.466 24.5273 28.8316 24.9742 28.8316H39.0532C39.5 28.8316 39.8656 28.466 39.8656 28.0192C39.8656 27.5724 39.5 27.2068 39.0532 27.2068H38.2083C38.5658 26.8575 38.8826 26.4675 39.1507 26.0451C41.0274 27.1824 42.5709 28.7098 43.6352 30.4646L44.212 31.5776C44.8051 32.8043 45.1463 34.0473 45.2275 35.1847V35.7452C45.2275 38.0606 44.4395 40.2947 42.9528 42.2201Z" fill="white"/>
<path d="M23.2519 31.675C22.0983 31.675 21.1721 32.6093 21.1721 33.7548C21.1721 34.9084 22.1064 35.8346 23.2519 35.8346C24.3974 35.8346 25.3317 34.9003 25.3317 33.7548C25.3398 32.6093 24.4055 31.675 23.2519 31.675ZM23.2519 34.2179C23 34.2179 22.7969 34.0148 22.7969 33.7629C22.7969 33.5111 23 33.308 23.2519 33.308C23.5037 33.308 23.7068 33.5111 23.7068 33.7629C23.715 34.0148 23.5119 34.2179 23.2519 34.2179Z" fill="white"/>
<path d="M31.9852 16.3286C29.2637 16.3286 27.062 18.5302 27.062 21.2518C27.0702 23.9653 29.2718 26.1669 31.9852 26.175C34.7068 26.175 36.9084 23.9734 36.9084 21.2518C36.9084 18.5302 34.7068 16.3286 31.9852 16.3286ZM31.9852 24.5502C30.1654 24.5502 28.6869 23.0716 28.6869 21.2518C28.6869 19.432 30.1654 17.9534 31.9852 17.9534C33.805 17.9534 35.2836 19.432 35.2836 21.2518C35.2836 23.0716 33.805 24.5502 31.9852 24.5502Z" fill="white"/>
</svg>
