<svg width="107" height="108" viewBox="0 0 107 108" fill="none" xmlns="http://www.w3.org/2000/svg">
<path d="M67.6698 69.8574C67.6698 68.8688 66.8783 68.0663 65.9032 68.0663C64.9281 68.0663 64.1366 68.8688 64.1366 69.8574V73.4399C64.1366 74.4286 64.9281 75.2311 65.9032 75.2311C66.8783 75.2311 67.6698 74.4286 67.6698 73.4399V69.8574Z" fill="#2D8EFF"/>
<path d="M65.9029 89.561C64.9278 89.561 64.1364 90.3635 64.1364 91.3522V98.517C64.1364 99.5057 64.9278 100.308 65.9029 100.308C66.8781 100.308 67.6695 99.5057 67.6695 98.517V91.3522C67.6697 90.3635 66.8783 89.561 65.9029 89.561Z" fill="#2D8EFF"/>
<path d="M74.7363 48.3628C74.7363 47.3741 73.9448 46.5717 72.9697 46.5717C71.9946 46.5717 71.2031 47.3741 71.2031 48.3628V51.9453C71.2031 52.934 71.9946 53.7365 72.9697 53.7365C73.9448 53.7365 74.7363 52.934 74.7363 51.9453V48.3628Z" fill="#2D8EFF"/>
<path d="M67.6698 59.1104C67.6698 58.1217 66.8783 57.3192 65.9032 57.3192C64.9281 57.3192 64.1366 58.1217 64.1366 59.1104V62.6929C64.1366 63.6816 64.9281 64.484 65.9032 64.484C66.8783 64.484 67.6698 63.6816 67.6698 62.6929V59.1104Z" fill="#2D8EFF"/>
<path d="M67.6698 80.605C67.6698 79.6163 66.8783 78.8138 65.9032 78.8138C64.928 78.8138 64.1364 79.6163 64.1364 80.605V84.1875C64.1364 85.1762 64.9278 85.9786 65.903 85.9786C66.8781 85.9786 67.6696 85.1762 67.6696 84.1875V80.605H67.6698Z" fill="#2D8EFF"/>
<path d="M74.7363 59.1104C74.7363 58.1217 73.9448 57.3192 72.9697 57.3192C71.9946 57.3192 71.2031 58.1217 71.2031 59.1104V62.6929C71.2031 63.6816 71.9946 64.484 72.9697 64.484C73.9448 64.484 74.7363 63.6816 74.7363 62.6929V59.1104Z" fill="#2D8EFF"/>
<path d="M60.603 48.3628C60.603 47.3741 59.8115 46.5717 58.8364 46.5717C57.8613 46.5717 57.0698 47.3741 57.0698 48.3628V51.9453C57.0698 52.934 57.8613 53.7365 58.8364 53.7365C59.8115 53.7365 60.603 52.934 60.603 51.9453V48.3628Z" fill="#2D8EFF"/>
<path d="M67.6698 48.3628C67.6698 47.3741 66.8783 46.5717 65.9032 46.5717C64.9281 46.5717 64.1366 47.3741 64.1366 48.3628V51.9453C64.1366 52.934 64.9281 53.7365 65.9032 53.7365C66.8783 53.7365 67.6698 52.934 67.6698 51.9453V48.3628Z" fill="#2D8EFF"/>
<path d="M74.7363 30.4509V26.8684C74.7363 25.8798 73.9448 25.0773 72.9697 25.0773C71.9946 25.0773 71.2031 25.8798 71.2031 26.8684V30.4509C71.2031 31.4396 71.9946 32.2421 72.9697 32.2421C73.9448 32.2421 74.7363 31.4396 74.7363 30.4509Z" fill="#2D8EFF"/>
<path d="M60.603 59.1104C60.603 58.1217 59.8115 57.3192 58.8364 57.3192C57.8613 57.3192 57.0698 58.1217 57.0698 59.1104V62.6929C57.0698 63.6816 57.8613 64.484 58.8364 64.484C59.8115 64.484 60.603 63.6816 60.603 62.6929V59.1104Z" fill="#2D8EFF"/>
<path d="M81.803 26.8684C81.803 25.8798 81.0115 25.0773 80.0364 25.0773C79.0613 25.0773 78.2698 25.8798 78.2698 26.8684V30.4509C78.2698 31.4396 79.0613 32.2421 80.0364 32.2421C81.0115 32.2421 81.803 31.4396 81.803 30.4509V26.8684Z" fill="#2D8EFF"/>
<path d="M58.8364 68.0663C57.8613 68.0663 57.0698 68.8688 57.0698 69.8574V73.4399C57.0698 74.4286 57.8613 75.2311 58.8364 75.2311C59.8115 75.2311 60.603 74.4286 60.603 73.4399V69.8574C60.603 68.8688 59.8115 68.0663 58.8364 68.0663Z" fill="#2D8EFF"/>
<path d="M88.8698 80.605C88.8698 79.6163 88.0783 78.8138 87.1032 78.8138C86.1281 78.8138 85.3364 79.6163 85.3364 80.605V84.1875C85.3364 85.1762 86.1279 85.9786 87.103 85.9786C88.0781 85.9786 88.8696 85.1762 88.8696 84.1875V80.605H88.8698Z" fill="#2D8EFF"/>
<path d="M87.103 89.561C86.1279 89.561 85.3364 90.3635 85.3364 91.3522V98.517C85.3364 99.5057 86.1279 100.308 87.103 100.308C88.0781 100.308 88.8696 99.5057 88.8696 98.517V91.3522C88.8698 90.3635 88.0783 89.561 87.103 89.561Z" fill="#2D8EFF"/>
<path d="M94.1698 68.0663C93.1947 68.0663 92.4032 68.8688 92.4032 69.8574V73.4399C92.4032 74.4286 93.1947 75.2311 94.1698 75.2311C95.1449 75.2311 95.9364 74.4286 95.9364 73.4399V69.8574C95.9364 68.8688 95.1449 68.0663 94.1698 68.0663Z" fill="#2D8EFF"/>
<path d="M65.9029 32.2418C66.8781 32.2418 67.6695 31.4393 67.6695 30.4507V22.8935L85.3364 18.4154V48.3628C85.3364 49.1096 85.7939 49.7778 86.4829 50.0412L99.4698 54.9779V73.4399C99.4698 74.4286 100.261 75.2311 101.236 75.2311C102.211 75.2311 103.003 74.4286 103.003 73.4399V53.7365C103.003 52.9896 102.545 52.3215 101.856 52.058L88.8695 47.1214V12.5383C88.8695 11.5497 88.0781 10.7472 87.103 10.7472C86.1278 10.7472 85.3364 11.5497 85.3364 12.5383V14.7218L65.4738 19.7569C64.6877 19.9557 64.1364 20.6723 64.1364 21.4943V30.4505C64.1364 31.4393 64.9278 32.2418 65.9029 32.2418Z" fill="#2D8EFF"/>
<path d="M95.9364 59.1104C95.9364 58.1217 95.1449 57.3192 94.1698 57.3192C93.1947 57.3192 92.4032 58.1217 92.4032 59.1104V62.6929C92.4032 63.6816 93.1947 64.484 94.1698 64.484C95.1449 64.484 95.9364 63.6816 95.9364 62.6929V59.1104Z" fill="#2D8EFF"/>
<path d="M88.8698 59.1104C88.8698 58.1217 88.0783 57.3192 87.1031 57.3192C86.128 57.3192 85.3365 58.1217 85.3365 59.1104V62.6929C85.3365 63.6816 86.128 64.484 87.1031 64.484C88.0783 64.484 88.8698 63.6816 88.8698 62.6929V59.1104Z" fill="#2D8EFF"/>
<path d="M74.7363 80.605C74.7363 79.6163 73.9448 78.8138 72.9697 78.8138C71.9946 78.8138 71.2031 79.6163 71.2031 80.605V84.1875C71.2031 85.1762 71.9946 85.9786 72.9697 85.9786C73.9448 85.9786 74.7363 85.1762 74.7363 84.1875V80.605Z" fill="#2D8EFF"/>
<path d="M88.8698 69.8574C88.8698 68.8688 88.0783 68.0663 87.1031 68.0663C86.128 68.0663 85.3365 68.8688 85.3365 69.8574V73.4399C85.3365 74.4286 86.128 75.2311 87.1031 75.2311C88.0783 75.2311 88.8698 74.4286 88.8698 73.4399V69.8574Z" fill="#2D8EFF"/>
<path d="M72.9697 89.561C71.9946 89.561 71.2031 90.3635 71.2031 91.3522V98.517C71.2031 99.5057 71.9946 100.308 72.9697 100.308C73.9448 100.308 74.7363 99.5057 74.7363 98.517V91.3522C74.7363 90.3635 73.9448 89.561 72.9697 89.561Z" fill="#2D8EFF"/>
<path d="M74.7363 69.8574C74.7363 68.8688 73.9448 68.0663 72.9697 68.0663C71.9946 68.0663 71.2031 68.8688 71.2031 69.8574V73.4399C71.2031 74.4286 71.9946 75.2311 72.9697 75.2311C73.9448 75.2311 74.7363 74.4286 74.7363 73.4399V69.8574Z" fill="#2D8EFF"/>
<path d="M80.0363 100.308C81.0115 100.308 81.8029 99.506 81.8029 98.5173V41.1982C81.8029 40.376 81.25 39.6596 80.4655 39.4608L52.1989 32.2958C51.6743 32.1614 51.1105 32.2832 50.683 32.6218C50.2536 32.9603 50.0029 33.4815 50.0029 34.0332V73.4399C50.0029 74.4286 50.7944 75.2311 51.7695 75.2311C52.7446 75.2311 53.5361 74.4286 53.5361 73.4399V36.3279L78.2695 42.5972V98.5173C78.2697 99.506 79.0612 100.308 80.0363 100.308Z" fill="#2D8EFF"/>
<path d="M39.4029 37.6156C39.4029 36.6269 38.6115 35.8245 37.6363 35.8245C36.6612 35.8245 35.8698 36.6269 35.8698 37.6156V41.1981C35.8698 42.1868 36.6612 42.9893 37.6363 42.9893C38.6115 42.9893 39.4029 42.1868 39.4029 41.1981V37.6156Z" fill="#2D8EFF"/>
<path d="M39.4029 26.8684C39.4029 25.8798 38.6115 25.0773 37.6363 25.0773C36.6612 25.0773 35.8698 25.8798 35.8698 26.8684V30.4509C35.8698 31.4396 36.6612 32.2421 37.6363 32.2421C38.6115 32.2421 39.4029 31.4396 39.4029 30.4509V26.8684Z" fill="#2D8EFF"/>
<path d="M25.2697 80.605C25.2697 79.6163 24.4782 78.8138 23.5031 78.8138C22.528 78.8138 21.7363 79.6163 21.7363 80.605V84.1875C21.7363 85.1762 22.5278 85.9786 23.5029 85.9786C24.478 85.9786 25.2695 85.1762 25.2695 84.1875V80.605H25.2697Z" fill="#2D8EFF"/>
<path d="M9.36983 64.4838C10.3449 64.4838 11.1364 63.6813 11.1364 62.6926V53.7365H28.803V98.5169C28.803 99.5055 29.5945 100.308 30.5696 100.308C31.5447 100.308 32.3362 99.5055 32.3362 98.5169V51.9453C32.3362 50.9567 31.5447 50.1542 30.5696 50.1542H9.36963C8.39451 50.1542 7.60303 50.9567 7.60303 51.9453V62.6926C7.60303 63.6813 8.39451 64.4838 9.36983 64.4838Z" fill="#2D8EFF"/>
<path d="M28.803 37.6156V41.1981C28.803 42.1868 29.5945 42.9893 30.5696 42.9893C31.5447 42.9893 32.3362 42.1868 32.3362 41.1981V37.6156C32.3362 36.6269 31.5447 35.8245 30.5696 35.8245C29.5945 35.8245 28.803 36.6269 28.803 37.6156Z" fill="#2D8EFF"/>
<path d="M39.4029 16.1209C39.4029 15.1322 38.6115 14.3297 37.6363 14.3297C36.6612 14.3297 35.8698 15.1322 35.8698 16.1209V19.7034C35.8698 20.692 36.6612 21.4945 37.6363 21.4945C38.6115 21.4945 39.4029 20.692 39.4029 19.7034V16.1209Z" fill="#2D8EFF"/>
<path d="M23.5029 89.561C22.5278 89.561 21.7363 90.3635 21.7363 91.3522V98.517C21.7363 99.5057 22.5278 100.308 23.5029 100.308C24.478 100.308 25.2695 99.5057 25.2695 98.517V91.3522C25.2697 90.3635 24.4783 89.561 23.5029 89.561Z" fill="#2D8EFF"/>
<path d="M104.77 103.89H101.236V92.8888C104.275 92.0882 106.536 89.3063 106.536 85.9782C106.536 82.0266 103.367 78.8134 99.4698 78.8134C95.5726 78.8134 92.4032 82.0268 92.4032 85.9782C92.4032 89.3063 94.6646 92.088 97.7032 92.8888V103.89H53.5364V96.5447C57.5625 95.7118 60.603 92.0953 60.603 87.7695C60.603 82.8312 56.6404 78.8134 51.7696 78.8134C46.899 78.8134 42.9362 82.831 42.9362 87.7695C42.9362 92.0953 45.9766 95.7118 50.0028 96.5447V103.89H11.1364V85.7974C15.1625 84.9645 18.203 81.348 18.203 77.0222C18.203 72.0839 14.2404 68.066 9.36957 68.066C4.49896 68.0662 0.536377 72.0839 0.536377 77.0222C0.536377 81.348 3.57684 84.9645 7.60297 85.7974V103.89H2.30297C1.32786 103.89 0.536377 104.693 0.536377 105.682C0.536377 106.67 1.32786 107.473 2.30297 107.473H104.77C105.745 107.473 106.536 106.671 106.536 105.682C106.536 104.693 105.745 103.89 104.77 103.89ZM4.06978 77.0222C4.06978 74.0596 6.44774 71.6486 9.36978 71.6486C12.2918 71.6486 14.6698 74.0596 14.6698 77.0222C14.6698 79.9849 12.2918 82.3959 9.36978 82.3959C6.44774 82.3959 4.06978 79.9849 4.06978 77.0222ZM46.4698 87.7695C46.4698 84.8069 48.8477 82.3959 51.7698 82.3959C54.6918 82.3959 57.0698 84.8069 57.0698 87.7695C57.0698 90.7322 54.6918 93.1432 51.7698 93.1432C48.8477 93.1432 46.4698 90.7322 46.4698 87.7695ZM95.9364 85.9784C95.9364 84.0027 97.521 82.3959 99.4698 82.3959C101.419 82.3959 103.003 84.0025 103.003 85.9784C103.003 87.954 101.419 89.5609 99.4698 89.5609C97.521 89.5609 95.9364 87.954 95.9364 85.9784Z" fill="#2D8EFF"/>
<path d="M14.6698 91.3522V98.517C14.6698 99.5057 15.4613 100.308 16.4364 100.308C17.4115 100.308 18.203 99.5057 18.203 98.517V91.3522C18.203 90.3635 17.4115 89.561 16.4364 89.561C15.4613 89.561 14.6698 90.3635 14.6698 91.3522Z" fill="#2D8EFF"/>
<path d="M25.2698 59.1104C25.2698 58.1217 24.4783 57.3192 23.5032 57.3192C22.5281 57.3192 21.7366 58.1217 21.7366 59.1104V62.6929C21.7366 63.6816 22.5281 64.484 23.5032 64.484C24.4783 64.484 25.2698 63.6816 25.2698 62.6929V59.1104Z" fill="#2D8EFF"/>
<path d="M25.2698 69.8574C25.2698 68.8688 24.4783 68.0663 23.5032 68.0663C22.5281 68.0663 21.7366 68.8688 21.7366 69.8574V73.4399C21.7366 74.4286 22.5281 75.2311 23.5032 75.2311C24.4783 75.2311 25.2698 74.4286 25.2698 73.4399V69.8574Z" fill="#2D8EFF"/>
<path d="M14.6698 59.1104V62.6929C14.6698 63.6816 15.4613 64.484 16.4364 64.484C17.4115 64.484 18.203 63.6816 18.203 62.6929V59.1104C18.203 58.1217 17.4115 57.3192 16.4364 57.3192C15.4613 57.3192 14.6698 58.1217 14.6698 59.1104Z" fill="#2D8EFF"/>
<path d="M39.4029 69.8574C39.4029 68.8688 38.6115 68.0663 37.6363 68.0663C36.6612 68.0663 35.8698 68.8688 35.8698 69.8574V73.4399C35.8698 74.4286 36.6612 75.2311 37.6363 75.2311C38.6115 75.2311 39.4029 74.4286 39.4029 73.4399V69.8574Z" fill="#2D8EFF"/>
<path d="M46.4697 48.3628C46.4697 47.3741 45.6782 46.5717 44.7031 46.5717C43.728 46.5717 42.9365 47.3741 42.9365 48.3628V51.9453C42.9365 52.934 43.728 53.7365 44.7031 53.7365C45.6782 53.7365 46.4697 52.934 46.4697 51.9453V48.3628Z" fill="#2D8EFF"/>
<path d="M46.4697 37.6156C46.4697 36.6269 45.6782 35.8245 44.7031 35.8245C43.728 35.8245 42.9365 36.6269 42.9365 37.6156V41.1981C42.9365 42.1868 43.728 42.9893 44.7031 42.9893C45.6782 42.9893 46.4697 42.1868 46.4697 41.1981V37.6156Z" fill="#2D8EFF"/>
<path d="M46.4697 59.1104C46.4697 58.1217 45.6782 57.3192 44.7031 57.3192C43.728 57.3192 42.9365 58.1217 42.9365 59.1104V62.6929C42.9365 63.6816 43.728 64.484 44.7031 64.484C45.6782 64.484 46.4697 63.6816 46.4697 62.6929V59.1104Z" fill="#2D8EFF"/>
<path d="M44.703 68.0663C43.7279 68.0663 42.9364 68.8688 42.9364 69.8574V73.4399C42.9364 74.4286 43.7279 75.2311 44.703 75.2311C45.6781 75.2311 46.4696 74.4286 46.4696 73.4399V69.8574C46.4698 68.8688 45.6783 68.0663 44.703 68.0663Z" fill="#2D8EFF"/>
<path d="M46.4697 26.8684C46.4697 25.8798 45.6782 25.0773 44.7031 25.0773C43.728 25.0773 42.9365 25.8798 42.9365 26.8684V30.4509C42.9365 31.4396 43.728 32.2421 44.7031 32.2421C45.6782 32.2421 46.4697 31.4396 46.4697 30.4509V26.8684Z" fill="#2D8EFF"/>
<path d="M39.4029 80.605C39.4029 79.6163 38.6115 78.8138 37.6363 78.8138C36.6612 78.8138 35.8698 79.6163 35.8698 80.605V84.1875C35.8698 85.1762 36.6612 85.9786 37.6363 85.9786C38.6115 85.9786 39.4029 85.1762 39.4029 84.1875V80.605Z" fill="#2D8EFF"/>
<path d="M23.503 46.5718C24.4781 46.5718 25.2696 45.7693 25.2696 44.7806V31.5576L31.3592 28.4714C31.9581 28.1668 32.3362 27.5471 32.3362 26.8683V11.8544L41.1696 7.37639L50.003 11.8544V26.8683C50.003 27.857 50.7944 28.6594 51.7696 28.6594C52.7447 28.6594 53.5364 27.857 53.5364 26.8683V10.7473C53.5364 10.0685 53.1583 9.44861 52.5594 9.14424L42.9364 4.2666V1.79115C42.9364 0.80248 42.1449 0 41.1698 0C40.1947 0 39.4032 0.80248 39.4032 1.79115V4.2666L29.7802 9.14403C29.1812 9.44861 28.8032 10.0683 28.8032 10.7471V25.761L22.7136 28.8473C22.1146 29.1519 21.7366 29.7715 21.7366 30.4504V44.7802C21.7364 45.7693 22.5278 46.5718 23.503 46.5718Z" fill="#2D8EFF"/>
<path d="M39.4029 59.1104C39.4029 58.1217 38.6115 57.3192 37.6363 57.3192C36.6612 57.3192 35.8698 58.1217 35.8698 59.1104V62.6929C35.8698 63.6816 36.6612 64.484 37.6363 64.484C38.6115 64.484 39.4029 63.6816 39.4029 62.6929V59.1104Z" fill="#2D8EFF"/>
<path d="M37.6363 89.561C36.6612 89.561 35.8698 90.3635 35.8698 91.3522V98.517C35.8698 99.5057 36.6612 100.308 37.6363 100.308C38.6115 100.308 39.4029 99.5057 39.4029 98.517V91.3522C39.4029 90.3635 38.6115 89.561 37.6363 89.561Z" fill="#2D8EFF"/>
<path d="M46.4697 16.1209C46.4697 15.1322 45.6782 14.3297 44.7031 14.3297C43.728 14.3297 42.9365 15.1322 42.9365 16.1209V19.7034C42.9365 20.692 43.728 21.4945 44.7031 21.4945C45.6782 21.4945 46.4697 20.692 46.4697 19.7034V16.1209Z" fill="#2D8EFF"/>
<path d="M39.4029 48.3628C39.4029 47.3741 38.6115 46.5717 37.6363 46.5717C36.6612 46.5717 35.8698 47.3741 35.8698 48.3628V51.9453C35.8698 52.934 36.6612 53.7365 37.6363 53.7365C38.6115 53.7365 39.4029 52.934 39.4029 51.9453V48.3628Z" fill="#2D8EFF"/>
</svg>
