<svg width="107" height="106" viewBox="0 0 107 106" fill="none" xmlns="http://www.w3.org/2000/svg">
<path d="M65.379 24.7339C66.3559 24.7339 67.1455 23.9424 67.1455 22.9673C67.1455 21.9922 66.3559 21.2007 65.379 21.2007H61.8456C60.8686 21.2007 60.079 21.9922 60.079 22.9673C60.079 23.9424 60.8686 24.7339 61.8456 24.7339H65.379Z" fill="#2D8EFF"/>
<path d="M38.8792 44.1671V54.767C38.8792 55.7421 39.6707 56.5336 40.6458 56.5336H65.379C66.3559 56.5336 67.1455 55.7421 67.1455 54.767V44.1671C67.1455 36.3743 60.8051 30.0338 53.0123 30.0338C45.2199 30.0338 38.8792 36.3743 38.8792 44.1671ZM51.2459 53.0002H42.4126V45.9337H51.2459V53.0002ZM51.2459 42.4003H42.5716C43.3206 37.9713 46.8169 34.475 51.2459 33.726V42.4003ZM54.779 33.7262C59.208 34.4752 62.7043 37.9715 63.4534 42.4005H54.779V33.7262ZM54.779 45.9337H63.6124V53.0002H54.779V45.9337Z" fill="#2D8EFF"/>
<path d="M93.6456 102.467H19.4461C18.471 102.467 17.6796 103.258 17.6796 104.233C17.6796 105.208 18.471 106 19.4461 106H93.6456C94.6225 106 95.4121 105.208 95.4121 104.233C95.4121 103.258 94.6225 102.467 93.6456 102.467Z" fill="#2D8EFF"/>
<path d="M15.9128 17.6672H17.6793V26.5005C17.6793 27.4756 18.4708 28.2671 19.4459 28.2671C20.421 28.2671 21.2125 27.4756 21.2125 26.5005V15.9006C21.2125 14.9255 20.421 14.134 19.4459 14.134H17.6793V10.6004H28.2793V14.1338H26.5127C25.5376 14.1338 24.7461 14.9253 24.7461 15.9004V19.4338C24.7461 20.4089 25.5376 21.2003 26.5127 21.2003C27.4878 21.2003 28.2793 20.4089 28.2793 19.4338V17.6672H30.0458C31.021 17.6672 31.8124 16.8757 31.8124 15.9006V8.83384C31.8124 7.85873 31.021 7.06726 30.0458 7.06726H15.9128C14.9377 7.06726 14.1462 7.85873 14.1462 8.83384V15.9004C14.1462 16.8757 14.9377 17.6672 15.9128 17.6672Z" fill="#2D8EFF"/>
<path d="M19.4461 98.9332H22.9795C23.9546 98.9332 24.7461 98.1417 24.7461 97.1666C24.7461 96.1915 23.9546 95.4 22.9795 95.4H19.4461C18.471 95.4 17.6796 96.1915 17.6796 97.1666C17.6793 98.1417 18.4708 98.9332 19.4461 98.9332Z" fill="#2D8EFF"/>
<path d="M37.1126 31.8004H33.5792C32.6041 31.8004 31.8126 32.5919 31.8126 33.567C31.8126 34.5421 32.6041 35.3336 33.5792 35.3336H37.1126C38.0877 35.3336 38.8792 34.5421 38.8792 33.567C38.8792 32.5919 38.0879 31.8004 37.1126 31.8004Z" fill="#2D8EFF"/>
<path d="M12.3794 102.467H1.77947C0.80436 102.467 0.012886 103.258 0.012886 104.233C0.012886 105.208 0.80436 106 1.77947 106H12.3794C13.3545 106 14.146 105.208 14.146 104.233C14.146 103.258 13.3547 102.467 12.3794 102.467Z" fill="#2D8EFF"/>
<path d="M72.4457 88.3332H83.0456C84.0226 88.3332 84.8122 87.5417 84.8122 86.5666C84.8122 85.5915 84.0226 84.8 83.0456 84.8H72.4457C71.4687 84.8 70.6791 85.5915 70.6791 86.5666C70.6791 87.5417 71.4687 88.3332 72.4457 88.3332Z" fill="#2D8EFF"/>
<path d="M86.5788 77.7335C87.5558 77.7335 88.3454 76.942 88.3454 75.9669C88.3454 74.9918 87.5558 74.2003 86.5788 74.2003H83.0454C82.0684 74.2003 81.2788 74.9918 81.2788 75.9669C81.2788 76.942 82.0684 77.7335 83.0454 77.7335H86.5788Z" fill="#2D8EFF"/>
<path d="M35.346 86.5666C35.346 85.5915 34.5545 84.8 33.5794 84.8H30.0461C29.0709 84.8 28.2795 85.5915 28.2795 86.5666C28.2795 87.5417 29.0709 88.3332 30.0461 88.3332H33.5794C34.5545 88.3332 35.346 87.5417 35.346 86.5666Z" fill="#2D8EFF"/>
<path d="M21.2127 44.167C21.2127 45.1421 22.0042 45.9336 22.9793 45.9336H33.5792C34.5543 45.9336 35.3458 45.1421 35.3458 44.167C35.3458 43.1919 34.5543 42.4004 33.5792 42.4004H22.9793C22.0042 42.4002 21.2127 43.1917 21.2127 44.167Z" fill="#2D8EFF"/>
<path d="M104.245 102.467H100.712C99.7351 102.467 98.9455 103.258 98.9455 104.233C98.9455 105.208 99.7351 106 100.712 106H104.245C105.222 106 106.012 105.208 106.012 104.233C106.012 103.258 105.222 102.467 104.245 102.467Z" fill="#2D8EFF"/>
<path d="M104.245 54.7678C104.698 54.7678 105.15 54.5947 105.494 54.2502C106.185 53.5593 106.185 52.4428 105.494 51.7522L94.8964 41.1541C94.8946 41.1523 94.8946 41.1523 94.8929 41.1523L86.0631 32.3208L86.0596 32.3173L54.2615 0.518965C53.5706 -0.171686 52.4541 -0.171686 51.7635 0.518965L30.5636 21.7169V21.7188L0.530462 51.752C-0.160189 52.4428 -0.160189 53.5593 0.530462 54.25C1.22132 54.9408 2.33783 54.9408 3.02848 54.25L10.6128 46.6657V97.1672C10.6128 98.1423 11.4043 98.9338 12.3794 98.9338C13.3545 98.9338 14.146 98.1423 14.146 97.1672V88.3341H22.9793C23.9544 88.3341 24.7459 87.5426 24.7459 86.5675C24.7459 85.5924 23.9544 84.8009 22.9793 84.8009H14.1462V67.1343H15.9128C16.8879 67.1343 17.6793 66.3428 17.6793 65.3677C17.6793 64.3926 16.8879 63.6011 15.9128 63.6011H14.1462V56.5344H30.0461C31.0212 56.5344 31.8126 55.7429 31.8126 54.7678C31.8126 53.7927 31.0212 53.0012 30.0461 53.0012H14.1462V43.1327L32.5441 24.7348H44.1793C45.1545 24.7348 45.9459 23.9433 45.9459 22.9682C45.9459 21.9931 45.1545 21.2016 44.1793 21.2016H36.0774L53.0127 4.26641L80.5478 31.8013H75.9793C75.0023 31.8013 74.2127 32.5928 74.2127 33.5679C74.2127 34.543 75.0023 35.3345 75.9793 35.3345H84.0812L91.1477 42.4011H83.0458C82.0689 42.4011 81.2793 43.1925 81.2793 44.1676C81.2793 45.1428 82.0689 45.9342 83.0458 45.9342H91.8792V53.0008H90.1126C89.1356 53.0008 88.346 53.7922 88.346 54.7674C88.346 55.7425 89.1356 56.5339 90.1126 56.5339H91.8792V63.6005H83.0458C82.0689 63.6005 81.2793 64.392 81.2793 65.3671C81.2793 66.3422 82.0689 67.1337 83.0458 67.1337H91.8792V84.8001H90.1126C89.1356 84.8001 88.346 85.5916 88.346 86.5667C88.346 87.5418 89.1356 88.3333 90.1126 88.3333H91.8792V95.3998H79.5127C78.5357 95.3998 77.7461 96.1913 77.7461 97.1664C77.7461 98.1415 78.5357 98.933 79.5127 98.933H93.646C94.6229 98.933 95.4126 98.1415 95.4126 97.1664V46.6659L102.997 54.2502C103.341 54.5945 103.793 54.7678 104.245 54.7678Z" fill="#2D8EFF"/>
<path d="M26.5127 77.7334H38.8792V95.3999H33.5792C32.6041 95.3999 31.8126 96.1914 31.8126 97.1665C31.8126 98.1416 32.6041 98.933 33.5792 98.933H40.6458C41.6209 98.933 42.4123 98.1416 42.4123 97.1665V67.1335H63.6122V81.2668H61.8456C60.8686 81.2668 60.079 82.0583 60.079 83.0334C60.079 84.0085 60.8686 84.8 61.8456 84.8H63.6122V97.1665C63.6122 98.1416 64.4018 98.933 65.3788 98.933C66.3557 98.933 67.1453 98.1416 67.1453 97.1665V77.7334H68.9119C69.8889 77.7334 70.6785 76.942 70.6785 75.9668C70.6785 74.9917 69.8889 74.2003 68.9119 74.2003H67.1453V65.3669C67.1453 64.3918 66.3557 63.6003 65.3788 63.6003H40.646C39.6709 63.6003 38.8794 64.3918 38.8794 65.3669V74.2003H26.5129C25.5378 74.2003 24.7463 74.9917 24.7463 75.9668C24.7463 76.942 25.5376 77.7334 26.5127 77.7334Z" fill="#2D8EFF"/>
<path d="M24.7461 65.3669C24.7461 66.342 25.5376 67.1335 26.5127 67.1335H33.5792C34.5543 67.1335 35.3458 66.342 35.3458 65.3669C35.3458 64.3918 34.5543 63.6003 33.5792 63.6003H26.5127C25.5376 63.6001 24.7461 64.3916 24.7461 65.3669Z" fill="#2D8EFF"/>
<path d="M72.4457 67.1335H75.9791C76.9561 67.1335 77.7457 66.342 77.7457 65.3669C77.7457 64.3918 76.9561 63.6003 75.9791 63.6003H72.4457C71.4687 63.6003 70.6791 64.3918 70.6791 65.3669C70.6791 66.342 71.4687 67.1335 72.4457 67.1335Z" fill="#2D8EFF"/>
<path d="M74.2123 54.7669C74.2123 55.7421 75.0019 56.5335 75.9789 56.5335H83.0454C84.0224 56.5335 84.812 55.7421 84.812 54.7669C84.812 53.7918 84.0224 53.0004 83.0454 53.0004H75.9789C75.0021 53.0002 74.2123 53.7916 74.2123 54.7669Z" fill="#2D8EFF"/>
<path d="M75.9789 42.4003H72.4455C71.4685 42.4003 70.6789 43.1917 70.6789 44.1669C70.6789 45.142 71.4685 45.9334 72.4455 45.9334H75.9789C76.9559 45.9334 77.7455 45.142 77.7455 44.1669C77.7457 43.1917 76.9559 42.4003 75.9789 42.4003Z" fill="#2D8EFF"/>
</svg>
