<svg width="107" height="106" viewBox="0 0 107 106" fill="none" xmlns="http://www.w3.org/2000/svg">
<path d="M55.6486 28.2673H53.882V22.9673C53.882 21.9922 53.0924 21.2007 52.1154 21.2007C51.1384 21.2007 50.3488 21.9922 50.3488 22.9673V30.0338C50.3488 31.009 51.1384 31.8004 52.1154 31.8004H55.6488C56.6258 31.8004 57.4154 31.009 57.4154 30.0338C57.4154 29.0587 56.6256 28.2673 55.6486 28.2673Z" fill="#2D8EFF"/>
<path d="M20.3154 74.2002H13.2486C12.2716 74.2002 11.482 74.9917 11.482 75.9668V86.5667C11.482 87.5419 12.2716 88.3333 13.2486 88.3333H20.3152C21.2922 88.3333 22.0818 87.5419 22.0818 86.5667V75.9668C22.082 74.9917 21.2924 74.2002 20.3154 74.2002ZM18.5486 84.8001H15.0154V77.7336H18.5488V84.8001H18.5486Z" fill="#2D8EFF"/>
<path d="M22.082 54.7671C22.082 53.792 21.2924 53.0005 20.3154 53.0005H13.2486C12.2716 53.0005 11.482 53.792 11.482 54.7671V65.367C11.482 66.3421 12.2716 67.1336 13.2486 67.1336H20.3152C21.2921 67.1336 22.0818 66.3421 22.0818 65.367V54.7671H22.082ZM18.5486 63.6004H15.0154V56.5339H18.5488V63.6004H18.5486Z" fill="#2D8EFF"/>
<path d="M25.6154 44.1671C25.6154 43.192 24.8257 42.4005 23.8488 42.4005H4.41539V40.6339C4.41539 39.6588 3.62578 38.8673 2.6488 38.8673C1.67182 38.8673 0.882202 39.6588 0.882202 40.6339V100.7C0.882202 103.622 3.26016 106 6.18219 106H20.3156C23.2376 106 25.6156 103.622 25.6156 100.7C25.6156 97.7783 23.2376 95.4003 20.3156 95.4003C20.01 95.4003 19.7061 95.4268 19.4075 95.4798C18.1904 93.2838 15.8671 91.8669 13.249 91.8669C10.6309 91.8669 8.30757 93.2838 7.09044 95.4798C6.7919 95.4268 6.48798 95.4003 6.1824 95.4003C5.55882 95.4003 4.97044 95.5274 4.4158 95.7253V45.9339H23.8492C24.8255 45.9339 25.6154 45.1424 25.6154 44.1671ZM6.18199 98.9337C6.51945 98.9337 6.84262 99.0308 7.1395 99.2217C7.62189 99.5343 8.22787 99.5908 8.76138 99.3736C9.2949 99.1581 9.68702 98.6952 9.81973 98.1352C10.1907 96.5257 11.6006 95.4003 13.2488 95.4003C14.897 95.4003 16.3052 96.5257 16.6778 98.1352C16.8103 98.6952 17.2024 99.1581 17.7362 99.3736C18.2697 99.591 18.8738 99.5345 19.3581 99.2217C20.51 98.4797 22.0822 99.3877 22.0822 100.7C22.0822 101.674 21.2907 102.467 20.3156 102.467H6.18199C5.20687 102.467 4.41539 101.674 4.41539 100.7C4.41539 99.7268 5.20687 98.9337 6.18199 98.9337Z" fill="#2D8EFF"/>
<path d="M76.8485 98.9336H30.9154C29.9384 98.9336 29.1488 99.7251 29.1488 100.7V104.234C29.1488 105.209 29.9384 106 30.9154 106C31.8924 106 32.682 105.209 32.682 104.234V102.467H75.0819V104.234C75.0819 105.209 75.8715 106 76.8485 106C77.8255 106 78.6151 105.209 78.6151 104.234V100.7C78.6153 99.7251 77.8255 98.9336 76.8485 98.9336Z" fill="#2D8EFF"/>
<path d="M30.9154 95.4002C31.8924 95.4002 32.682 94.6087 32.682 93.6336V24.7339C32.682 23.7588 31.8924 22.9673 30.9154 22.9673C29.9384 22.9673 29.1488 23.7588 29.1488 24.7339V93.6336C29.1486 94.6087 29.9384 95.4002 30.9154 95.4002Z" fill="#2D8EFF"/>
<path d="M76.8485 21.2007C75.8715 21.2007 75.0819 21.9922 75.0819 22.9673V93.6336C75.0819 94.6087 75.8715 95.4002 76.8485 95.4002C77.8255 95.4002 78.6151 94.6087 78.6151 93.6336V22.9673C78.6153 21.9922 77.8255 21.2007 76.8485 21.2007Z" fill="#2D8EFF"/>
<path d="M105.115 38.8672C104.138 38.8672 103.349 39.6587 103.349 40.6338V42.4004H83.9153C82.9383 42.4004 82.1487 43.1918 82.1487 44.167C82.1487 45.1421 82.9383 45.9336 83.9153 45.9336H103.349V95.725C102.792 95.5271 102.204 95.3999 101.582 95.3999C101.276 95.3999 100.973 95.4264 100.674 95.4794C99.4569 93.2835 97.1336 91.8666 94.5155 91.8666C91.8974 91.8666 89.574 93.2835 88.3569 95.4794C88.0584 95.4264 87.7545 95.3999 87.4489 95.3999C84.5268 95.3999 82.1489 97.7779 82.1489 100.7C82.1489 103.622 84.5268 106 87.4489 106H101.582C104.504 106 106.882 103.622 106.882 100.7V40.634C106.882 39.6587 106.092 38.8672 105.115 38.8672ZM101.582 102.467H87.4485C86.4733 102.467 85.6819 101.674 85.6819 100.7C85.6819 99.7269 86.4733 98.9337 87.4485 98.9337C87.7859 98.9337 88.1091 99.0309 88.406 99.2217C88.89 99.5344 89.4943 99.5909 90.0279 99.3737C90.5614 99.1582 90.9535 98.6952 91.086 98.1352C91.457 96.5258 92.8669 95.4004 94.515 95.4004C96.1634 95.4004 97.5714 96.5258 97.9441 98.1352C98.0766 98.6952 98.4687 99.1582 99.0022 99.3737C99.5358 99.5911 100.14 99.5346 100.624 99.2217C101.778 98.4797 103.348 99.3878 103.348 100.7C103.348 101.674 102.557 102.467 101.582 102.467Z" fill="#2D8EFF"/>
<path d="M81.2917 16.153L54.7918 0.253095C54.2318 -0.0843649 53.5322 -0.0843649 52.9722 0.253095L26.4722 16.153C25.6367 16.6547 25.3646 17.7395 25.8681 18.5769C26.3698 19.4125 27.4527 19.6846 28.292 19.1811L53.8821 3.82706L79.4721 19.1811C79.7566 19.3525 80.0711 19.4336 80.3802 19.4336C80.9808 19.4336 81.5656 19.1281 81.8961 18.5767C82.3993 17.7395 82.1273 16.6549 81.2917 16.153Z" fill="#2D8EFF"/>
<path d="M85.6818 86.5667C85.6818 87.5419 86.4714 88.3333 87.4484 88.3333H94.515C95.492 88.3333 96.2816 87.5419 96.2816 86.5667V75.9668C96.2816 74.9917 95.492 74.2002 94.515 74.2002H87.4484C86.4714 74.2002 85.6818 74.9917 85.6818 75.9668V86.5667ZM89.2152 77.7336H92.7486V84.8001H89.2152V77.7336Z" fill="#2D8EFF"/>
<path d="M87.4484 67.1336H94.515C95.492 67.1336 96.2816 66.3421 96.2816 65.367V54.7671C96.2816 53.792 95.492 53.0005 94.515 53.0005H87.4484C86.4714 53.0005 85.6818 53.792 85.6818 54.7671V65.367C85.6818 66.3421 86.4714 67.1336 87.4484 67.1336ZM89.2152 56.5337H92.7486V63.6002H89.2152V56.5337Z" fill="#2D8EFF"/>
<path d="M52.6275 85.3126C52.3077 85.6482 52.1151 86.09 52.1151 86.567C52.1151 87.0264 52.3077 87.4856 52.6275 87.8214C52.9615 88.1394 53.4031 88.3338 53.8819 88.3338C54.3413 88.3338 54.7989 88.1394 55.1363 87.8214C55.4543 87.4858 55.6487 87.0264 55.6487 86.567C55.6487 86.09 55.4543 85.6484 55.1363 85.3126C54.4825 84.6588 53.2619 84.6588 52.6275 85.3126Z" fill="#2D8EFF"/>
<path d="M39.7485 65.367C39.7485 66.3421 40.5382 67.1336 41.5151 67.1336H48.5817C49.5587 67.1336 50.3483 66.3421 50.3483 65.367V54.7671C50.3483 53.792 49.5587 53.0005 48.5817 53.0005H41.5151C40.5382 53.0005 39.7485 53.792 39.7485 54.7671V65.367ZM43.2819 56.5339H46.8153V63.6004H43.2819V56.5339Z" fill="#2D8EFF"/>
<path d="M59.1819 53.0005C58.2049 53.0005 57.4153 53.792 57.4153 54.7671V65.367C57.4153 66.3421 58.2049 67.1336 59.1819 67.1336H66.2484C67.2254 67.1336 68.015 66.3421 68.015 65.367V54.7671C68.015 53.792 67.2254 53.0005 66.2484 53.0005H59.1819ZM64.4818 63.6004H60.9485V56.5339H64.4818V63.6004Z" fill="#2D8EFF"/>
<path d="M53.8819 14.1338C46.0891 14.1338 39.7485 20.4743 39.7485 28.2671C39.7485 36.06 46.0891 42.4005 53.8819 42.4005C61.6748 42.4005 68.0153 36.06 68.0153 28.2671C68.0153 20.4743 61.6748 14.1338 53.8819 14.1338ZM53.8819 38.8669C48.036 38.8669 43.2819 34.1129 43.2819 28.2669C43.2819 22.421 48.036 17.667 53.8819 17.667C59.7278 17.667 64.4819 22.421 64.4819 28.2669C64.4819 34.1129 59.7278 38.8669 53.8819 38.8669Z" fill="#2D8EFF"/>
<path d="M36.2153 75.9668C36.2153 76.9419 37.0049 77.7334 37.9819 77.7334H43.2819V93.6333C43.2819 94.6084 44.0715 95.3999 45.0485 95.3999C46.0255 95.3999 46.8151 94.6084 46.8151 93.6333V77.7334H60.9485V93.6333C60.9485 94.6084 61.7381 95.3999 62.7151 95.3999C63.6921 95.3999 64.4817 94.6084 64.4817 93.6333V77.7334H69.7817C70.7586 77.7334 71.5483 76.9419 71.5483 75.9668C71.5483 74.9917 70.7586 74.2002 69.7817 74.2002H37.9817C37.0049 74.2002 36.2153 74.9917 36.2153 75.9668Z" fill="#2D8EFF"/>
</svg>
