<svg width="107" height="108" viewBox="0 0 107 108" fill="none" xmlns="http://www.w3.org/2000/svg">
<path d="M76.4414 100.308H26.9748C25.9997 100.308 25.2082 101.111 25.2082 102.099V105.682C25.2082 106.671 25.9997 107.473 26.9748 107.473C27.9499 107.473 28.7414 106.671 28.7414 105.682V103.891H76.4414C77.4165 103.891 78.208 103.088 78.208 102.1C78.208 101.111 77.4167 100.308 76.4414 100.308Z" fill="#2D8EFF"/>
<path d="M39.3414 44.7803C39.3414 45.7689 40.1329 46.5714 41.108 46.5714H48.1748C49.1499 46.5714 49.9414 45.7689 49.9414 44.7803V34.033C49.9414 33.0443 49.1499 32.2418 48.1748 32.2418H41.1082C40.1331 32.2418 39.3416 33.0443 39.3416 34.033V44.7803H39.3414ZM42.8748 35.8243H46.4082V42.9891H42.8748V35.8243Z" fill="#2D8EFF"/>
<path d="M23.4414 21.4948H2.24139C1.26627 21.4948 0.474792 22.2972 0.474792 23.2859V59.1104C0.474792 60.099 1.26627 60.9015 2.24139 60.9015C3.21651 60.9015 4.00799 60.099 4.00799 59.1104V25.0773H23.4414C24.4165 25.0773 25.208 24.2748 25.208 23.2861C25.208 22.2974 24.4167 21.4948 23.4414 21.4948Z" fill="#2D8EFF"/>
<path d="M85.2748 87.7698C85.2748 88.7585 86.0663 89.5609 87.0414 89.5609H94.108C95.0831 89.5609 95.8746 88.7585 95.8746 87.7698V77.0225C95.8746 76.0338 95.0831 75.2313 94.108 75.2313H87.0414C86.0663 75.2313 85.2748 76.0338 85.2748 77.0225V87.7698ZM88.8082 78.8138H92.3416V85.9786H88.8082V78.8138Z" fill="#2D8EFF"/>
<path d="M9.3082 64.4838C0.57541 64.4838 0.474792 87.5368 0.474792 87.7695C0.474792 92.0953 3.51525 95.7118 7.54139 96.5448V105.682C7.54139 106.671 8.33287 107.473 9.30799 107.473C10.2831 107.473 11.0746 106.671 11.0746 105.682V96.5448C15.1007 95.7118 18.1412 92.0953 18.1412 87.7695C18.1414 87.5368 18.0408 64.4838 9.3082 64.4838ZM9.3082 93.1432C6.38616 93.1432 4.00819 90.7322 4.00819 87.7695C4.00819 78.8457 6.37208 68.0661 9.3082 68.0661C12.2443 68.0661 14.6082 78.8457 14.6082 87.7695C14.6082 90.7322 12.2302 93.1432 9.3082 93.1432Z" fill="#2D8EFF"/>
<path d="M19.9082 53.7366H12.8414C11.8663 53.7366 11.0748 54.5391 11.0748 55.5277V59.1102C11.0748 60.0989 11.8663 60.9014 12.8414 60.9014C13.8165 60.9014 14.608 60.0989 14.608 59.1102V57.3191H18.1414V66.2752C18.1414 67.2639 18.9329 68.0664 19.908 68.0664C20.8831 68.0664 21.6746 67.2639 21.6746 66.2752V55.5279C21.6748 54.5391 20.8833 53.7366 19.9082 53.7366Z" fill="#2D8EFF"/>
<path d="M87.0414 46.5717H94.108C95.0831 46.5717 95.8746 45.7692 95.8746 44.7805V34.0332C95.8746 33.0445 95.0831 32.2421 94.108 32.2421H87.0414C86.0663 32.2421 85.2748 33.0445 85.2748 34.0332V44.7805C85.2748 45.7692 86.0663 46.5717 87.0414 46.5717ZM88.8082 35.8244H92.3416V42.9892H88.8082V35.8244Z" fill="#2D8EFF"/>
<path d="M19.9082 32.2418H12.8414C11.8663 32.2418 11.0748 33.0443 11.0748 34.033V44.7803C11.0748 45.7689 11.8663 46.5714 12.8414 46.5714H19.908C20.8831 46.5714 21.6746 45.7689 21.6746 44.7803V34.033C21.6748 33.0443 20.8833 32.2418 19.9082 32.2418ZM18.1414 42.9891H14.6082V35.8243H18.1416V42.9891H18.1414Z" fill="#2D8EFF"/>
<path d="M57.0082 44.7803C57.0082 45.7689 57.7997 46.5714 58.7748 46.5714H65.8414C66.8165 46.5714 67.608 45.7689 67.608 44.7803V34.033C67.608 33.0443 66.8165 32.2418 65.8414 32.2418H58.7748C57.7997 32.2418 57.0082 33.0443 57.0082 34.033V44.7803ZM60.5414 35.8243H64.0748V42.9891H60.5414V35.8243Z" fill="#2D8EFF"/>
<path d="M104.708 21.4948H83.5082C82.5331 21.4948 81.7416 22.2972 81.7416 23.2859C81.7416 24.2746 82.5331 25.0771 83.5082 25.0771H102.942V97.0555C102.387 96.8548 101.799 96.726 101.175 96.726C100.869 96.726 100.566 96.7528 100.267 96.8066C99.048 94.5801 96.7284 93.1435 94.1084 93.1435C91.4884 93.1435 89.1689 94.5801 87.9499 96.8066C87.6513 96.7528 87.3474 96.726 87.0418 96.726C84.1198 96.726 81.7418 99.137 81.7418 102.1C81.7418 105.062 84.1198 107.473 87.0418 107.473H101.175C104.097 107.473 106.475 105.062 106.475 102.1V23.2859C106.475 22.2972 105.683 21.4948 104.708 21.4948ZM101.175 103.891H87.0414C86.0679 103.891 85.2748 103.087 85.2748 102.1C85.2748 101.113 86.0679 100.308 87.0414 100.308C87.3805 100.308 87.702 100.407 87.9989 100.6C88.483 100.916 89.0873 100.973 89.6208 100.755C90.1543 100.536 90.5483 100.067 90.6773 99.4989C91.0501 97.867 92.4617 96.726 94.1082 96.726C95.7547 96.726 97.1663 97.867 97.5391 99.4989C97.6681 100.067 98.0621 100.536 98.5956 100.755C99.1275 100.973 99.7332 100.916 100.217 100.6C101.368 99.8481 102.942 100.769 102.942 102.1C102.941 103.087 102.148 103.891 101.175 103.891Z" fill="#2D8EFF"/>
<path d="M58.7748 25.0771H65.8414C66.8165 25.0771 67.608 24.2746 67.608 23.2859V12.5386C67.608 11.5499 66.8165 10.7474 65.8414 10.7474H58.7748C57.7997 10.7474 57.0082 11.5499 57.0082 12.5386V23.2859C57.0082 24.2746 57.7997 25.0771 58.7748 25.0771ZM60.5414 14.3297H64.0748V21.4945H60.5414V14.3297Z" fill="#2D8EFF"/>
<path d="M57.0082 66.275C57.0082 67.2637 57.7997 68.0662 58.7748 68.0662H65.8414C66.8165 68.0662 67.608 67.2637 67.608 66.275V55.5277C67.608 54.5391 66.8165 53.7366 65.8414 53.7366H58.7748C57.7997 53.7366 57.0082 54.5391 57.0082 55.5277V66.275ZM60.5414 57.3191H64.0748V64.4839H60.5414V57.3191Z" fill="#2D8EFF"/>
<path d="M41.1082 25.0771H48.1748C49.1499 25.0771 49.9414 24.2746 49.9414 23.2859V12.5386C49.9414 11.5499 49.1499 10.7474 48.1748 10.7474H41.1082C40.1331 10.7474 39.3416 11.5499 39.3416 12.5386V23.2859C39.3414 24.2746 40.1329 25.0771 41.1082 25.0771ZM42.8748 14.3297H46.4082V21.4945H42.8748V14.3297Z" fill="#2D8EFF"/>
<path d="M52.2204 86.498C51.9024 86.8383 51.708 87.3041 51.708 87.7699C51.708 88.2356 51.9024 88.7012 52.2204 89.0417C52.556 89.3641 53.0154 89.5612 53.4748 89.5612C53.9342 89.5612 54.3934 89.3641 54.7292 89.0417C55.0472 88.7014 55.2416 88.2356 55.2416 87.7699C55.2416 87.3041 55.0472 86.8385 54.7292 86.498C54.0578 85.8351 52.8918 85.8351 52.2204 86.498Z" fill="#2D8EFF"/>
<path d="M39.3414 66.275C39.3414 67.2637 40.1329 68.0662 41.108 68.0662H48.1748C49.1499 68.0662 49.9414 67.2637 49.9414 66.275V55.5277C49.9414 54.5391 49.1499 53.7366 48.1748 53.7366H41.1082C40.1331 53.7366 39.3416 54.5391 39.3416 55.5277V66.275H39.3414ZM42.8748 57.3191H46.4082V64.4839H42.8748V57.3191Z" fill="#2D8EFF"/>
<path d="M35.8082 77.0225C35.8082 78.0111 36.5997 78.8136 37.5748 78.8136H42.8748V94.9346C42.8748 95.9233 43.6663 96.7257 44.6414 96.7257C45.6165 96.7257 46.408 95.9233 46.408 94.9346V78.8136H60.5414V94.9346C60.5414 95.9233 61.3329 96.7257 62.308 96.7257C63.2831 96.7257 64.0746 95.9233 64.0746 94.9346V78.8136H69.3746C70.3497 78.8136 71.1412 78.0111 71.1412 77.0225C71.1412 76.0338 70.3497 75.2313 69.3746 75.2313H37.5748C36.5997 75.2313 35.8082 76.0338 35.8082 77.0225Z" fill="#2D8EFF"/>
<path d="M85.2748 66.275C85.2748 67.2637 86.0663 68.0662 87.0414 68.0662H94.108C95.0831 68.0662 95.8746 67.2637 95.8746 66.275V55.5277C95.8746 54.5391 95.0831 53.7366 94.108 53.7366H87.0414C86.0663 53.7366 85.2748 54.5391 85.2748 55.5277V66.275ZM88.8082 57.3191H92.3416V64.4839H88.8082V57.3191Z" fill="#2D8EFF"/>
<path d="M76.4414 0H30.5082C29.5331 0 28.7416 0.80248 28.7416 1.79115V94.9345C28.7416 95.9231 29.5331 96.7256 30.5082 96.7256C31.4833 96.7256 32.2748 95.9231 32.2748 94.9345V3.5823H74.6748V94.9345C74.6748 95.9231 75.4663 96.7256 76.4414 96.7256C77.4165 96.7256 78.208 95.9231 78.208 94.9345V1.79115C78.2082 0.80248 77.4167 0 76.4414 0Z" fill="#2D8EFF"/>
</svg>
