<?xml version="1.0" encoding="utf-8"?><svg viewBox="0 0 64 64" xmlns="http://www.w3.org/2000/svg" xmlns:xlink="http://www.w3.org/1999/xlink"><style>:root>svg{display:none}:root>svg:target{display:block}</style><svg viewBox="0 0 64 64" id="img-1" xmlns="http://www.w3.org/2000/svg"><circle cx="32" cy="32" r="32" fill="inherit"/><g clip-path="url(#aclip0)"><path d="M43.554 42.603H19.377c-.063 0-.125-.005-.185-.014a7.637 7.637 0 01-5.05-2.3A7.483 7.483 0 0112 35.04c0-1.909.72-3.731 2.029-5.132a7.643 7.643 0 014.023-2.265 11.803 11.803 0 013.799-6.375 12.02 12.02 0 017.887-2.939c4.091 0 7.843 2.042 10.037 5.396a9.845 9.845 0 013.387-.591c5.425 0 9.838 4.367 9.838 9.735 0 2.526-.973 4.92-2.741 6.741a9.835 9.835 0 01-6.493 2.975c-.069.012-.14.019-.212.019zm-24.05-2.407h23.901c.032-.004.063-.007.096-.008 3.977-.176 7.092-3.392 7.092-7.32 0-4.04-3.334-7.329-7.431-7.329a7.436 7.436 0 00-3.348.785 1.204 1.204 0 01-1.601-.515c-1.654-3.13-4.901-5.074-8.475-5.074-4.752 0-8.82 3.497-9.462 8.135-.077.557-.53.986-1.09 1.034-2.68.227-4.779 2.482-4.779 5.135 0 2.777 2.204 5.04 5.018 5.151.027.001.053.003.079.006z" fill="#fff"/></g><defs><clipPath id="aclip0"><path fill="#fff" transform="translate(12 10)" d="M0 0h41v41H0z"/></clipPath></defs></svg><svg viewBox="0 0 64 64" id="img-2" xmlns="http://www.w3.org/2000/svg"><circle cx="32" cy="32" r="32" fill="inherit"/><path d="M27.86 37.72h-1.666l1.016-2.54a.967.967 0 10-1.795-.719l-1.547 3.867a.967.967 0 00.898 1.326h1.665l-1.016 2.542a.967.967 0 001.795.718l1.547-3.867a.967.967 0 00-.898-1.326zM22.123 26.248h8.379a1.936 1.936 0 001.933-1.934v-2.191a1.936 1.936 0 00-1.933-1.934h-8.379a1.936 1.936 0 00-1.934 1.934v2.191c0 1.067.868 1.934 1.934 1.934zm8.379-1.934h-4.131l1.096-2.191h3.035v2.191zm-8.379-2.191h3.182l-1.096 2.191h-2.086v-2.191z" fill="#fff"/><path d="M47.969 18.643h-.58v-1.676a.967.967 0 00-1.934 0v1.676h-2.191v-1.676a.967.967 0 00-1.934 0v1.676h-.58a.967.967 0 00-.967.966c0 2.553 1.108 5.397 3.61 6.009v13.327c0 1.6-1.301 2.9-2.9 2.9h-5.995V31.34c0-.367-.069-.717-.193-1.04a2.905 2.905 0 002.255-2.827V18.9c0-1.599-1.3-2.9-2.9-2.9H18.965c-1.6 0-2.9 1.301-2.9 2.9v8.573c0 1.377.965 2.533 2.255 2.827a2.885 2.885 0 00-.193 1.04V46.1c0 1.599 1.301 2.9 2.9 2.9h10.57c1.6 0 2.901-1.301 2.901-2.9v-2.32h5.994a4.84 4.84 0 004.834-4.835V25.618c2.502-.612 3.61-3.457 3.61-6.009a.967.967 0 00-.967-.966zm-29.971 8.83V18.9c0-.533.434-.966.967-.966H33.66c.533 0 .967.433.967.966v8.573a.968.968 0 01-.967.966H18.965a.968.968 0 01-.967-.966zM32.565 46.1a.968.968 0 01-.967.966h-10.57a.968.968 0 01-.967-.966V31.34c0-.533.433-.967.966-.967h10.57c.534 0 .968.434.968.967V46.1zm11.794-22.301c-1.59 0-2.35-1.687-2.571-3.223h5.143c-.221 1.536-.98 3.223-2.572 3.223z" fill="#fff"/></svg><svg viewBox="0 0 64 64" id="img-3" xmlns="http://www.w3.org/2000/svg"><circle cx="32" cy="32" r="32" fill="inherit"/><path d="M43.412 29.248h-8.976l7.75-13.628a1.084 1.084 0 00-.942-1.62H28.236c-.467 0-.881.3-1.028.742l-6.504 19.584a1.084 1.084 0 001.028 1.426h9.2l-5.86 13.739a1.084 1.084 0 001.808 1.144L44.224 31.05c.617-.698.121-1.803-.812-1.803zM29.687 44.195l3.882-9.102a1.085 1.085 0 00-.997-1.509h-9.338l5.784-17.416H39.38l-7.75 13.628c-.41.72.11 1.62.942 1.62h8.432L29.687 44.195z" fill="#fff"/></svg><svg viewBox="0 0 64 64" id="img-4" xmlns="http://www.w3.org/2000/svg"><circle cx="32" cy="32" r="32" fill="inherit"/><path d="M50.532 22.885l-.008-.008a.844.844 0 00-1.161.016.809.809 0 000 1.145 3.413 3.413 0 01-4.826 4.826c-.016-.016-.024-.024-.04-.032a15.058 15.058 0 00-4.575-4.2 8.616 8.616 0 00-4.581-11.301c-4.388-1.852-9.449.195-11.301 4.582a8.828 8.828 0 00-.666 2.81c-.861-.243-1.552-.357-2.088-.34-.861.008-1.495.544-1.593 1.332-.056.35-.016.861.171 2.526l.17 1.593c-1.56 1.267-2.786 2.746-3.671 4.403l-2.356.463A2.504 2.504 0 0012 33.154v5.223c0 1.195.837 2.218 2.007 2.454l2.364.471c.463.91 1.032 1.763 1.698 2.543a5.366 5.366 0 001.592 6.158 6.027 6.027 0 003.826 1.349 6.277 6.277 0 004.274-1.682l.568-.536c2.096.317 4.241.243 6.313-.195l.804.772a5.929 5.929 0 004.119 1.616h.195a6.036 6.036 0 004.208-1.86c1.706-1.804 1.91-4.517.56-6.646 1.528-2.128 2.333-4.565 2.333-7.084v-.593-.049c-.074-1.21-.39-2.461-.943-3.729a5.012 5.012 0 004.606-1.364 5.038 5.038 0 00.008-7.117zm-18.547-8.62a6.986 6.986 0 013.908 12.787c-.065.05-.13.147-.179.147H28.29c-.033 0-.073-.05-.114-.082a7.013 7.013 0 01-3.177-5.37c-.016-.186-.016-.349-.016-.495.008-3.851 3.136-6.979 7.003-6.987zM42.953 42.22c-.138.163-.35.536-.098 1.04.025.049.049.09.082.13 1.178 1.535 1.113 3.615-.155 4.956-.804.837-1.893 1.356-3.07 1.356h-.155a4.323 4.323 0 01-2.998-1.17l-1.056-1.007a.963.963 0 00-.877-.244c-2.088.496-4.25.561-6.37.203-.048-.008-.09-.008-.138-.008a.95.95 0 00-.69.269l-.797.755a4.64 4.64 0 01-2.965 1.235 4.449 4.449 0 01-2.998-.967 3.76 3.76 0 01-.99-4.566.889.889 0 00.089-.69.817.817 0 00-.195-.382 11.812 11.812 0 01-1.901-2.81.825.825 0 00-.155-.22 1.021 1.021 0 00-.577-.317l-2.616-.528a.879.879 0 01-.698-.861v-5.24a.863.863 0 01.698-.862l2.625-.528c.219-.04.422-.146.576-.316a.784.784 0 00.155-.212c.828-1.657 2.063-3.136 3.664-4.37.024-.025.048-.041.073-.065a.942.942 0 00.276-.7c0-.032 0-.056-.008-.088l-.211-1.95c-.073-.626-.195-1.755-.179-2.064h.032c.325-.008.951.049 2.105.423a8.547 8.547 0 002.315 4.785h-.772a.815.815 0 00-.812.812c0 .447.365.813.812.813h14.08a.815.815 0 00.812-.813.815.815 0 00-.813-.812h-.845c.358-.35.675-.74.943-1.162 1.876 1.137 3.42 2.665 4.484 4.42l.577 1.113c.593 1.226.934 2.47 1.015 3.607v.56c0 2.316-.787 4.55-2.274 6.475z" fill="#fff"/><path d="M23.252 31.675a2.079 2.079 0 102.08 2.08 2.073 2.073 0 00-2.08-2.08zm0 2.543a.454.454 0 11.455-.455.444.444 0 01-.455.455zM31.985 16.329a4.92 4.92 0 00-4.923 4.923 4.94 4.94 0 004.923 4.923 4.92 4.92 0 004.923-4.923 4.92 4.92 0 00-4.923-4.923zm0 8.221a3.3 3.3 0 01-3.298-3.298 3.3 3.3 0 013.298-3.299 3.3 3.3 0 013.299 3.299 3.3 3.3 0 01-3.299 3.298z" fill="#fff"/></svg></svg>