<svg viewBox="0 0 22 22" fill="none" xmlns="http://www.w3.org/2000/svg">
<path fill-rule="evenodd" clip-rule="evenodd" d="M15.7708 8.61338C16.9942 8.61338 17.2117 8.3234 18.0409 7.49421L19.5316 6.02615C19.5316 6.2074 19.5633 6.3977 19.5588 6.48832C19.5497 7.00486 19.4954 7.36734 19.3549 7.87029C18.8791 9.56037 17.5561 10.7747 15.7708 10.7747C14.9779 10.7747 14.7695 10.7974 13.9494 10.6252C13.0114 10.4213 12.2683 10.3488 11.4528 11.1145C11.3168 11.2459 11.2715 11.3501 11.1265 11.4951C10.5919 12.0253 10.0073 12.7366 9.52705 13.2351L8.87005 13.9374C8.73412 14.0733 8.63897 14.1594 8.53022 14.3044L5.64847 17.4444C5.5352 17.5667 5.42645 17.6483 5.31771 17.7706L4.66977 18.4911C3.03406 20.6343 1.52068 19.139 1.52068 18.0652C1.52068 17.68 1.64755 17.4172 1.81067 17.1816C1.96926 16.946 2.74407 16.3026 3.0114 16.0307C3.13827 15.9038 3.19717 15.8812 3.31951 15.7724L4.24385 14.907C4.48399 14.7167 4.63805 14.5219 4.86007 14.3497C4.98241 14.2545 5.04131 14.1956 5.15459 14.0778L6.1197 13.2124C6.22392 13.1082 6.29188 13.0221 6.40516 12.9315C6.55015 12.8182 6.59546 12.782 6.73139 12.646L9.83516 9.82317C11.2443 8.53183 10.2701 7.28579 10.2701 5.98084V5.36915C10.2701 3.05378 12.2593 1.50869 14.5973 1.50869C14.8329 1.50869 14.8057 1.55401 15.0187 1.55854C14.3526 2.55537 12.2185 3.58845 12.4768 5.41899C12.6127 6.39317 13.1972 6.81456 13.7591 7.37641C14.262 7.87935 14.8646 8.61338 15.7708 8.61338V8.61338ZM2.27284 17.97C2.27284 19.1118 3.77715 19.1118 3.77715 17.97C3.77715 17.6302 3.45091 17.313 2.92984 17.313C2.63985 17.313 2.27284 17.68 2.27284 17.97ZM8.71599 5.60477C8.71599 6.99127 9.04676 7.60749 9.04676 8.23731C9.04676 8.60432 8.17227 9.22508 7.74182 9.66006L6.6589 10.6478C6.1922 11.1191 5.02319 12.0842 4.52024 12.6007C4.37525 12.7457 4.2801 12.791 4.13963 12.9269C4.01276 13.0538 3.92667 13.1626 3.78621 13.2758C3.61856 13.4072 3.56419 13.4571 3.41466 13.6111L1.64755 15.2287C0.605412 16.0987 -0.119556 16.8146 0.0163752 18.3959C0.0526237 18.8626 0.156838 19.1028 0.329018 19.4471C0.419639 19.6284 0.474011 19.7371 0.59635 19.8866C0.872744 20.2265 0.904461 20.2854 1.28507 20.5572C2.32721 21.3139 3.84058 21.2595 4.88726 20.444C5.10475 20.2763 5.38114 19.9773 5.57598 19.7734L7.55151 17.6075C7.80072 17.3628 7.96384 17.1454 8.21305 16.9007L12.1868 12.6007C13.016 11.699 12.7577 12.0026 14.1442 12.2156C16.9852 12.6506 19.4546 11.6764 20.5828 9.00305C21.122 7.72077 21.3758 5.32837 20.5692 4.14124C20.3789 3.85578 20.1071 3.815 19.8171 3.815C19.441 3.815 19.0377 4.33607 18.8157 4.55809L17.0305 6.34333C16.7949 6.57441 16.4052 7.10907 16.0065 7.10907C15.4944 7.10907 15.1274 6.57894 14.842 6.29802C14.4025 5.85397 13.537 5.25587 14.2529 4.55356L15.6168 3.19425C15.9294 2.8816 16.2013 2.60974 16.5139 2.2971C16.7631 2.04789 17.2752 1.66728 17.2752 1.22777C17.2752 0.634202 16.822 0.443898 16.378 0.294373C14.3073 -0.403409 11.8288 0.176566 10.3019 1.6401C10.1614 1.77603 10.1116 1.83946 9.99375 1.98899C9.62674 2.44209 9.4319 2.66411 9.17363 3.28487C8.91536 3.89656 8.71599 4.7484 8.71599 5.60477V5.60477Z" fill="#2D8EFF"/>
</svg>
