<svg viewBox="0 0 32 22" fill="none" xmlns="http://www.w3.org/2000/svg">
<path fill-rule="evenodd" clip-rule="evenodd" d="M10.0876 15.7405C11.1979 15.7405 12.0334 16.5898 12.0334 17.7455C12.0334 19.2631 10.0527 20.3526 8.73349 19.0369C7.4595 17.7594 8.45851 15.7405 10.0876 15.7405V15.7405ZM1.58031 12.7017C1.58031 13.2621 1.98757 13.7355 2.55148 13.7355H7.11141C8.37148 13.7355 8.50376 11.727 6.92692 11.727H2.85779C2.13377 11.727 1.58031 12.089 1.58031 12.7017V12.7017ZM0 8.7509C0 9.47492 0.341125 9.90655 1.15565 9.90655H9.17556C10.7698 9.90655 10.6097 7.90157 9.36005 7.90157H0.971162C0.497764 7.90157 0 8.30187 0 8.7509H0ZM1.58031 4.9846C1.58031 5.5485 1.97713 6.01494 2.55148 6.01494H11.0587C11.4938 6.01494 12.0473 5.50673 11.922 4.85581C11.8036 4.2397 11.3476 4.00996 10.634 4.00996H2.79514C2.16858 4.00996 1.58031 4.38937 1.58031 4.9846V4.9846ZM23.5167 19.6286C22.5282 19.6286 21.5744 18.7793 21.5744 17.8673C21.5744 17.2164 21.644 16.7673 22.1627 16.2696C23.3671 15.107 25.4451 15.9807 25.4451 17.6828C25.4451 18.6992 24.568 19.6286 23.5167 19.6286ZM21.0871 3.95078H24.6724L26.5799 7.82847L21.0871 7.83891V3.95078V3.95078ZM3.7663 2.00498H19.0821V8.68824C19.0821 9.23822 19.277 9.52365 19.6286 9.72554C20.2238 10.0667 27.0985 9.63852 27.6833 9.87174C27.7321 9.89262 29.107 11.5495 29.107 11.727V16.7116H27.2865C27.2656 15.8031 26.0787 14.47 24.9787 14.0349C22.5421 13.0776 20.1751 14.6231 19.6878 16.7116H13.9165C13.1716 13.5197 8.73698 12.5868 6.81554 15.5073C6.65542 15.7509 6.32822 16.3531 6.32125 16.7116H3.7663C2.79862 16.7116 2.42964 17.916 3.17455 18.5217C3.51568 18.7932 4.03781 18.7166 4.61911 18.7166C5.18649 18.7166 5.75387 18.7166 6.32125 18.7166C6.36302 19.2283 6.85731 19.9419 7.18799 20.3387C7.34811 20.5302 7.44905 20.5893 7.63702 20.7425C9.10247 21.9329 11.1283 21.919 12.5903 20.732C13.0915 20.3213 13.4187 19.8618 13.6937 19.284C13.7982 19.0682 13.826 18.7166 14.0383 18.7166H19.566C19.7852 18.7166 19.7922 19.0299 19.8897 19.2457C21.5709 22.8971 26.5172 22.0095 27.2865 18.7166C27.9722 18.7166 30.1756 18.8489 30.6873 18.5356C30.931 18.3859 31.112 18.1353 31.112 17.7455V11.2432C31.112 10.8986 30.5968 10.3068 30.4019 10.0701C30.0991 9.69421 29.8589 9.34961 29.5526 8.97367C29.4133 8.80311 29.2567 8.6047 29.1349 8.42022L26.841 3.90901C26.19 2.61413 26.1239 1.9458 24.916 1.9458H21.0871C21.0871 1.30881 21.202 0.623075 20.7599 0.264546C20.5893 0.125311 20.3422 0 20.0533 0H3.82895C2.41572 0 2.45749 2.00498 3.7663 2.00498V2.00498Z" fill="#2D8EFF"/>
</svg>
