<svg viewBox="0 0 21 24" fill="none" xmlns="http://www.w3.org/2000/svg">
<path fill-rule="evenodd" clip-rule="evenodd" d="M19.2276 20.1127C19.172 20.146 19.1164 20.1765 19.0553 20.2071C19.1164 20.3488 19.2831 20.6599 19.4609 20.9682C19.5914 21.2015 19.7247 21.4292 19.822 21.5765C19.8525 21.3848 19.8775 21.1682 19.8997 20.9821L19.9053 20.9126C19.9303 20.7043 19.9553 20.5432 19.9747 20.421C20.0247 20.0988 20.0331 20.0488 19.8747 19.7432C19.7859 19.7849 19.6775 19.8516 19.5859 19.9071C19.5525 19.9293 19.522 19.946 19.4775 19.971C19.3831 20.0266 19.2998 20.0738 19.2276 20.1127V20.1127ZM9.33094 4.59139C9.05595 4.86915 8.87541 5.25246 8.87541 5.71354C8.87541 6.15796 9.05595 6.56627 9.35038 6.86069C9.64481 7.15234 10.0476 7.33566 10.4975 7.33566C10.9669 7.33566 11.3558 7.15512 11.6336 6.87458C11.7863 6.72181 11.9086 6.53849 11.9891 6.3385C12.0724 6.13851 12.1169 5.92186 12.1169 5.70521C12.1169 5.30523 11.9697 4.89692 11.6419 4.56917C11.3197 4.24696 10.917 4.10253 10.5198 4.10253C10.2975 4.10253 10.0809 4.14697 9.87812 4.2303C9.67536 4.31363 9.48926 4.43584 9.33094 4.59139V4.59139ZM7.92824 5.58022V5.48578C7.92824 5.30801 7.96435 5.1358 8.0199 4.9747C8.07268 4.81637 8.13656 4.67472 8.19767 4.55528C8.43099 4.08864 8.75597 3.73588 9.16428 3.49979C9.57537 3.26091 10.067 3.14425 10.6336 3.14425C11.2586 3.14425 11.8669 3.43868 12.3196 3.89143C12.7696 4.3414 13.0668 4.9497 13.0668 5.57466C13.0668 5.8302 13.064 6.04408 13.0279 6.25795C12.9918 6.47183 12.9224 6.68015 12.7946 6.91902C12.5335 7.4051 12.153 7.76897 11.7113 7.99951C11.3336 8.19672 10.9142 8.29949 10.4948 8.29949C10.0726 8.30227 9.65314 8.20228 9.27261 7.99951C8.84485 7.76897 8.46988 7.40788 8.206 6.91069C7.92824 6.37739 7.92824 6.11352 7.92824 5.58022ZM9.52537 0H11.5447C11.6391 0 11.7197 0.0416641 11.7808 0.102772C11.8502 0.169434 11.9002 0.263873 11.9252 0.344423C11.9891 0.536078 11.9808 1.22493 11.9752 1.62768C11.9752 1.67212 11.9752 1.71101 11.9724 1.75545C12.2641 1.84155 12.5752 2.01099 12.8668 2.21931C13.239 2.48596 13.5862 2.81372 13.8112 3.09981C14.3556 3.7831 14.6584 4.64138 14.7112 5.50244C14.7612 6.33573 14.5723 7.17178 14.1334 7.85785L20.5941 19.0711C20.6525 19.1683 20.6997 19.246 20.7414 19.3127C20.8913 19.5627 20.9663 19.6849 20.9913 19.8432C21.0136 19.9932 20.9913 20.1488 20.9441 20.4543C20.9247 20.5765 20.9025 20.721 20.8802 20.8765H20.883L20.6469 22.7375V22.7403C20.6441 22.7597 20.6414 22.7847 20.6386 22.8153C20.6164 23.0597 20.5747 23.543 20.1997 23.543C19.8053 23.543 19.7275 23.3986 19.5248 23.0208C19.4692 22.9153 19.4025 22.7903 19.3137 22.6431H19.3109L17.4277 19.3822C17.3916 19.3238 17.3638 19.2683 17.3332 19.2155C17.3054 19.1655 17.2777 19.1127 17.2471 19.0627L15.3778 15.8268C15.2584 15.6268 14.7167 14.7102 14.3279 14.0214C14.1473 13.7047 13.9973 13.4325 13.9334 13.2936H10.9753C10.9781 13.352 10.9808 13.4186 10.9808 13.477H10.9781C10.9781 13.7742 10.9253 14.113 10.5892 14.113C10.0809 14.113 10.0198 13.9436 10.0198 13.5436C10.0198 13.5158 10.0198 13.4547 10.0226 13.3909C10.0226 13.3603 10.0226 13.3297 10.0226 13.2936H7.06441C6.94497 13.5575 6.55055 14.213 6.395 14.4713C6.35334 14.538 6.36445 14.5213 6.34501 14.5519L2.96466 20.4154V20.4182C2.89522 20.5321 2.83689 20.6376 2.77856 20.7432C2.72578 20.8376 2.67301 20.9321 2.60079 21.0543C2.52302 21.1848 2.48691 21.2459 2.45358 21.3043C2.36469 21.4515 2.28137 21.5931 2.21193 21.7126L1.30087 23.3069L1.29532 23.3097C1.25643 23.3736 1.20643 23.4236 1.15088 23.4625C1.09255 23.5013 1.02589 23.5291 0.959225 23.5402L0.948114 23.543H0.795346L0.784235 23.5402C0.700907 23.5263 0.620356 23.4875 0.553694 23.4264C0.492586 23.3708 0.442589 23.2986 0.409258 23.2069L0.406481 23.1958L0.098166 20.8015V20.7987C0.0759451 20.6182 0.0565019 20.4793 0.0426138 20.3654C0.000949689 20.0766 -0.0184936 19.9349 0.0231706 19.7738C0.0620571 19.6238 0.148163 19.4821 0.317597 19.2044C0.403703 19.06 0.514807 18.8794 0.65091 18.6405L0.756459 18.4572C0.920338 18.1767 1.07588 17.9045 1.23143 17.6128C1.12866 17.5656 1.00644 17.4906 0.89534 17.4239C0.828677 17.3851 0.764792 17.3462 0.712017 17.3184C0.159273 17.0212 0.131497 16.8323 0.350928 16.4184C0.398148 16.3323 0.456477 16.2351 0.525918 16.124C0.612024 15.9824 0.712017 15.8157 0.820344 15.6213C1.39253 14.5741 1.49253 14.4436 2.02583 14.7352C2.09804 14.7769 2.17859 14.8241 2.27026 14.8769C2.38969 14.9491 2.53135 15.0352 2.70078 15.1269C2.88133 14.763 3.45907 13.7742 3.86183 13.0853C4.04237 12.7714 4.18958 12.5215 4.23958 12.4326L6.64221 8.2745V8.27172C6.68388 8.20783 6.67276 8.2245 6.67832 8.21617C6.74776 8.10228 6.8422 7.94952 6.87553 7.84952C6.8672 7.82452 6.83942 7.78286 6.80609 7.72731C6.63388 7.44955 6.28945 6.88569 6.28945 5.57466C6.28945 4.93581 6.47278 4.30529 6.7672 3.74699C7.08941 3.14703 7.54493 2.6304 8.04768 2.27764C8.19212 2.17765 8.41432 2.04432 8.63653 1.93322C8.78375 1.861 8.93652 1.79711 9.06706 1.75823C9.06706 1.68879 9.06706 1.68601 9.06706 1.50824C9.06706 1.26937 9.06984 1.03049 9.06706 0.791618C9.06429 0.547189 9.06984 0.377755 9.12261 0.252762C9.18372 0.108327 9.2976 0.0333313 9.5087 0.00277761L9.51981 0H9.52537V0ZM0.995333 20.0127L1.18699 21.5515C1.23421 21.4737 1.29254 21.3793 1.35364 21.2765C1.5703 20.9126 1.83139 20.4488 1.95639 20.2154C1.8425 20.1682 1.73695 20.1016 1.63418 20.0349C1.5953 20.0099 1.55363 19.9849 1.52308 19.9654H1.5203L1.47864 19.9377C1.37864 19.8793 1.23699 19.7932 1.12866 19.746C1.11199 19.7821 1.08977 19.8155 1.07033 19.8516C1.03422 19.9099 0.998111 19.9682 0.995333 20.0127V20.0127ZM1.42031 16.6157C1.5203 16.6712 1.64252 16.7406 1.73418 16.7795C1.80362 16.624 1.94805 16.3823 2.07027 16.174C2.11749 16.0935 2.16193 16.0157 2.19804 15.9546C2.15082 15.924 2.10082 15.8935 2.04527 15.8629V15.8601C1.98138 15.824 1.9175 15.7879 1.85639 15.7546C1.80084 15.8768 1.70918 16.0268 1.61752 16.1768C1.52308 16.3323 1.42864 16.4851 1.3842 16.5934L1.42031 16.6157V16.6157ZM10.0226 12.2993V11.9076C10.0226 11.8354 10.0337 11.7715 10.0559 11.716C10.0809 11.6548 10.1142 11.6076 10.1614 11.566C10.1948 11.5326 10.2587 11.4993 10.3225 11.4743C10.3836 11.4521 10.4503 11.4354 10.4975 11.4354C10.9169 11.4354 10.9808 11.7632 10.9808 12.0882C10.9808 12.1409 10.9781 12.2076 10.9753 12.2687L10.9725 12.2993H13.3474C13.2918 12.1826 13.2057 12.0409 13.1279 11.9132C13.0863 11.8437 13.0474 11.7798 13.014 11.7215L12.2113 10.3355C12.1558 10.2383 12.1002 10.1438 12.0474 10.0494C11.9836 9.94384 11.9224 9.83829 11.8613 9.72441C11.7113 9.77996 11.5169 9.82718 11.3114 9.86329C11.0281 9.91328 10.7225 9.94384 10.4975 9.94384C9.94756 9.94384 9.72258 9.87718 9.43371 9.79107C9.34482 9.76607 9.25316 9.7383 9.13928 9.71052L7.96991 11.7548L7.96713 11.7576C7.94769 11.7909 7.93102 11.8159 7.91436 11.8437C7.8338 11.9743 7.71992 12.1604 7.65048 12.2993H10.0226V12.2993ZM13.0363 9.08556C12.9418 9.16333 12.8446 9.23833 12.7307 9.28832C12.7391 9.31054 12.7474 9.33554 12.7641 9.36887C12.7918 9.41887 12.8029 9.43554 12.8168 9.45498C12.8307 9.47442 12.8446 9.49664 12.8668 9.53275C12.8918 9.57442 12.9196 9.62441 12.9474 9.67163C12.9779 9.72996 13.0085 9.78551 13.0474 9.8494L13.7834 11.1215C13.8612 11.2493 13.9334 11.3826 14.0084 11.516C14.0612 11.6076 14.114 11.7021 14.1473 11.7604C14.5028 12.377 14.8778 13.0187 15.2584 13.6658C15.8972 14.7547 16.5416 15.8546 17.1221 16.899C17.1471 16.9434 17.2471 17.1184 17.3832 17.3462C17.7471 17.9683 18.3609 19.0183 18.5332 19.3822C18.672 19.3294 18.8359 19.2238 18.9942 19.1238C19.122 19.0433 19.247 18.9655 19.3609 18.9127L18.6665 17.6823C18.5498 17.485 18.4359 17.2851 18.3248 17.0851C18.1915 16.8545 18.0637 16.6268 17.9193 16.3851C17.5082 15.7046 17.0971 14.9796 16.6888 14.2575C16.35 13.6631 16.0139 13.0659 15.6694 12.4854C15.4889 12.1798 15.2084 11.6854 14.9028 11.1465C14.3862 10.2355 13.7973 9.19388 13.4779 8.69391C13.439 8.73002 13.4001 8.76613 13.364 8.80502C13.2974 8.8689 13.2279 8.93834 13.1335 9.01056C13.0974 9.03556 13.0668 9.06056 13.0363 9.08556V9.08556ZM2.15915 19.2211C2.25637 19.2822 2.35358 19.3405 2.45913 19.3822C2.53413 19.2016 2.69523 18.9377 2.77578 18.8016L2.79245 18.7739C2.85911 18.6655 2.92299 18.56 2.98132 18.46C3.04243 18.3544 3.10076 18.2489 3.15909 18.1433C3.49796 17.5128 3.89516 16.8462 4.28958 16.1768C4.67011 15.5379 5.04786 14.8991 5.37562 14.2991C5.88115 13.452 6.34778 12.5687 6.85886 11.7243C6.93108 11.6048 7.49494 10.6521 7.89769 9.93551C8.05879 9.65497 8.19212 9.41331 8.256 9.28554C8.05879 9.19944 7.87825 9.03001 7.71714 8.88001C7.63382 8.80224 7.55882 8.7328 7.49771 8.68836C7.23662 9.22444 6.09502 11.1715 5.5645 12.077C5.43673 12.2965 5.34229 12.4548 5.30896 12.5103L4.1757 14.4797C3.80072 15.0963 3.40074 15.8101 3.00077 16.5212C2.57579 17.2795 2.15082 18.035 1.74529 18.6989C1.72862 18.7239 1.71473 18.7461 1.70085 18.7655C1.67307 18.8127 1.64252 18.86 1.61752 18.9072C1.73695 18.96 1.87584 19.0461 1.98416 19.1127C2.01194 19.1322 2.03971 19.1461 2.06471 19.1627C2.10638 19.1877 2.13138 19.2044 2.15915 19.2211V19.2211ZM9.5587 8.82724C9.85868 8.92168 10.1781 8.97445 10.4975 8.97445C10.7225 8.97445 10.9447 8.9439 11.153 8.89946C11.403 8.84391 11.6364 8.76335 11.8336 8.67725C12.2946 8.48004 12.7002 8.16339 13.0196 7.77175C13.3362 7.38011 13.564 6.91069 13.6668 6.41628C13.7473 6.03574 13.7696 5.69688 13.7362 5.36912C13.7001 5.04414 13.6085 4.72193 13.464 4.37473C13.4307 4.29418 13.3835 4.2053 13.3335 4.11919C13.2751 4.02198 13.2113 3.92476 13.1557 3.84977C13.0113 3.65533 12.9057 3.51923 12.7863 3.40257C12.6696 3.28313 12.5335 3.17758 12.3363 3.03593C11.8808 2.70817 11.3475 2.52207 10.7975 2.47485C10.2392 2.42763 9.66147 2.52207 9.13095 2.76094C8.87263 2.87482 8.66987 3.00815 8.48932 3.15814C8.306 3.31091 8.1449 3.4859 7.96991 3.67755C7.58938 4.09975 7.3505 4.68583 7.27273 5.29968C7.19495 5.90797 7.27828 6.54405 7.54216 7.07735C7.68381 7.36344 7.83658 7.60787 8.01713 7.82452C8.20045 8.04118 8.41432 8.23283 8.68098 8.4106C8.93652 8.58281 9.2365 8.72725 9.5587 8.82724V8.82724ZM10.0142 0.947164V1.51657C10.1309 1.49713 10.2725 1.4888 10.417 1.4888C10.6142 1.4888 10.8253 1.50546 10.9808 1.52768V0.947164H10.0142Z" fill="#2D8EFF"/>
</svg>
