<svg viewBox="0 0 24 24" fill="none" xmlns="http://www.w3.org/2000/svg">
<path fill-rule="evenodd" clip-rule="evenodd" d="M1.99919 9.40211C1.99919 7.41282 2.83548 5.51756 4.17652 4.17652C4.34477 4.00827 4.47343 3.92415 4.64168 3.7559C5.70065 2.72166 7.77901 1.99919 9.40211 1.99919C9.94645 1.99919 10.5254 2.06846 11.0005 2.16743C13.1481 2.63259 15.1473 4.13693 16.0677 6.12622C16.3894 6.81406 16.6318 7.34849 16.7457 8.15015C16.9634 9.72871 16.8545 11.1737 16.1469 12.6087C15.7956 13.3263 15.2562 14.123 14.6871 14.6871L14.2516 15.0879C13.1877 16.0331 11.3023 16.8446 9.81779 16.8446C8.73902 16.8446 8.52128 16.8545 7.46231 16.5923C7.1753 16.523 7.05158 16.4586 6.79921 16.3745C6.54189 16.2904 6.40333 16.2013 6.15591 16.0826L5.58189 15.7758C4.70106 15.2512 3.82518 14.4397 3.266 13.5786C2.72166 12.7473 2.40001 12.0001 2.17733 11.0401C2.07341 10.5996 1.99919 9.95634 1.99919 9.40211V9.40211ZM8.92211 0H10.0751C10.4809 0.0247424 10.8867 0.0841242 11.2776 0.168248C11.8219 0.287012 12.6978 0.539384 13.1828 0.776911C13.7865 1.06887 13.6628 0.969902 14.2863 1.34599C15.2661 1.93486 16.0034 2.59795 16.7358 3.45899L17.2751 4.17652C17.8541 5.09694 18.0174 5.42353 18.3638 6.39344C18.9725 8.08087 19.0566 10.4017 18.4776 12.104C18.1065 13.1976 17.8046 13.925 17.1217 14.89C17.0079 15.0533 16.8991 15.172 16.8001 15.3551C16.9535 15.5877 22.476 21.0558 23.1144 21.6941C23.3717 21.9515 23.8269 22.2929 23.8269 22.7531C23.8269 23.3915 23.4212 23.8269 22.8966 23.8269C22.2583 23.8269 22.09 23.5102 21.6743 23.0896C21.031 22.4513 15.5828 16.9485 15.3551 16.8001C15.172 16.8941 15.0384 17.0129 14.8652 17.1465C13.7766 17.9679 12.0693 18.6063 10.6887 18.7844C8.69448 19.0467 6.91303 18.7152 5.18106 17.8541C4.96333 17.7453 4.83961 17.676 4.63673 17.5572C3.32538 16.7753 2.58806 16.0133 1.633 14.7465C1.34104 14.3506 1.08372 13.8557 0.885778 13.4005C0.1633 11.7922 0 10.9213 0 9.07551C0 7.3188 0.796705 5.23054 1.74187 3.97363C1.90022 3.76085 2.05362 3.52827 2.22187 3.34022C2.49898 3.03342 2.7662 2.72166 3.07796 2.47424C3.19177 2.38022 3.25115 2.2961 3.36497 2.20207C4.85446 0.935263 6.87839 0.12866 8.92211 0V0Z" fill="#2D8EFF"/>
</svg>
