<svg viewBox="0 0 20 25" fill="none" xmlns="http://www.w3.org/2000/svg">
<path fill-rule="evenodd" clip-rule="evenodd" d="M1.46009 15.0993V14.2075H18.1113C18.1113 14.9244 18.2337 16.1135 17.3769 16.3408C16.6731 16.5332 16.214 16.0916 16.1747 16.5987C16.1616 16.8086 16.1572 16.861 16.1266 17.0665C15.8993 18.6752 15.3048 19.6763 14.3605 20.7561C14.2468 20.8828 14.1988 20.8916 14.0764 20.9921C13.8228 21.2063 13.9321 21.1714 13.5387 21.4424C13.3201 21.5867 13.1671 21.7003 12.9354 21.8271C11.401 22.6577 9.80974 22.9112 8.06549 22.4173C7.34856 22.2162 7.25676 22.1419 6.66223 21.8402C6.2819 21.6479 5.55623 21.1058 5.25459 20.8042L4.55514 19.9517C4.04367 19.261 3.56718 18.1594 3.4404 17.1146C3.35297 16.3976 3.46663 16.3933 3.20434 16.3627C2.80653 16.3233 1.46009 16.7168 1.46009 15.0993V15.0993ZM8.32778 20.555C8.32778 20.6643 8.35838 20.6949 8.46767 20.6949H11.0993C11.2086 20.6949 11.2436 20.6643 11.2436 20.555V19.2391H8.32778V20.555ZM1.46009 10.7234H18.1113V12.7474H1.46009V10.7234V10.7234ZM7.24364 3.01199V5.87972H8.70374V1.41201H10.8676V5.87972H12.3234V3.01199C12.5944 3.07319 12.9922 3.28303 13.2327 3.41854C13.5561 3.59778 13.7572 3.75515 14.0458 3.96936C15.5583 5.10159 16.7474 7.1737 16.7474 9.31575H2.82401C2.82401 6.84146 4.32345 4.58575 6.30376 3.43603C6.52234 3.30926 6.98135 3.07319 7.24364 3.01199V3.01199ZM7.24364 1.36392C7.24364 1.54315 7.04255 1.5213 6.69283 1.66119C5.95841 1.94971 4.86552 2.57921 4.29285 3.11691C4.19668 3.20434 4.15296 3.26991 4.05242 3.3486C3.58466 3.72018 2.80653 4.73438 2.52238 5.25022C2.05462 6.11141 1.76173 6.76277 1.55627 7.76386L1.36392 9.31575H0V14.9594C0 16.3758 0.896166 17.7528 2.11583 17.7791C2.13768 18.802 3.08631 20.4151 3.73767 21.2413L4.12673 21.696C5.44694 23.0686 7.54528 24.0828 9.45564 24.0828C11.3922 24.0828 12.4195 23.7987 13.9846 22.8763C14.1725 22.767 14.3255 22.649 14.4873 22.5309C15.261 21.9757 16.0261 21.0883 16.5113 20.2752C16.7299 19.9167 16.896 19.5452 17.0752 19.143C17.1845 18.8982 17.4424 18.1025 17.4512 17.7791C18.3342 17.7616 19.1036 16.9485 19.3965 16.061C19.5014 15.755 19.567 15.3441 19.567 14.9594V9.31575H18.2031L18.1375 8.53325C17.9102 6.95075 17.3681 5.4688 16.3583 4.24477C15.6895 3.43166 14.9769 2.79341 14.072 2.24697L12.5988 1.56064C12.201 1.43824 12.3234 1.5213 12.3234 0H7.24364V1.36392V1.36392Z" fill="#2D8EFF"/>
</svg>
