<svg viewBox="0 0 25 24" fill="none" xmlns="http://www.w3.org/2000/svg">
<path fill-rule="evenodd" clip-rule="evenodd" d="M15.3342 18.815H18.9548C19.0636 18.815 19.0978 18.8492 19.0978 18.9548V22.5786H15.3342V18.815ZM9.73693 7.66709H14.3459V6.25612H9.73693V7.66709ZM10.1596 18.9548C10.1596 18.8492 10.1938 18.815 10.3026 18.815H13.7834C13.889 18.815 13.9232 18.8492 13.9232 18.9548V22.5786H10.1596V18.9548ZM4.98501 18.9548C4.98501 18.8492 5.0192 18.815 5.12797 18.815H8.74863V22.5786H4.98501V18.9548V18.9548ZM12.7484 13.6404H16.509V17.404H12.7484V13.6404V13.6404ZM8.04314 15.6636H11.3375V17.404H8.04314V15.6636ZM11.3375 14.2527H6.63218V17.404H4.98501V10.489H19.0978V17.404H17.9199V12.2294H11.3375V14.2527V14.2527ZM3.57404 22.5786H1.41097V7.76033C1.41097 7.58318 2.53601 7.04241 2.67898 6.9585L8.01207 3.91901C8.60878 3.5958 11.9155 1.66892 12.043 1.66892C12.1704 1.66892 14.8431 3.23528 15.3808 3.52742L22.041 7.30969C22.2585 7.44022 22.6718 7.61115 22.6718 7.76033V22.5786H20.5088V9.07806H3.57404V22.5786V22.5786ZM0 6.91499V23.9896H24.0828V6.91499C24.0828 6.74095 22.7868 6.08519 22.6408 6.00439C22.3704 5.85521 22.1684 5.7309 21.8887 5.58172C21.6307 5.44497 21.3976 5.30512 21.1397 5.15283C20.1265 4.55612 19.1227 4.01225 18.1126 3.43108C17.6185 3.14826 17.1088 2.87788 16.6146 2.57952C16.3598 2.42724 16.1267 2.2936 15.8656 2.15064C15.589 1.99525 15.3653 1.85229 15.0825 1.70932L12.043 0L0.152285 6.73784C0.0559415 6.79689 0 6.77514 0 6.91499H0Z" fill="#2D8EFF"/>
</svg>
