<svg width="130" height="130" viewBox="0 0 130 130" fill="none" xmlns="http://www.w3.org/2000/svg">
<circle cx="65" cy="65" r="65" fill="#2D8EFF"/>
<path fill-rule="evenodd" clip-rule="evenodd" d="M83.1544 78.2703C83.1544 77.2905 83.677 76.1729 84.1919 75.6595C87.6303 72.2337 92.7602 77.0626 89.5246 80.7411C87.3717 83.1888 83.1544 81.4341 83.1544 78.2703ZM80.1897 55.1435H91.3752C90.6842 54.1078 90.1455 53.0444 89.4086 51.9775C88.0198 49.9659 86.2338 47.979 84.0537 46.8025C83.2126 46.3489 81.2668 45.4959 80.1897 45.4058V55.1435ZM31 69.7028V69.4501C31.0451 68.5758 31.557 67.7402 32.6282 67.5968C34.5498 67.3399 50.5283 67.8746 51.8691 67.4313C53.6648 66.8368 53.6933 64.2022 51.7653 63.6525C50.57 63.3116 33.6015 63.7106 32.5117 63.4993C31.6225 63.3265 31.0876 62.5622 31 61.7369V61.2586C31.0659 60.6368 31.3938 60.0381 32.0235 59.6869C32.6124 59.3579 33.3915 59.4705 34.2342 59.471L44.2078 59.4722C45.9283 59.4821 47.1721 59.1411 47.1721 57.4427C47.1721 55.8271 46.2349 55.5361 44.4783 55.5472L35.5801 55.551C34.6952 55.5582 34.3257 55.5719 33.8018 55.1716C32.282 54.0105 33.1389 51.4919 34.7734 51.4919H37.4689V46.7581C37.4689 45.929 38.3942 45 39.2208 45H76.1467V56.7663C76.1467 59.7927 78.8732 59.2008 81.8069 59.2008C84.5019 59.2008 87.1974 59.2008 89.8929 59.2008C93.3193 59.2008 94.6099 58.9226 96.9915 60.1913C98.5832 61.0384 100 62.7619 100 65.1516V77.9998C100 78.9206 99.0785 79.7195 98.1197 79.7643C96.9707 79.8181 95.6444 79.7579 94.4747 79.7579C94.41 80.5371 93.8636 81.6701 93.5417 82.2027C91.9658 84.8121 89.6361 85.9792 86.3886 85.9792C82.8873 85.9792 79.4771 82.5436 79.2462 79.7579H58.7619C58.6973 80.5371 58.1505 81.6701 57.829 82.2027C54.7937 87.2279 47.5446 87.3316 44.4149 82.119C44.1007 81.5954 43.59 80.4449 43.5334 79.7579C41.6812 79.7579 39.0035 80.0843 38.1021 79.2578C37.8104 78.9898 37.4689 78.5037 37.4689 77.9998V71.6431H32.7519C31.6765 71.6431 31.0489 70.6877 31 69.7028H31ZM47.4417 78.2703C47.4417 74.9614 51.4774 73.2967 53.6814 75.5247C57.0606 78.9403 52.3177 84.1537 48.6182 80.8764C48.0782 80.398 47.4417 79.2206 47.4417 78.2703Z" fill="white"/>
</svg>
