<svg width="121" height="102" viewBox="0 0 121 102" fill="none" xmlns="http://www.w3.org/2000/svg">
<path d="M16.3993 0C2.43316 14.8755 -3.62742 36.4862 2.29802 57.5592C11.2988 89.569 44.5491 108.224 76.559 99.2235C108.569 90.2228 127.224 56.9724 118.223 24.9626C115.504 15.2911 110.571 6.83875 104.127 0H88.7729C98.072 6.41418 105.273 15.9797 108.563 27.679C116.052 54.3127 100.476 82.074 73.8426 89.5631C47.2087 97.0521 19.4475 81.4766 11.9585 54.8428C6.01537 33.707 14.5972 11.8612 31.7039 0H16.3993Z" fill="#D9EBFF"/>
<path d="M60.5619 51.6005L60.1075 77.7888L81.6954 24.8094L59.9594 30.9214L60.4137 4.73303L38.8259 57.7123L60.5619 51.6005Z" fill="#D9EBFF"/>
</svg>
