<svg width="130" height="130" viewBox="0 0 130 130" fill="none" xmlns="http://www.w3.org/2000/svg">
<circle cx="65" cy="65" r="65" fill="#2D8EFF"/>
<path fill-rule="evenodd" clip-rule="evenodd" d="M56.2813 75.1382C55.4191 74.5685 43.5099 62.3081 41.9763 61.1755C38.0261 58.2583 34 61.8273 34 64.5051V64.5626V64.6191C34.0006 65.7775 34.0188 66.3278 34.642 67.4558C35.2011 68.4679 43.1925 76.1431 44.081 77.0199C45.0802 78.0055 52.121 85.0535 52.9601 85.7027C53.3407 85.9972 53.3255 86.0918 53.7749 86.3325C56.0125 87.5302 58.317 87.0696 60.066 85.3237C70.5816 74.8262 81.3768 64.2971 91.9735 53.8422C94.3653 51.4824 96 50.5293 96 47.5399C96 45.2453 93.6373 43 91.6406 43C89.2668 43 88.5869 43.3185 86.7059 45.1803C86.3138 45.5684 86.0089 45.8681 85.6162 46.2556L64.7274 66.8647C64.0593 67.5239 56.8129 74.7868 56.2813 75.1382Z" fill="white"/>
</svg>
