<svg width="130" height="130" viewBox="0 0 130 130" fill="none" xmlns="http://www.w3.org/2000/svg">
<circle cx="65" cy="65" r="65" fill="#2D8EFF"/>
<path fill-rule="evenodd" clip-rule="evenodd" d="M33.7148 47C33.7148 45.4042 33.7123 43.8085 33.7206 42.213C33.7393 38.6157 29 39.1282 29 41.9375V53.8907C29 54.8376 30.0471 56 31.6348 56H41.8965C45.0535 56 45.3353 51.3361 42.0336 51.0797C40.6002 50.9684 38.6698 51.0781 37.1817 51.0781C37.6014 49.2509 41.6473 44.2285 42.6245 43.2383C45.4982 40.3262 46.6854 39.5864 50.1366 37.4968C50.8498 37.065 51.5608 36.786 52.3007 36.457C66.5036 30.1416 83.0122 35.6767 90.8414 48.8345C92.6443 51.8645 93.833 55.0256 94.6224 58.5001C96.9809 68.88 93.1168 80.0679 86.4448 86.832C77.0577 96.3489 62.7423 98.8696 50.9095 92.8444C47.9201 91.3223 47.146 90.5979 44.8074 88.7669C43.3925 87.6591 42.6413 86.6413 41.6517 85.6388C41.294 85.2765 41.0992 84.9744 40.756 84.5785C37.1785 80.4524 34.7316 74.0043 34.1058 68.4004C33.9744 67.2235 33.9787 65.8615 33.8416 64.5902C33.5502 61.8895 29.1387 61.9115 29.1387 64.8594C29.1387 70.855 30.2549 75.8494 32.513 80.4219C34.5964 84.6406 36.2564 87.1946 39.6431 90.6289C42.8434 93.8744 45.7449 95.7088 49.7067 97.7204C50.2173 97.9797 50.6374 98.1335 51.1677 98.3483C51.6736 98.5531 52.1676 98.7747 52.7635 98.98C56.6314 100.313 60.568 100.973 64.442 101H64.9833C75.1383 100.915 84.8178 96.466 91.6382 88.3017C93.0673 86.591 94.0534 85.1123 95.1904 83.1851C95.7607 82.2183 96.1795 81.3187 96.6724 80.3287C98.2964 77.0667 100 71.1658 100 66.2657V63.5938C100 58.7314 98.279 52.9209 96.6719 49.6718C96.1953 48.7082 95.7682 47.8588 95.2425 46.9027C93.7772 44.2382 91.7083 41.615 89.6343 39.5117C88.1908 38.0479 86.7629 36.7646 85.0509 35.5815C83.4739 34.4918 82.8512 34.0389 81.0929 33.1265C76.3181 30.6491 71.2869 29.2444 66.1625 29H62.9394C59.7312 29.152 56.5 29.76 53.2852 30.846C45.6787 33.4156 38.4183 39.0368 34.3644 46.1118C34.1486 46.4885 34.0226 46.7713 33.7148 47ZM52.7129 62.4688C53.4659 62.6727 61.3896 68.4524 62.1426 68.6562V77.2344C61.3477 76.8079 60.5317 76.1923 59.7852 75.6875L52.7129 70.9063V62.4688ZM71.2949 65C72.3022 65 73.2276 64.9082 73.7965 63.5984C74.7282 61.453 72.7646 60.4624 71.5722 59.6563C70.1862 58.719 62.0147 53.305 61.7266 52.9062C62.4353 52.7143 64.0437 51.2188 64.5 51.2188C64.788 51.2188 72.5406 56.5611 73.4581 57.1814C73.9376 57.5056 76.2872 58.8947 76.2872 59.375V70.625C76.2872 71.1928 72.1448 73.7067 71.711 74L66.8575 77.2344C66.8575 75.4132 67.1055 67.3856 66.7038 66.4215C66.2466 65.3243 61.4766 62.4405 60.4785 61.7656C58.3104 60.2997 56.1811 58.8604 53.9885 57.3782C53.4277 56.9991 52.9684 56.6889 52.4079 56.3093C51.3593 55.5991 50.0936 54.6651 48.6116 56.0596C48.1141 56.5278 47.8594 57.1971 47.8594 58.1094V71.8906C47.8594 73.2249 48.3035 73.7315 49.0844 74.3046L62.0595 83.0843C64.9885 85.0645 64.8265 84.5133 69.1038 81.6218C72.1322 79.5746 77.1705 76.3187 79.9156 74.3046C80.6966 73.7315 81.1406 73.2249 81.1406 71.8906V58.1094C81.1406 56.0417 79.73 55.5622 77.7569 54.2283L69.1038 48.3782C64.0767 44.9799 64.9966 44.9296 60.8945 47.7031C59.7495 48.4773 58.6671 49.2092 57.4833 50.0095C56.3972 50.7439 54.998 51.4358 54.9958 53.047C54.9948 53.7866 55.3792 54.4914 55.8758 54.902L67.6895 62.8906C68.3079 63.3087 70.5682 65 71.2949 65Z" fill="white"/>
</svg>
