<svg width="105" height="101" viewBox="0 0 105 101" fill="none" xmlns="http://www.w3.org/2000/svg">
<path d="M47.1598 43.1523L55.3074 62.9609C58.76 64.0604 61.5651 66.8751 62.4195 70.6814C63.6961 76.3677 60.1447 82.0164 54.4922 83.2904C48.8399 84.5642 43.2164 80.9833 41.9398 75.2971C41.0853 71.4908 42.4173 67.7437 45.0676 65.2687L44.0418 43.8552L47.1598 43.1523Z" fill="#D9EBFF"/>
<path d="M1.30064 85.955C-5.08537 57.5083 12.665 29.2819 40.9373 22.9101C69.2095 16.5382 97.3132 34.4303 103.699 62.8769C106.738 76.4112 104.312 89.8954 97.8899 101H85.1475C92.9276 91.3106 96.3955 78.263 93.4595 65.1847C88.3592 42.4655 65.8339 28.1214 43.2498 33.2112C20.6658 38.3011 6.44016 60.928 11.5405 83.6472C13.0165 90.2222 15.9522 96.0958 19.9261 101H7.18404C4.53115 96.4335 2.51995 91.3866 1.30064 85.955Z" fill="#D9EBFF"/>
<path d="M26.0724 4.61555L28.5942 15.849C35.5279 12.9985 41.4304 11.6411 49.0739 11.2334L46.5521 0L26.0724 4.61555Z" fill="#D9EBFF"/>
<path d="M83.7408 7.8521L78.1639 16.7225C81.373 18.1745 84.4543 19.8718 87.3793 21.8316L92.6153 13.5033L83.7408 7.8521Z" fill="#D9EBFF"/>
</svg>
