<svg width="35" height="35" viewBox="0 0 35 35">
	<path fill-rule="evenodd" clip-rule="evenodd"
		d="M0 7.92958V33.4277C0 34.3172 0.682758 35 1.57228 35H27.0702C27.9733 35 28.6425 34.2433 28.6425 33.4959V17.4999C28.6425 16.5405 27.8812 15.8859 27.0113 15.9026C26.0815 15.9205 25.4297 16.6354 25.4297 17.5683V31.787H3.21299V9.5703H17.4317C19.6636 9.5703 19.5987 6.35731 17.4999 6.35731H1.50383C1.10701 6.35731 0.670119 6.60103 0.457398 6.8147C0.201513 7.07178 0 7.43951 0 7.92958H0ZM19.0722 1.50383C19.0722 2.42197 19.6829 3.04797 20.4641 3.18819C20.9487 3.275 28.5852 3.21299 29.4628 3.21299L13.518 19.1919C12.9958 19.711 12.7149 19.9986 12.7149 20.7811C12.7149 21.6639 14.0558 23.25 15.774 21.5163L31.787 5.53719C31.787 6.43743 31.7305 13.9745 31.802 14.4772C32.1001 16.5755 35 16.2338 35 14.4238V1.57228C35 0.682758 34.3172 0 33.4277 0H20.5762C19.8121 0 19.0722 0.746431 19.0722 1.50383V1.50383Z"
		fill="inherit" />
</svg>