<svg width="28" height="35" xmlns="http://www.w3.org/2000/svg"><path d="M24.76 4.375h-5.794V3.281C18.966 1.47 17.55 0 15.805 0H11.59C9.844 0 8.43 1.469 8.43 3.281v1.094H2.633C1.18 4.375 0 5.599 0 7.109v2.188C0 9.9.472 10.39 1.054 10.39H26.34c.582 0 1.054-.49 1.054-1.094V7.109c0-1.51-1.18-2.734-2.634-2.734zM10.537 3.281c0-.603.473-1.094 1.054-1.094h4.215c.58 0 1.053.491 1.053 1.094v1.094h-6.322V3.281zM2 12.578a.336.336 0 00-.33.358l.87 18.939C2.62 33.627 4.007 35 5.697 35h16c1.69 0 3.078-1.373 3.158-3.125l.87-18.939a.336.336 0 00-.33-.358H2zm15.912 2.735c0-.605.472-1.094 1.054-1.094.582 0 1.053.49 1.053 1.094V29.53c0 .605-.471 1.094-1.053 1.094s-1.054-.49-1.054-1.094V15.313zm-5.268 0c0-.605.471-1.094 1.053-1.094.583 0 1.054.49 1.054 1.094V29.53c0 .605-.471 1.094-1.054 1.094-.582 0-1.053-.49-1.053-1.094V15.313zm-5.269 0c0-.605.472-1.094 1.054-1.094.582 0 1.054.49 1.054 1.094V29.53c0 .605-.472 1.094-1.054 1.094-.582 0-1.054-.49-1.054-1.094V15.313z" fill="inherit"/></svg>