<svg width="20" height="18" xmlns="http://www.w3.org/2000/svg"><path d="M.74 4.202h2.965l2.599 3.559.932-1.208S4.634 2.96 4.446 2.72H.74c-.41 0-.741.396-.741.8 0 .405.332.681.74.681zm15.951 7.533c-.22-.219-.91-.161-1.132.057v2.042h-2.963l-2.62-3.585-.932 1.208 2.81 3.792h3.705v2.128c.221.218.912.121 1.132-.098l3.143-2.376a.556.556 0 000-.792l-3.143-2.377zM15.56 4.202v1.992c.221.219.912.31 1.132.091l3.143-2.376a.556.556 0 000-.792L16.691.74c-.22-.22-.91-.345-1.132-.127V2.72h-3.704l-8.15 11.114H.74c-.41 0-.741.276-.741.682 0 .404.332.8.74.8h3.706l8.15-11.114h2.963z" fill="inherit"/></svg>