<svg width="49" height="48" viewBox="0 0 49 48" xmlns="http://www.w3.org/2000/svg">
<g clip-path="url(#clip0_939:197)">
<path d="M48.4961 14.0555C48.3841 11.5153 47.9733 9.76892 47.3849 8.25568C46.7778 6.64942 45.8439 5.21133 44.6203 4.01584C43.4248 2.80175 41.9773 1.85835 40.3896 1.26079C38.8676 0.672348 37.1304 0.26157 34.5902 0.149573C32.031 0.0280905 31.2186 0 24.7279 0C18.2372 0 17.4247 0.0280905 14.8751 0.140088C12.3349 0.252085 10.5885 0.663227 9.07566 1.2513C7.46903 1.85835 6.03095 2.79227 4.83546 4.01584C3.62137 5.21133 2.67833 6.6589 2.08041 8.24656C1.49197 9.76892 1.08119 11.5058 0.969191 14.046C0.847709 16.6051 0.819618 17.4176 0.819618 23.9083C0.819618 30.399 0.847709 31.2114 0.959706 33.7611C1.0717 36.3013 1.48285 38.0476 2.07129 39.5609C2.67833 41.1672 3.62137 42.6052 4.83546 43.8007C6.03095 45.0148 7.47852 45.9582 9.06618 46.5558C10.5885 47.1442 12.3254 47.555 14.8659 47.667C17.4152 47.7794 18.228 47.8071 24.7188 47.8071C31.2095 47.8071 32.0219 47.7794 34.5716 47.667C37.1118 47.555 38.8581 47.1442 40.371 46.5558C43.5839 45.3136 46.1241 42.7734 47.3663 39.5609C47.9543 38.0385 48.3655 36.3013 48.4775 33.7611C48.5895 31.2114 48.6176 30.399 48.6176 23.9083C48.6176 17.4176 48.6081 16.6051 48.4961 14.0555ZM44.1909 33.5743C44.0881 35.9091 43.6959 37.1699 43.369 38.0104C42.5657 40.0931 40.9127 41.7461 38.83 42.5494C37.9895 42.8763 36.7196 43.2685 34.3939 43.371C31.8724 43.4833 31.1161 43.5111 24.7374 43.5111C18.3586 43.5111 17.5929 43.4833 15.0805 43.371C12.7457 43.2685 11.4849 42.8763 10.6444 42.5494C9.60792 42.1664 8.66452 41.5593 7.89878 40.7655C7.10495 39.9903 6.49791 39.0564 6.11485 38.0199C5.78798 37.1794 5.39581 35.9091 5.2933 33.5838C5.18094 31.0622 5.15321 30.3056 5.15321 23.9269C5.15321 17.5482 5.18094 16.7824 5.2933 14.2703C5.39581 11.9355 5.78798 10.6747 6.11485 9.83422C6.49791 8.79743 7.10495 7.85439 7.90827 7.08829C8.68313 6.29446 9.61704 5.68741 10.6538 5.30472C11.4944 4.97785 12.7646 4.58568 15.0899 4.4828C17.6115 4.37081 18.3681 4.34272 24.7465 4.34272C31.1347 4.34272 31.891 4.37081 34.4034 4.4828C36.7382 4.58568 37.999 4.97785 38.8395 5.30472C39.8759 5.68741 40.8194 6.29446 41.5851 7.08829C42.3789 7.86351 42.986 8.79743 43.369 9.83422C43.6959 10.6747 44.0881 11.9447 44.1909 14.2703C44.3029 16.7919 44.331 17.5482 44.331 23.9269C44.331 30.3056 44.3029 31.0528 44.1909 33.5743Z" fill="inherit"/>
<path d="M24.7271 11.6272C17.9471 11.6272 12.4461 17.1278 12.4461 23.9082C12.4461 30.6886 17.9471 36.1892 24.7271 36.1892C31.5075 36.1892 37.0082 30.6886 37.0082 23.9082C37.0082 17.1278 31.5075 11.6272 24.7271 11.6272ZM24.7271 31.8746C20.3286 31.8746 16.7608 28.3071 16.7608 23.9082C16.7608 19.5093 20.3286 15.9418 24.7271 15.9418C29.126 15.9418 32.6935 19.5093 32.6935 23.9082C32.6935 28.3071 29.126 31.8746 24.7271 31.8746Z" fill="inherit"/>
<path d="M40.3612 11.1417C40.3612 12.725 39.0775 14.0088 37.4938 14.0088C35.9105 14.0088 34.6268 12.725 34.6268 11.1417C34.6268 9.55807 35.9105 8.27466 37.4938 8.27466C39.0775 8.27466 40.3612 9.55807 40.3612 11.1417Z" fill="inherit"/>
</g>
<defs>
<clipPath id="clip0_939:197">
<rect width="47.8072" height="47.8072" fill="white" transform="translate(0.73494)"/>
</clipPath>
</defs>
</svg>
