<svg width="51" height="34" viewBox="0 0 51 34" xmlns="http://www.w3.org/2000/svg">
<path d="M49.165 5.42744C48.5918 3.37943 46.9126 1.7651 44.783 1.21361C40.8922 0.189789 25.3292 0.189789 25.3292 0.189789C25.3292 0.189789 9.76646 0.189789 5.87569 1.17458C3.78711 1.7257 2.06685 3.37979 1.49369 5.42744C0.469881 9.1682 0.469881 16.9262 0.469881 16.9262C0.469881 16.9262 0.469881 24.7232 1.49369 28.4249C2.06723 30.4726 3.74614 32.0873 5.87607 32.6388C9.80742 33.6626 25.3295 33.6626 25.3295 33.6626C25.3295 33.6626 40.8922 33.6626 44.783 32.6778C46.9129 32.1267 48.5918 30.512 49.1654 28.4643C50.1892 24.7232 50.1892 16.9656 50.1892 16.9656C50.1892 16.9656 50.2302 9.1682 49.165 5.42744Z" fill="inherit"/>
<path d="M20.374 24.0934L33.3156 16.9262L20.374 9.75909V24.0934Z" fill="currentColor"/>
</svg>
