<svg width="48" height="28" viewBox="0 0 48 28" xmlns="http://www.w3.org/2000/svg">
<g clip-path="url(#clip0_939:204)">
<path d="M47.7466 24.899C47.6887 24.7743 47.6347 24.6708 47.5846 24.5879C46.7551 23.094 45.17 21.2604 42.8303 19.0865L42.7809 19.0367L42.7561 19.0123L42.7311 18.9873H42.706C41.6441 17.975 40.9717 17.2943 40.6901 16.9459C40.1748 16.2821 40.0594 15.6102 40.341 14.9293C40.54 14.415 41.2873 13.3287 42.5813 11.669C43.2619 10.7894 43.8009 10.0844 44.199 9.55332C47.07 5.73647 48.3147 3.29745 47.9329 2.23531L47.7846 1.9871C47.6849 1.83767 47.4277 1.70096 47.0134 1.57629C46.598 1.45188 46.0672 1.43131 45.4198 1.51422L38.2513 1.56374C38.1352 1.52259 37.9694 1.52643 37.7533 1.57629C37.5376 1.62616 37.4296 1.65118 37.4296 1.65118L37.3049 1.71352L37.2058 1.78841C37.1228 1.83793 37.0316 1.92502 36.9319 2.04952C36.8328 2.17358 36.7499 2.31918 36.6836 2.48508C35.9032 4.49298 35.0158 6.35983 34.0199 8.08552C33.4059 9.11453 32.842 10.0063 32.327 10.7614C31.8127 11.5162 31.3813 12.0724 31.0331 12.4289C30.6843 12.7857 30.3696 13.0716 30.087 13.2875C29.8047 13.5036 29.5893 13.5948 29.4401 13.5614C29.2906 13.5281 29.1498 13.4949 29.0165 13.4618C28.7844 13.3124 28.5976 13.1091 28.4568 12.852C28.3154 12.5948 28.2202 12.2711 28.1704 11.8811C28.1209 11.4909 28.0916 11.1552 28.0832 10.873C28.0755 10.5911 28.0791 10.1925 28.0959 9.67808C28.1131 9.16344 28.1209 8.81523 28.1209 8.63267C28.1209 8.002 28.1332 7.31752 28.1579 6.57909C28.183 5.84065 28.2033 5.25557 28.2203 4.82454C28.2372 4.39307 28.245 3.93659 28.245 3.45534C28.245 2.97409 28.2158 2.59668 28.1579 2.32275C28.1007 2.04917 28.0129 1.78361 27.8972 1.52616C27.7808 1.26898 27.6104 1.07003 27.3869 0.92879C27.1629 0.787728 26.8845 0.675786 26.5531 0.592614C25.6735 0.393576 24.5535 0.285906 23.1925 0.269167C20.1061 0.236037 18.123 0.435336 17.2435 0.866803C16.895 1.0491 16.5797 1.29818 16.2977 1.61326C15.999 1.97847 15.9573 2.17777 16.173 2.21055C17.1688 2.35972 17.8737 2.71655 18.2886 3.28071L18.4381 3.57966C18.5544 3.79535 18.6706 4.17721 18.7868 4.72472C18.9028 5.27222 18.9777 5.87788 19.0107 6.54134C19.0935 7.75291 19.0935 8.79004 19.0107 9.6528C18.9276 10.5159 18.8491 11.1878 18.7742 11.6691C18.6993 12.1503 18.5874 12.5403 18.4381 12.8389C18.2886 13.1376 18.1892 13.3201 18.1393 13.3864C18.0895 13.4526 18.048 13.4944 18.0151 13.5108C17.7994 13.5934 17.575 13.6356 17.3429 13.6356C17.1104 13.6356 16.8284 13.5193 16.4966 13.2868C16.1649 13.0544 15.8206 12.7351 15.4637 12.3285C15.1069 11.9218 14.7045 11.3535 14.2563 10.6234C13.8084 9.89333 13.3437 9.03049 12.8625 8.03486L12.4643 7.31282C12.2154 6.84831 11.8754 6.17195 11.4439 5.28434C11.0122 4.39639 10.6306 3.53746 10.2989 2.70775C10.1663 2.35928 9.96706 2.09398 9.70159 1.91142L9.577 1.83653C9.49418 1.77028 9.36123 1.69992 9.17884 1.62494C8.99619 1.55005 8.80561 1.49635 8.60631 1.4633L1.78611 1.51283C1.08917 1.51283 0.616297 1.67071 0.367304 1.98605L0.267654 2.13522C0.217873 2.21831 0.192764 2.351 0.192764 2.53365C0.192764 2.71621 0.242545 2.94026 0.342195 3.20556C1.33782 5.54554 2.42054 7.80226 3.59035 9.97607C4.76017 12.1499 5.77672 13.9009 6.63939 15.2277C7.50223 16.5554 8.38173 17.8085 9.27788 18.9863C10.174 20.1646 10.7672 20.9197 11.0574 21.2514C11.348 21.5837 11.5763 21.8322 11.7422 21.9981L12.3646 22.5954C12.7628 22.9937 13.3476 23.4708 14.1193 24.0266C14.8911 24.5827 15.7456 25.1302 16.6832 25.67C17.6209 26.2088 18.7118 26.6486 19.9565 26.9887C21.201 27.3291 22.4124 27.4658 23.5906 27.3998H26.4532C27.0337 27.3497 27.4736 27.1672 27.7725 26.8521L27.8716 26.7273C27.9382 26.6283 28.0005 26.4744 28.058 26.2673C28.1163 26.0599 28.1452 25.8314 28.1452 25.5829C28.1282 24.8695 28.1825 24.2265 28.3067 23.654C28.4307 23.0818 28.5722 22.6503 28.7303 22.3597C28.8884 22.0694 29.0667 21.8244 29.2653 21.6258C29.4642 21.4268 29.606 21.3062 29.6891 21.2647C29.7718 21.223 29.8378 21.1946 29.8876 21.1776C30.2858 21.0449 30.7545 21.1734 31.2943 21.5638C31.8337 21.9537 32.3397 22.4352 32.8129 23.0075C33.2859 23.5803 33.8541 24.2229 34.5177 24.9363C35.1818 25.65 35.7624 26.1805 36.2601 26.5295L36.7577 26.8282C37.0901 27.0275 37.5215 27.21 38.0526 27.376C38.5828 27.5418 39.0473 27.5833 39.4462 27.5004L45.8181 27.401C46.4483 27.401 46.9387 27.2966 47.2866 27.0896C47.6351 26.8822 47.8422 26.6536 47.909 26.4051C47.9756 26.1563 47.9792 25.874 47.9216 25.5584C47.8626 25.2436 47.8044 25.0234 47.7466 24.899Z" fill="inherit"/>
</g>
<defs>
<clipPath id="clip0_939:204">
<rect width="48.0001" height="28" fill="white"/>
</clipPath>
</defs>
</svg>
